<?xml version="1.0" encoding="UTF-8" standalone="no"?>
<!-- Created with Inkscape (http://www.inkscape.org/) -->
<svg
   xmlns:dc="http://purl.org/dc/elements/1.1/"
   xmlns:cc="http://creativecommons.org/ns#"
   xmlns:rdf="http://www.w3.org/1999/02/22-rdf-syntax-ns#"
   xmlns:svg="http://www.w3.org/2000/svg"
   xmlns="http://www.w3.org/2000/svg"
   xmlns:sodipodi="http://sodipodi.sourceforge.net/DTD/sodipodi-0.dtd"
   xmlns:inkscape="http://www.inkscape.org/namespaces/inkscape"
   width="744.09448819"
   height="1052.3622047"
   id="svg1341"
   sodipodi:version="0.32"
   inkscape:version="0.46"
   sodipodi:docname="gpl-v3-logo (copy).svg"
   inkscape:output_extension="org.inkscape.output.svg.inkscape">
  <sodipodi:namedview
     id="base"
     pagecolor="#ffffff"
     bordercolor="#666666"
     borderopacity="1.0"
     inkscape:pageopacity="0.0"
     inkscape:pageshadow="2"
     inkscape:zoom="0.56729519"
     inkscape:cx="372.04724"
     inkscape:cy="526.18109"
     inkscape:document-units="px"
     inkscape:current-layer="layer1"
     inkscape:window-width="1439"
     inkscape:window-height="825"
     inkscape:window-x="1"
     inkscape:window-y="49"
     showgrid="false" />

  <defs>
     <mask id="free-software-text-mask" x="0" y="0" width="100%" height="100%">
        <rect width="100%" height="100%" fill="white" />

        <text
          xml:space="preserve"
          style="font-style:italic;font-weight:bold;font-size:47.4809px;font-family:Swansea;-inkscape-font-specification:'Swansea Bold Italic';text-align:end;text-anchor:end;display:inline;fill:black;fill-rule:evenodd;stroke-width:2.44021;paint-order:markers fill stroke"
          x="383.10098"
          y="244.00221"
          id="text190"><tspan
            sodipodi:role="line"
            id="tspan188"
            x="383.10098"
            y="244.00221"
            style="stroke-width:2.44021">Free Software</tspan></text>
     </mask>
  </defs>

  <metadata
     id="metadata1346">
    <rdf:RDF>
      <cc:Work
         rdf:about="">
        <dc:format>image/svg+xml</dc:format>
        <dc:type
           rdf:resource="http://purl.org/dc/dcmitype/StillImage" />
      </cc:Work>
    </rdf:RDF>
  </metadata>
  <g
     inkscape:label="Layer 1"
     inkscape:groupmode="layer"
     id="layer1">
    <g
       id="g2486"
       transform="translate(-10.576504,12.339255)">
      <path
         sodipodi:nodetypes="cccccccccccccccccccccccccccccccscccccccccccccccccccccccccssccscccscccccccccccsccscccscccsccscccccccccccscccccccc"
         mask="url(#free-software-text-mask)"
         style="fill:#bd0000;fill-opacity:1;fill-rule:evenodd;stroke:none;stroke-width:1pt;stroke-linecap:butt;stroke-linejoin:miter"
         d="m 107.04146,18.25331 c 2e-5,0 -59.309734,258.76742 -59.309734,258.76742 h 0.05329 274.380814 142.70573 c -17.00107,-1.48353 -30.42327,-7.45182 -38.42076,-18.33112 -1.48353,-2.01219 -2.70918,-4.17993 -3.78347,-6.44788 -0.68207,-1.6711 -1.32368,-3.35715 -1.97167,-5.06237 -1.70524,-5.42261 -2.38517,-11.43991 -2.07824,-17.85154 0.85262,-17.87074 9.23805,-39.12802 23.76654,-61.38798 15.43225,-23.65656 37.79837,-48.45089 65.49116,-71.45944 6.20699,-5.15319 12.62503,-10.24199 19.34361,-15.18714 8.30441,-6.10979 16.67281,-11.73661 25.04545,-16.99893 30.84745,-19.42077 61.61817,-33.01012 88.88467,-39.91282 -26.05577,8.50051 -55.32805,22.93138 -84.24861,42.57724 -1.04016,0.70255 -2.06758,1.42215 -3.09072,2.13152 -16.04613,11.11805 -30.58314,22.92586 -43.26998,34.85046 -40.82303,38.38457 -62.40046,78.15884 -52.59544,101.46069 0.69916,1.6029 1.53256,3.13335 2.50455,4.58279 10.53825,15.50047 36.65587,18.17979 69.75422,9.85831 2.25089,-0.56275 4.50178,-1.20004 6.82088,-1.86508 10.57238,-3.05237 21.797,-7.17473 33.3584,-12.25628 2.77949,-1.22777 5.58887,-2.48963 8.41953,-3.83676 0.28988,-0.13641 0.56273,-0.27283 0.85261,-0.4263 36.49173,-18.13162 64.53625,-38.99458 70.60684,-51.52967 1.33008,-2.72662 1.6498,-5.0513 0.74603,-6.87417 -4.33124,-8.78188 -34.63945,-2.849 -71.35287,13.0556 -2.95003,1.2789 -5.93417,2.59492 -8.95241,3.99661 2.45552,-2.27986 5.01123,-4.56828 7.6202,-6.82089 4.16075,-3.58438 8.46856,-7.08945 13.0556,-10.55104 7.179,-5.43627 14.43685,-10.35071 21.58173,-14.70754 33.45643,-25.24067 50.3701,-49.11722 46.8403,-57.97753 -0.66505,-1.66943 -2.08037,-2.81789 -4.26306,-3.51703 -6.97438,-2.21847 -19.70383,0.42929 -35.17019,6.7676 -12.75504,5.23164 -27.40504,12.9908 -42.25752,22.64748 l -2.02495,1.3322 c 2e-5,0 -0.37302,0.21314 -0.37302,0.21314 2e-5,2e-5 -7.14061,4.74265 -7.14061,4.74265 -2e-5,-1e-5 4.10319,-7.51363 4.10319,-7.51363 6.08765,-11.14364 16.0035,-22.77067 28.3493,-33.57154 9.05473,-7.89689 19.39903,-15.33762 30.53413,-21.84816 4.21191,-2.46573 8.4174,-4.75586 12.62929,-6.82088 4.31422,-2.10769 8.63055,-3.98089 12.84246,-5.64859 12.23682,-4.8393 23.91781,-7.7798 34.10442,-8.5794 h -28.61574 -96.45159 -425.29295 z m 305.98071,0.3731 c -1.67109,25.50496 3.27403,62.86211 14.49439,104.3382 1.99509,7.38021 4.16712,14.89085 6.55444,22.48762 1.48356,4.69104 3.01399,9.30881 4.58278,13.85492 -0.9208,1.35396 -1.84804,2.69937 -2.7177,4.0499 -13.99985,21.45508 -22.1828,41.73104 -24.24611,59.36303 -5.91714,-19.81468 -10.37201,-41.5183 -12.89574,-64.53198 -0.71619,-6.5941 -1.27679,-13.11442 -1.65194,-19.55675 -2.76247,-46.79639 3.34649,-89.2172 15.87988,-120.00494 z m -279.3899,33.1985 c 0.31934,-0.0075 0.63414,0 0.95918,0 0,-2e-5 63.03991,0 63.03991,0 5.38851,-2e-5 9.55564,1.00991 12.52272,3.03742 2.95002,2.03946 4.05631,4.67743 3.35715,7.88665 2e-5,2e-5 -7.51363,33.94456 -7.51363,33.94456 0,3e-5 -22.22116,0 -22.22116,0 2e-5,3e-5 7.30048,-33.03866 7.30048,-33.03866 h -55.63285 c -2e-5,0 -20.08965,90.80305 -20.08965,90.80305 2e-5,0 -7.24719,32.87881 -7.24719,32.87881 0,3e-5 55.57957,0 55.57957,0 0,3e-5 0.0533,-0.21316 0.0533,-0.21316 0,2e-5 11.13722,-50.30404 11.13722,-50.30404 0,-2e-5 -26.1112,0 -26.1112,0 0,-2e-5 2.50454,-11.35038 2.50454,-11.35038 -1e-5,-2e-5 48.33238,0 48.33238,0 0,-2e-5 -13.85493,62.77348 -13.85493,62.77348 -0.18757,0.89352 -0.51582,1.70308 -0.95919,2.50453 -1.14249,2.08037 -3.13547,3.86234 -5.91498,5.32883 -3.85378,2.02923 -8.46643,3.03742 -13.85493,3.03742 0,2e-5 -62.98662,0 -62.98662,0 -5.388524,2e-5 -9.555644,-1.00821 -12.522724,-3.03742 -2.95001,-2.0292 -4.07335,-4.62073 -3.35715,-7.83336 1e-5,-2e-5 27.763134,-125.49366 27.763134,-125.49366 0.71618,-3.20921 2.95005,-5.84721 6.82089,-7.88665 0.13642,-0.07331 0.28989,-0.08995 0.4263,-0.15986 3.53302,-1.7697 7.67937,-2.76443 12.46944,-2.87756 z m 98.79628,0 c -2e-5,-2e-5 79.34608,0 79.34608,0 5.32031,-2e-5 9.50235,1.00991 12.46943,3.03742 2.98417,2.03946 4.12666,4.67743 3.41045,7.88665 2e-5,2e-5 -14.81411,66.92995 -14.81411,66.92995 -0.69912,3.18874 -2.98627,5.7905 -6.87417,7.83336 -3.8879,2.04966 -8.4643,3.09071 -13.80164,3.09071 h -57.6578 l -11.13723,50.25075 c 0,2e-5 -1.8118,8.25967 -1.8118,8.25967 1e-5,2e-5 -21.74158,0 -21.74158,0 0,2e-5 1.65193,-7.46034 1.65193,-7.46034 0,2e-5 30.96044,-139.82817 30.96044,-139.82817 z m 109.61377,0 c -1e-5,-2e-5 21.74158,0 21.74158,0 2e-5,-2e-5 -24.61914,111.21241 -24.61914,111.21241 2e-5,2e-5 -5.3821,24.29942 -5.3821,24.29942 0,3e-5 52.00926,0 52.00926,0 0.54568,3.98854 1.18299,7.90582 1.86508,11.77668 -2e-5,2e-5 -78.22705,0 -78.22705,0 2e-5,2e-5 6.18143,-27.92301 6.18143,-27.92301 2e-5,0 26.43094,-119.3655 26.43094,-119.3655 z m -90.48332,11.82997 c 2e-5,0 -14.4411,65.11814 -14.4411,65.11814 0,-2e-5 54.19408,0 54.19408,0 -1e-5,-2e-5 14.3878,-65.11814 14.3878,-65.11814 z"
         id="path2579" />
      <text
         xml:space="preserve"
         style="font-style:italic;font-weight:bold;font-size:90.0425px;font-family:'Myriad Pro';-inkscape-font-specification:'Myriad Pro Bold Italic';text-align:end;text-anchor:end;fill-rule:evenodd;stroke-width:363.286;paint-order:markers fill stroke;fill:#bd0000;fill-opacity:1"
         x="739.11932"
         y="375.9679"
         id="text322"
         transform="translate(10.576504,-12.339255)"><tspan
           sodipodi:role="line"
           id="tspan320"
           x="739.11932"
           y="375.9679"
           style="stroke-width:363.286;fill:#bd0000;fill-opacity:1">Free as in Freedom</tspan></text>
      <path
         style="fill:#bd0000;fill-opacity:0;fill-rule:evenodd;stroke:#bd0000;stroke-width:8.52610779;stroke-linecap:butt;stroke-linejoin:miter;stroke-miterlimit:4;stroke-opacity:1"
         id="path2647"
         d="M 417.07944,250.20635 C 417.77165,251.98597 418.46389,253.76268 419.18494,255.50045 C 420.2954,257.86122 421.5789,260.12105 423.12198,262.2309 C 431.45755,273.56176 445.41744,279.76585 463.14129,281.31037 C 463.14129,281.31037 482.20635,281.31037 482.20635,281.31037 C 488.23446,280.84023 494.55102,279.96341 501.09833,278.68278 C 512.39026,276.47488 524.36,273.08298 536.79121,268.55034 C 546.20836,265.11659 555.88511,261.0541 565.70606,256.33256 C 587.09294,246.08041 609.18647,232.85747 630.86181,216.90021 C 638.00038,211.64939 644.85053,206.26158 651.42668,200.78291 C 657.45481,195.76715 663.23778,190.67349 668.76114,185.52364 C 684.17759,170.66675 695.81564,155.57767 702.40621,142.32874 C 709.27073,128.53184 710.64082,116.73516 705.01649,109.30381 C 701.56976,104.74235 695.80122,102.29792 688.37421,101.72251 C 721.83174,76.6178 741.32949,46.16418 734.33517,26.96361 C 732.11421,20.83591 727.22536,16.26441 720.21659,13.73631 C 717.10162,12.61581 713.59716,11.90621 709.77549,11.58321 C 709.77549,11.58321 699.47866,11.58321 699.47866,11.58321 C 685.10058,12.62011 664.19202,17.76851 646.45376,26.46171"
         sodipodi:nodetypes="cccccssccccscccsccc" />
    </g>
  </g>
</svg>
