<?xml version="1.0" encoding="UTF-8" standalone="no"?>
<!-- Generator: Adobe Illustrator 14.0.0, SVG Export Plug-In . SVG Version: 6.00 Build 43363)  -->

<svg
   xmlns:dc="http://purl.org/dc/elements/1.1/"
   xmlns:cc="http://creativecommons.org/ns#"
   xmlns:rdf="http://www.w3.org/1999/02/22-rdf-syntax-ns#"
   xmlns:svg="http://www.w3.org/2000/svg"
   xmlns="http://www.w3.org/2000/svg"
   xmlns:xlink="http://www.w3.org/1999/xlink"
   xmlns:sodipodi="http://sodipodi.sourceforge.net/DTD/sodipodi-0.dtd"
   xmlns:inkscape="http://www.inkscape.org/namespaces/inkscape"
   version="1.1"
   id="Capa_1"
   x="0px"
   y="0px"
   width="841.89px"
   height="595.28px"
   viewBox="0 0 841.89 595.28"
   enable-background="new 0 0 841.89 595.28"
   xml:space="preserve"
   inkscape:version="0.48.2 r9819"
   sodipodi:docname="Licencias.svg"
   sodipodi:version="0.32"
   inkscape:output_extension="org.inkscape.output.svg.inkscape"><metadata
   id="metadata507"><rdf:RDF><cc:Work
       rdf:about=""><dc:format>image/svg+xml</dc:format><dc:type
         rdf:resource="http://purl.org/dc/dcmitype/StillImage" /><dc:title></dc:title><cc:license
         rdf:resource="http://creativecommons.org/licenses/by/3.0/" /></cc:Work><cc:License
       rdf:about="http://creativecommons.org/licenses/by/3.0/"><cc:permits
         rdf:resource="http://creativecommons.org/ns#Reproduction" /><cc:permits
         rdf:resource="http://creativecommons.org/ns#Distribution" /><cc:requires
         rdf:resource="http://creativecommons.org/ns#Notice" /><cc:requires
         rdf:resource="http://creativecommons.org/ns#Attribution" /><cc:permits
         rdf:resource="http://creativecommons.org/ns#DerivativeWorks" /></cc:License></rdf:RDF></metadata><defs
   id="defs505"><linearGradient
   id="linearGradient4471"><stop
     style="stop-color:#696a6b;stop-opacity:1;"
     offset="0"
     id="stop4473" /><stop
     style="stop-color:#9b9c9e;stop-opacity:1;"
     offset="1"
     id="stop4475" /></linearGradient><linearGradient
   id="linearGradient4455"><stop
     style="stop-color:#696a6b;stop-opacity:1;"
     offset="0"
     id="stop4457" /><stop
     style="stop-color:#9b9c9e;stop-opacity:1;"
     offset="1"
     id="stop4459" /></linearGradient><linearGradient
   id="linearGradient4260"><stop
     style="stop-color:#911d21;stop-opacity:1;"
     offset="0"
     id="stop4262" /><stop
     style="stop-color:#c4282d;stop-opacity:1;"
     offset="1"
     id="stop4264" /></linearGradient><linearGradient
   id="linearGradient4235"><stop
     style="stop-color:#592350;stop-opacity:1;"
     offset="0"
     id="stop4237" /><stop
     style="stop-color:#742e68;stop-opacity:1;"
     offset="1"
     id="stop4239" /></linearGradient><linearGradient
   id="linearGradient4197"><stop
     style="stop-color:#16813d;stop-opacity:1;"
     offset="0"
     id="stop4199" /><stop
     style="stop-color:#0d4f25;stop-opacity:1;"
     offset="1"
     id="stop4201" /></linearGradient><linearGradient
   id="linearGradient3598"><stop
     style="stop-color:#742e68;stop-opacity:1;"
     offset="0"
     id="stop3600" /><stop
     style="stop-color:#481c40;stop-opacity:1;"
     offset="1"
     id="stop3602" /></linearGradient><linearGradient
   inkscape:collect="always"
   id="linearGradient3632"><stop
     style="stop-color:#ffffff;stop-opacity:1;"
     offset="0"
     id="stop3634" /><stop
     style="stop-color:#ffffff;stop-opacity:0;"
     offset="1"
     id="stop3636" /></linearGradient><linearGradient
   inkscape:collect="always"
   id="linearGradient3584"><stop
     style="stop-color:#ffffff;stop-opacity:1;"
     offset="0"
     id="stop3586" /><stop
     style="stop-color:#ffffff;stop-opacity:0;"
     offset="1"
     id="stop3588" /></linearGradient><linearGradient
   inkscape:collect="always"
   id="linearGradient3542"><stop
     style="stop-color:#ffffff;stop-opacity:1;"
     offset="0"
     id="stop3544" /><stop
     style="stop-color:#ffffff;stop-opacity:0;"
     offset="1"
     id="stop3546" /></linearGradient><linearGradient
   id="linearGradient3536"><stop
     style="stop-color:#ffffff;stop-opacity:1"
     offset="0"
     id="stop3538" /><stop
     style="stop-color:#ffffff;stop-opacity:0"
     offset="1"
     id="stop3540" /></linearGradient><linearGradient
   id="linearGradient3530"><stop
     style="stop-color:#ffffff;stop-opacity:1"
     offset="0"
     id="stop3532" /><stop
     style="stop-color:#7f1a1d;stop-opacity:1;"
     offset="1"
     id="stop3534" /></linearGradient><linearGradient
   id="linearGradient3483"><stop
     id="stop3485"
     offset="0"
     style="stop-color:#c4282d;stop-opacity:1;" /><stop
     id="stop3487"
     offset="1"
     style="stop-color:#7f1a1d;stop-opacity:1;" /></linearGradient><linearGradient
   id="linearGradient3467"><stop
     style="stop-color:#000000;stop-opacity:1;"
     offset="0"
     id="stop3469" /><stop
     style="stop-color:#000000;stop-opacity:0;"
     offset="1"
     id="stop3471" /></linearGradient>
	
	
	
	
<linearGradient
   inkscape:collect="always"
   xlink:href="#linearGradient3483"
   id="linearGradient3481"
   x1="193.67853"
   y1="227.42769"
   x2="192.737"
   y2="164.42589"
   gradientUnits="userSpaceOnUse" /><linearGradient
   inkscape:collect="always"
   xlink:href="#linearGradient3542"
   id="linearGradient3548"
   x1="223.70312"
   y1="167.78789"
   x2="223.70312"
   y2="224.78125"
   gradientUnits="userSpaceOnUse" />
		
		
	<linearGradient
   inkscape:collect="always"
   xlink:href="#linearGradient3584"
   id="linearGradient3590"
   x1="234.03793"
   y1="165.15395"
   x2="234.35178"
   y2="210.66147"
   gradientUnits="userSpaceOnUse" />
		
	<filter
   inkscape:collect="always"
   id="filter3676"
   x="-0.041724954"
   width="1.0834499"
   y="-0.58146253"
   height="2.1629251"><feGaussianBlur
     inkscape:collect="always"
     stdDeviation="1.9987774"
     id="feGaussianBlur3678" /></filter>
		
	<filter
   inkscape:collect="always"
   id="filter3797"
   x="-0.16028311"
   width="1.3205662"
   y="-0.47746988"
   height="1.9549398"><feGaussianBlur
     inkscape:collect="always"
     stdDeviation="2.0640625"
     id="feGaussianBlur3799" /></filter><linearGradient
   inkscape:collect="always"
   xlink:href="#linearGradient3483"
   id="linearGradient3947"
   gradientUnits="userSpaceOnUse"
   x1="193.67853"
   y1="227.42769"
   x2="192.737"
   y2="164.42589" /><filter
   inkscape:collect="always"
   id="filter3999"
   x="-0.081487084"
   width="1.1629742"
   y="-0.10296158"
   height="1.2059232"><feGaussianBlur
     inkscape:collect="always"
     stdDeviation="0.99465172"
     id="feGaussianBlur4001" /></filter><filter
   inkscape:collect="always"
   id="filter4003"
   x="-0.024206416"
   width="1.0484128"
   y="-0.10283295"
   height="1.2056659"><feGaussianBlur
     inkscape:collect="always"
     stdDeviation="0.99465172"
     id="feGaussianBlur4005" /></filter>
	
	
	
	

		
	
		
		
		
	
		
		
		
		
		
		
		
		
		
		
		
		
	
		
	
	
	
	
	

		
	
		
		
	
		
	
		
		
		
		
	<linearGradient
   inkscape:collect="always"
   xlink:href="#linearGradient3598"
   id="linearGradient3620"
   x1="473.95499"
   y1="225.58197"
   x2="473.95499"
   y2="164.577"
   gradientUnits="userSpaceOnUse" /><linearGradient
   inkscape:collect="always"
   xlink:href="#linearGradient3483"
   id="linearGradient3879"
   gradientUnits="userSpaceOnUse"
   x1="193.67853"
   y1="227.42769"
   x2="192.737"
   y2="164.42589" /><linearGradient
   inkscape:collect="always"
   xlink:href="#linearGradient3483"
   id="linearGradient3881"
   gradientUnits="userSpaceOnUse"
   x1="193.67853"
   y1="227.42769"
   x2="192.737"
   y2="164.42589" /><linearGradient
   inkscape:collect="always"
   xlink:href="#linearGradient3483"
   id="linearGradient3883"
   gradientUnits="userSpaceOnUse"
   gradientTransform="translate(2.7507074,-101.77618)"
   x1="138.40564"
   y1="330.10239"
   x2="138.40564"
   y2="319.71936" /><linearGradient
   inkscape:collect="always"
   xlink:href="#linearGradient3632"
   id="linearGradient3885"
   gradientUnits="userSpaceOnUse"
   x1="137.46411"
   y1="317.84103"
   x2="137.46411"
   y2="324.8385" /><linearGradient
   inkscape:collect="always"
   xlink:href="#linearGradient3584"
   id="linearGradient3887"
   gradientUnits="userSpaceOnUse"
   gradientTransform="translate(3.7826799,-9.9750279)"
   x1="234.03793"
   y1="165.15395"
   x2="233.72409"
   y2="209.09224" /><linearGradient
   inkscape:collect="always"
   xlink:href="#linearGradient3598"
   id="linearGradient3891"
   gradientUnits="userSpaceOnUse"
   x1="473.95499"
   y1="225.58197"
   x2="473.95499"
   y2="164.577" /><linearGradient
   inkscape:collect="always"
   xlink:href="#linearGradient3598"
   id="linearGradient4005"
   gradientUnits="userSpaceOnUse"
   x1="473.95499"
   y1="225.58197"
   x2="473.95499"
   y2="164.577" /><linearGradient
   inkscape:collect="always"
   xlink:href="#linearGradient3598"
   id="linearGradient2938"
   gradientUnits="userSpaceOnUse"
   gradientTransform="translate(16.564834,16.038773)"
   x1="365.68323"
   y1="228.72025"
   x2="365.68323"
   y2="216.25424" />
	
	
	
	
	
<linearGradient
   inkscape:collect="always"
   xlink:href="#linearGradient3483"
   id="linearGradient4400"
   gradientUnits="userSpaceOnUse"
   gradientTransform="translate(2.7507074,-86.640049)"
   x1="138.40564"
   y1="330.10239"
   x2="138.40564"
   y2="319.71936" />
	
	
	
	
	
	
<linearGradient
   inkscape:collect="always"
   xlink:href="#linearGradient4471"
   id="linearGradient4477"
   x1="664.09625"
   y1="501.10046"
   x2="664.09625"
   y2="510.29501"
   gradientUnits="userSpaceOnUse" /><linearGradient
   inkscape:collect="always"
   xlink:href="#linearGradient4471"
   id="linearGradient4513"
   gradientUnits="userSpaceOnUse"
   x1="664.09625"
   y1="501.10046"
   x2="664.09625"
   y2="510.29501" />
		
		
	</defs><sodipodi:namedview
   pagecolor="#ffffff"
   bordercolor="#666666"
   borderopacity="1"
   objecttolerance="10"
   gridtolerance="10"
   guidetolerance="10"
   inkscape:pageopacity="0"
   inkscape:pageshadow="2"
   inkscape:window-width="1280"
   inkscape:window-height="746"
   id="namedview503"
   showgrid="false"
   inkscape:zoom="0.90545621"
   inkscape:cx="420.94501"
   inkscape:cy="443.33958"
   inkscape:window-x="0"
   inkscape:window-y="0"
   inkscape:window-maximized="1"
   inkscape:current-layer="Capa_1"
   showguides="true"
   inkscape:guide-bbox="true" />

















<g
   id="g4885"><g
     style="fill:#999999;filter:url(#filter4003)"
     transform="translate(5.7826799,7.1611126)"
     id="g3833">
		<path
   style="fill:#999999"
   d="M 112.576,215.739 C 111.289,216.748 109.734,217.253 107.91,217.253 L 91.716,217.253 C 89.874,217.253 88.337,216.757 87.104,215.766 C 85.781,214.739 85.12,213.473 85.12,211.968 L 85.12,199.325 C 85.12,197.856 85.781,196.599 87.104,195.554 C 88.391,194.545 89.947,194.04 91.77,194.04 L 107.992,194.04 C 109.69,194.04 111.129,194.509 112.309,195.448 C 113.542,196.386 114.337,197.865 114.695,199.884 L 111.397,199.884 C 111.165,198.91 110.727,198.228 110.083,197.839 C 109.529,197.503 108.823,197.335 107.965,197.335 L 91.77,197.335 C 90.804,197.335 89.982,197.557 89.303,197.999 C 88.714,198.371 88.418,198.813 88.418,199.327 L 88.418,211.97 C 88.418,212.501 88.713,212.962 89.303,213.351 L 89.277,213.325 C 89.938,213.768 90.752,213.989 91.717,213.989 L 107.912,213.989 C 108.752,213.989 109.502,213.812 110.164,213.458 C 110.951,213.086 111.344,212.582 111.344,211.944 L 111.344,207.296 L 98.231,207.296 L 98.231,204.029 L 114.614,204.029 L 114.614,211.97 C 114.614,213.438 113.934,214.694 112.576,215.739 z"
   id="path3835" />
		<path
   style="fill:#999999"
   d="M 147.191,205.779 C 145.958,206.771 144.411,207.266 142.552,207.266 L 123.005,207.266 L 123.005,217.252 L 119.707,217.252 L 119.707,199.324 C 119.707,197.855 120.368,196.598 121.691,195.553 C 122.978,194.544 124.533,194.039 126.357,194.039 L 142.552,194.039 C 144.357,194.039 145.895,194.544 147.164,195.553 C 148.505,196.598 149.175,197.855 149.175,199.324 L 149.175,201.98 C 149.175,203.486 148.514,204.752 147.191,205.779 z M 145.904,199.325 C 145.904,198.83 145.6,198.387 144.992,197.997 C 144.312,197.555 143.499,197.333 142.552,197.333 L 126.33,197.333 C 125.508,197.333 124.766,197.501 124.104,197.837 C 123.371,198.174 123.005,198.67 123.005,199.324 L 123.005,204 L 142.552,204 C 143.499,204 144.312,203.788 144.992,203.362 C 145.599,202.973 145.904,202.512 145.904,201.981 L 145.904,199.325 z"
   id="path3837" />
		<path
   style="fill:#999999"
   d="M 183.737,212.074 C 183.469,213.65 182.718,214.916 181.485,215.872 C 180.287,216.792 178.839,217.253 177.142,217.253 L 160.92,217.253 C 159.097,217.253 157.55,216.757 156.281,215.766 C 154.941,214.739 154.27,213.473 154.27,211.968 L 154.27,194.067 L 157.622,194.067 L 157.622,211.968 C 157.622,212.499 157.917,212.96 158.507,213.349 L 158.481,213.323 C 159.142,213.766 159.955,213.987 160.921,213.987 L 177.143,213.987 C 177.965,213.987 178.68,213.81 179.288,213.456 L 179.261,213.456 C 179.905,213.067 180.342,212.403 180.575,211.464 L 183.202,211.464 L 183.737,212.074 z"
   id="path3839" />
	</g><g
     style="fill:#999999;fill-opacity:1;filter:url(#filter3999)"
     transform="translate(5.7826799,7.1611126)"
     id="g3841">
		<path
   style="fill:#999999;fill-opacity:1"
   d="M 270.385,211.954 C 270.385,213.459 269.721,214.725 268.393,215.752 C 267.171,216.744 265.648,217.239 263.825,217.239 L 247.757,217.239 C 246.075,217.239 244.65,216.787 243.481,215.885 C 242.224,214.911 241.427,213.424 241.09,211.423 L 244.357,211.423 C 244.587,212.361 245.012,213.034 245.632,213.442 L 245.605,213.442 C 246.207,213.796 246.924,213.973 247.756,213.973 L 263.824,213.973 C 264.744,213.973 265.541,213.76 266.215,213.335 C 266.817,212.946 267.118,212.485 267.118,211.954 L 267.118,209.298 C 267.118,208.803 266.817,208.36 266.215,207.97 C 265.507,207.51 264.701,207.279 263.798,207.279 L 255.246,207.279 L 255.246,204.012 L 263.825,204.012 C 264.763,204.012 265.56,203.791 266.216,203.348 C 266.818,202.959 267.119,202.507 267.119,201.994 L 267.119,199.338 C 267.119,198.842 266.818,198.4 266.216,198.01 C 265.508,197.55 264.702,197.32 263.799,197.32 L 247.757,197.32 C 246.943,197.32 246.234,197.497 245.632,197.851 L 245.658,197.851 C 245.021,198.223 244.587,198.896 244.357,199.87 L 241.09,199.87 C 241.409,197.851 242.188,196.382 243.427,195.461 C 244.595,194.523 246.038,194.054 247.756,194.054 L 263.824,194.054 C 265.612,194.054 267.135,194.55 268.392,195.541 C 269.72,196.586 270.384,197.852 270.384,199.339 C 270.384,200.631 270.331,201.809 270.225,202.871 C 270.189,203.402 270.013,203.89 269.694,204.332 C 269.552,204.527 269.389,204.73 269.203,204.943 C 269.017,205.156 268.791,205.386 268.526,205.633 C 269.039,206.111 269.429,206.554 269.694,206.961 C 269.995,207.457 270.172,207.935 270.225,208.395 C 270.332,209.44 270.385,210.626 270.385,211.954 z"
   id="path3843" />
	</g><g
     style="fill:url(#linearGradient3881);fill-opacity:1;fill-rule:nonzero;stroke-width:1;stroke-linecap:butt;stroke-linejoin:miter;marker:none;marker-start:none;marker-mid:none;marker-end:none;stroke-miterlimit:4;stroke-dasharray:none;stroke-dashoffset:0;stroke-opacity:1;visibility:visible;display:inline;overflow:visible;enable-background:accumulate"
     transform="translate(3.7826799,5.1611126)"
     id="g2628">
		<path
   d="M 236.283,164.577 L 255.738,164.577 L 225.77,215.077 C 224.059,217.892 222.389,220.058 220.761,221.576 C 219.133,223.094 217.629,224.198 216.249,224.887 C 214.869,225.578 213.683,225.978 212.689,226.088 C 211.696,226.199 211.004,226.254 210.619,226.254 L 192.737,226.254 L 192.737,182.626 L 209.46,182.626 L 209.543,212.594 L 236.283,164.577 z"
   id="path2630"
   style="fill:url(#linearGradient3879);fill-opacity:1;fill-rule:nonzero;stroke-width:1;stroke-linecap:butt;stroke-linejoin:miter;marker:none;marker-start:none;marker-mid:none;marker-end:none;stroke-miterlimit:4;stroke-dasharray:none;stroke-dashoffset:0;stroke-opacity:1;visibility:visible;display:inline;overflow:visible;enable-background:accumulate" />
	</g><rect
     style="fill:url(#linearGradient4400);fill-opacity:1"
     id="rect2634"
     height="14.173"
     width="116.818"
     y="231.41412"
     x="79.701683" /><g
     transform="translate(3.7826799,5.1611126)"
     id="g2662">
		<text
   xml:space="preserve"
   style="font-weight:bold;font-size:26.6857px;font-family:MicroMieps;-inkscape-font-specification:'MicroMieps Bold';text-align:end;text-anchor:end;display:inline;fill:#1a1a1a;fill-rule:evenodd;stroke-width:107.667;paint-order:markers fill stroke"
   x="191.43585"
   y="223.47145"
   id="text398"
   transform="matrix(1.0047539,0,0,0.99526855,-3.7826799,-5.1611126)"><tspan
     sodipodi:role="line"
     id="tspan396"
     x="191.43585"
     y="223.47145"
     style="stroke-width:107.667">GPL</tspan></text>
	</g><g
     transform="translate(3.7826799,5.1611126)"
     id="g2670">
		<text
   xml:space="preserve"
   style="font-weight:bold;font-size:26.5578px;font-family:MicroMieps;-inkscape-font-specification:'MicroMieps Bold';text-align:end;text-anchor:end;display:inline;fill:#1a1a1a;fill-rule:evenodd;stroke-width:107.15;paint-order:markers fill stroke"
   x="278.94638"
   y="222.40012"
   id="text293"
   transform="translate(-3.7826799,-5.1611126)"><tspan
     sodipodi:role="line"
     id="tspan291"
     x="278.94638"
     y="222.40012"
     style="stroke-width:107.15">3</tspan></text>
	</g><g
     style="fill:#000000"
     transform="translate(4.2466954,5.5091242)"
     id="g4164">
			<text
   xml:space="preserve"
   style="font-weight:bold;font-size:6.79094px;font-family:MicroMieps;-inkscape-font-specification:'MicroMieps Bold';text-align:end;text-anchor:end;fill:white;fill-rule:evenodd;stroke-width:27.3988;paint-order:markers fill stroke"
   x="268.08228"
   y="241.73413"
   id="text388"
   transform="matrix(1,0,-0.36397023,1,-4.2466954,-5.5091242)"><tspan
     sodipodi:role="line"
     id="tspan386"
     x="268.08228"
     y="241.73413"
     style="fill:black;stroke-width:27.3988">Free Software</tspan></text>
		</g><g
     transform="translate(3.7826799,5.1611126)"
     id="g2636">
			<text
   xml:space="preserve"
   style="font-weight:bold;font-size:6.79095px;font-family:MicroMieps;-inkscape-font-specification:'MicroMieps Bold';text-align:end;text-anchor:end;fill:white;fill-rule:evenodd;stroke-width:27.3987;paint-order:markers fill stroke"
   x="261.83044"
   y="236.22501"
   id="text399"
   transform="skewX(-20)"><tspan
     sodipodi:role="line"
     id="tspan397"
     x="261.83044"
     y="236.22501"
     style="stroke-width:27.3987;fill:white">Free Software</tspan></text>
		</g><g
     transform="translate(0,15.136131)"
     id="g3651"><path
       style="fill:url(#linearGradient3887);fill-opacity:1"
       d="M 240.71946,155.66132 L 218.34446,195.81757 C 224.31015,194.5829 230.60959,192.94653 236.81321,190.81757 L 257.68821,155.66132 L 240.71946,155.66132 z M 197.59446,173.72382 L 197.59446,198.91132 C 201.82035,198.4988 206.76846,197.88729 212.25071,196.94257 L 212.18821,173.72382 L 197.59446,173.72382 z"
       id="path3594" /><path
       style="opacity:0.65116278;fill:#ffffff;fill-opacity:1;fill-rule:nonzero;stroke-width:1;stroke-linecap:butt;stroke-linejoin:miter;marker:none;marker-start:none;marker-mid:none;marker-end:none;stroke-miterlimit:4;stroke-dasharray:none;stroke-dashoffset:0;stroke-opacity:1;visibility:visible;display:inline;overflow:visible;filter:url(#filter3797);enable-background:accumulate"
       d="M 228.37571,204.91132 C 223.8493,207.89087 217.4158,209.78632 210.28196,209.78632 C 205.60859,209.78632 201.26498,208.95653 197.53196,207.56757 L 197.53196,215.28632 L 214.40696,215.28632 C 214.65785,215.28634 215.35148,215.20982 216.34446,215.09882 C 217.16845,215.00765 218.25613,214.65954 219.56321,214.00507 C 219.57363,214.00493 219.58404,214.00491 219.59446,214.00507 C 220.84816,213.37915 222.2628,212.3236 223.84446,210.84882 C 225.30204,209.48976 226.84734,207.5048 228.43821,204.94257 C 228.41691,204.93608 228.39706,204.91777 228.37571,204.91132 z"
       id="path3685" /></g><g
     id="g4410"><path
       sodipodi:type="inkscape:offset"
       inkscape:radius="-0.941535"
       inkscape:original="M 76.9375 318.0625 L 76.9375 322.5 C 93.103607 326.0298 115.45019 328.1875 140.125 328.1875 C 160.26114 328.1875 178.83943 326.76607 193.78125 324.3125 L 193.78125 318.0625 L 76.9375 318.0625 z "
       style="opacity:0.34883722;fill:#ffffff;fill-opacity:1;filter:url(#filter3676)"
       id="path3644"
       d="M 77.875,319 L 77.875,321.71875 C 93.887997,325.13909 115.85526,327.25 140.125,327.25 C 159.88372,327.25 178.09556,325.86881 192.84375,323.5 L 192.84375,319 L 77.875,319 z"
       transform="matrix(-1,0,0,-0.4576597,273.46946,390.60337)" /><path
       sodipodi:type="inkscape:offset"
       inkscape:radius="-0.941535"
       inkscape:original="M 76.9375 318.0625 L 76.9375 322.5 C 93.103607 326.0298 115.45019 328.1875 140.125 328.1875 C 160.26114 328.1875 178.83943 326.76607 193.78125 324.3125 L 193.78125 318.0625 L 76.9375 318.0625 z "
       style="opacity:0.70542632;fill:url(#linearGradient3885);fill-opacity:1"
       id="path3640"
       d="M 77.875,319 L 77.875,321.71875 C 93.887997,325.13909 115.85526,327.25 140.125,327.25 C 159.88372,327.25 178.09556,325.86881 192.84375,323.5 L 192.84375,319 L 77.875,319 z"
       transform="translate(2.7507074,-86.640049)" /></g></g></svg>
