<?xml version="1.0" encoding="UTF-8" standalone="no"?>
<!-- Generator: Adobe Illustrator 14.0.0, SVG Export Plug-In . SVG Version: 6.00 Build 43363)  -->

<svg
   xmlns:dc="http://purl.org/dc/elements/1.1/"
   xmlns:cc="http://creativecommons.org/ns#"
   xmlns:rdf="http://www.w3.org/1999/02/22-rdf-syntax-ns#"
   xmlns:svg="http://www.w3.org/2000/svg"
   xmlns="http://www.w3.org/2000/svg"
   xmlns:xlink="http://www.w3.org/1999/xlink"
   xmlns:sodipodi="http://sodipodi.sourceforge.net/DTD/sodipodi-0.dtd"
   xmlns:inkscape="http://www.inkscape.org/namespaces/inkscape"
   version="1.1"
   id="Capa_1"
   x="0px"
   y="0px"
   width="841.89px"
   height="595.28px"
   viewBox="0 0 841.89 595.28"
   enable-background="new 0 0 841.89 595.28"
   xml:space="preserve"
   inkscape:version="0.48.2 r9819"
   sodipodi:docname="Licencias.svg"
   sodipodi:version="0.32"
   inkscape:output_extension="org.inkscape.output.svg.inkscape"><metadata
   id="metadata507"><rdf:RDF><cc:Work
       rdf:about=""><dc:format>image/svg+xml</dc:format><dc:type
         rdf:resource="http://purl.org/dc/dcmitype/StillImage" /><dc:title></dc:title><cc:license
         rdf:resource="http://creativecommons.org/licenses/by/3.0/" /></cc:Work><cc:License
       rdf:about="http://creativecommons.org/licenses/by/3.0/"><cc:permits
         rdf:resource="http://creativecommons.org/ns#Reproduction" /><cc:permits
         rdf:resource="http://creativecommons.org/ns#Distribution" /><cc:requires
         rdf:resource="http://creativecommons.org/ns#Notice" /><cc:requires
         rdf:resource="http://creativecommons.org/ns#Attribution" /><cc:permits
         rdf:resource="http://creativecommons.org/ns#DerivativeWorks" /></cc:License></rdf:RDF></metadata><defs
   id="defs505"><linearGradient
   id="linearGradient4471"><stop
     style="stop-color:#696a6b;stop-opacity:1;"
     offset="0"
     id="stop4473" /><stop
     style="stop-color:#9b9c9e;stop-opacity:1;"
     offset="1"
     id="stop4475" /></linearGradient><linearGradient
   id="linearGradient4455"><stop
     style="stop-color:#696a6b;stop-opacity:1;"
     offset="0"
     id="stop4457" /><stop
     style="stop-color:#9b9c9e;stop-opacity:1;"
     offset="1"
     id="stop4459" /></linearGradient><linearGradient
   id="linearGradient4260"><stop
     style="stop-color:#911d21;stop-opacity:1;"
     offset="0"
     id="stop4262" /><stop
     style="stop-color:#c4282d;stop-opacity:1;"
     offset="1"
     id="stop4264" /></linearGradient><linearGradient
   id="linearGradient4235"><stop
     style="stop-color:#592350;stop-opacity:1;"
     offset="0"
     id="stop4237" /><stop
     style="stop-color:#742e68;stop-opacity:1;"
     offset="1"
     id="stop4239" /></linearGradient><linearGradient
   id="linearGradient4197"><stop
     style="stop-color:#16813d;stop-opacity:1;"
     offset="0"
     id="stop4199" /><stop
     style="stop-color:#0d4f25;stop-opacity:1;"
     offset="1"
     id="stop4201" /></linearGradient><linearGradient
   id="linearGradient3598"><stop
     style="stop-color:#742e68;stop-opacity:1;"
     offset="0"
     id="stop3600" /><stop
     style="stop-color:#481c40;stop-opacity:1;"
     offset="1"
     id="stop3602" /></linearGradient><linearGradient
   inkscape:collect="always"
   id="linearGradient3584"><stop
     style="stop-color:#ffffff;stop-opacity:1;"
     offset="0"
     id="stop3586" /><stop
     style="stop-color:#ffffff;stop-opacity:0;"
     offset="1"
     id="stop3588" /></linearGradient><linearGradient
   inkscape:collect="always"
   id="linearGradient3542"><stop
     style="stop-color:#ffffff;stop-opacity:1;"
     offset="0"
     id="stop3544" /><stop
     style="stop-color:#ffffff;stop-opacity:0;"
     offset="1"
     id="stop3546" /></linearGradient><linearGradient
   id="linearGradient3536"><stop
     style="stop-color:#ffffff;stop-opacity:1"
     offset="0"
     id="stop3538" /><stop
     style="stop-color:#ffffff;stop-opacity:0"
     offset="1"
     id="stop3540" /></linearGradient><linearGradient
   id="linearGradient3530"><stop
     style="stop-color:#ffffff;stop-opacity:1"
     offset="0"
     id="stop3532" /><stop
     style="stop-color:#7f1a1d;stop-opacity:1;"
     offset="1"
     id="stop3534" /></linearGradient><linearGradient
   id="linearGradient3483"><stop
     id="stop3485"
     offset="0"
     style="stop-color:#c4282d;stop-opacity:1;" /><stop
     id="stop3487"
     offset="1"
     style="stop-color:#7f1a1d;stop-opacity:1;" /></linearGradient><linearGradient
   id="linearGradient3467"><stop
     style="stop-color:#000000;stop-opacity:1;"
     offset="0"
     id="stop3469" /><stop
     style="stop-color:#000000;stop-opacity:0;"
     offset="1"
     id="stop3471" /></linearGradient>
	
	
	
	
<linearGradient
   inkscape:collect="always"
   xlink:href="#linearGradient3483"
   id="linearGradient3481"
   x1="193.67853"
   y1="227.42769"
   x2="192.737"
   y2="164.42589"
   gradientUnits="userSpaceOnUse" /><linearGradient
   inkscape:collect="always"
   xlink:href="#linearGradient3542"
   id="linearGradient3548"
   x1="223.70312"
   y1="167.78789"
   x2="223.70312"
   y2="224.78125"
   gradientUnits="userSpaceOnUse" />
		
		
	<linearGradient
   inkscape:collect="always"
   xlink:href="#linearGradient3584"
   id="linearGradient3590"
   x1="234.03793"
   y1="165.15395"
   x2="234.35178"
   y2="210.66147"
   gradientUnits="userSpaceOnUse" />
		
	<linearGradient
   inkscape:collect="always"
   xlink:href="#linearGradient3483"
   id="linearGradient3947"
   gradientUnits="userSpaceOnUse"
   x1="193.67853"
   y1="227.42769"
   x2="192.737"
   y2="164.42589" />
	
	
	
	

		
	
		
		
		
	
		
		
		
		
		
		
		
		
		
		
		
		
	
		
	
	
	
	
	

		
	
		
		
	
		
	
		
		
		
		
	<linearGradient
   inkscape:collect="always"
   xlink:href="#linearGradient3598"
   id="linearGradient3620"
   x1="473.95499"
   y1="225.58197"
   x2="473.95499"
   y2="164.577"
   gradientUnits="userSpaceOnUse" /><linearGradient
   inkscape:collect="always"
   xlink:href="#linearGradient3483"
   id="linearGradient3883"
   gradientUnits="userSpaceOnUse"
   gradientTransform="translate(2.7507074,-101.77618)"
   x1="138.40564"
   y1="330.10239"
   x2="138.40564"
   y2="319.71936" /><linearGradient
   inkscape:collect="always"
   xlink:href="#linearGradient3598"
   id="linearGradient3891"
   gradientUnits="userSpaceOnUse"
   x1="473.95499"
   y1="225.58197"
   x2="473.95499"
   y2="164.577" /><linearGradient
   inkscape:collect="always"
   xlink:href="#linearGradient3598"
   id="linearGradient4005"
   gradientUnits="userSpaceOnUse"
   x1="473.95499"
   y1="225.58197"
   x2="473.95499"
   y2="164.577" /><linearGradient
   inkscape:collect="always"
   xlink:href="#linearGradient3598"
   id="linearGradient2938"
   gradientUnits="userSpaceOnUse"
   gradientTransform="translate(16.564834,16.038773)"
   x1="365.68323"
   y1="228.72025"
   x2="365.68323"
   y2="216.25424" />
	
	
	
	
	
	
	
	
	
	
	
	
	
	
	
	
	
	
	
<linearGradient
   inkscape:collect="always"
   xlink:href="#linearGradient4471"
   id="linearGradient4477"
   x1="664.09625"
   y1="501.10046"
   x2="664.09625"
   y2="510.29501"
   gradientUnits="userSpaceOnUse" /><linearGradient
   inkscape:collect="always"
   xlink:href="#linearGradient4471"
   id="linearGradient4513"
   gradientUnits="userSpaceOnUse"
   x1="664.09625"
   y1="501.10046"
   x2="664.09625"
   y2="510.29501" />
		
		
	</defs><sodipodi:namedview
   pagecolor="#ffffff"
   bordercolor="#666666"
   borderopacity="1"
   objecttolerance="10"
   gridtolerance="10"
   guidetolerance="10"
   inkscape:pageopacity="0"
   inkscape:pageshadow="2"
   inkscape:window-width="1280"
   inkscape:window-height="746"
   id="namedview503"
   showgrid="false"
   inkscape:zoom="0.90545621"
   inkscape:cx="420.94501"
   inkscape:cy="443.33958"
   inkscape:window-x="0"
   inkscape:window-y="0"
   inkscape:window-maximized="1"
   inkscape:current-layer="Capa_1"
   showguides="true"
   inkscape:guide-bbox="true" />

















<g
   id="g4285"><g
     id="g11">
	<path
   id="path13"
   d="M63.376,384.457v-8.59h1.711l2.033,6.082c0.188,0.566,0.324,0.99,0.41,1.271c0.098-0.313,0.25-0.771,0.457-1.377   l2.057-5.977h1.529v8.59h-1.096v-7.189l-2.496,7.189h-1.025l-2.484-7.313v7.313H63.376z" />
	<path
   id="path15"
   d="M77.333,383.689c-0.391,0.332-0.767,0.566-1.128,0.703s-0.749,0.205-1.163,0.205c-0.684,0-1.209-0.167-1.576-0.501   s-0.551-0.761-0.551-1.28c0-0.305,0.069-0.583,0.208-0.835s0.32-0.454,0.545-0.606s0.478-0.268,0.759-0.346   c0.207-0.055,0.52-0.107,0.938-0.158c0.852-0.102,1.479-0.223,1.881-0.363c0.004-0.145,0.006-0.236,0.006-0.275   c0-0.43-0.1-0.732-0.299-0.908c-0.27-0.238-0.67-0.357-1.201-0.357c-0.496,0-0.862,0.087-1.099,0.261s-0.411,0.481-0.524,0.923   l-1.031-0.141c0.094-0.441,0.248-0.798,0.463-1.069s0.525-0.48,0.932-0.627s0.877-0.22,1.412-0.22c0.531,0,0.963,0.063,1.295,0.188   s0.576,0.282,0.732,0.472s0.266,0.429,0.328,0.718c0.035,0.18,0.053,0.504,0.053,0.973v1.406c0,0.98,0.022,1.601,0.067,1.86   s0.134,0.509,0.267,0.747h-1.102C77.435,384.238,77.365,383.982,77.333,383.689z M77.246,381.334   c-0.383,0.156-0.957,0.289-1.723,0.398c-0.434,0.063-0.74,0.133-0.92,0.211s-0.318,0.192-0.416,0.343s-0.146,0.317-0.146,0.501   c0,0.281,0.106,0.516,0.319,0.703s0.524,0.281,0.935,0.281c0.406,0,0.768-0.089,1.084-0.267s0.549-0.421,0.697-0.729   c0.113-0.238,0.17-0.59,0.17-1.055V381.334z" />
	<path
   id="path17"
   d="M79.525,382.6l1.043-0.164c0.059,0.418,0.222,0.738,0.489,0.961s0.642,0.334,1.122,0.334c0.484,0,0.844-0.099,1.078-0.296   s0.352-0.429,0.352-0.694c0-0.238-0.104-0.426-0.311-0.563c-0.145-0.094-0.504-0.213-1.078-0.357   c-0.773-0.195-1.31-0.364-1.608-0.507s-0.525-0.34-0.68-0.592s-0.231-0.53-0.231-0.835c0-0.277,0.063-0.534,0.19-0.771   s0.3-0.433,0.519-0.589c0.164-0.121,0.388-0.224,0.671-0.308s0.587-0.126,0.911-0.126c0.488,0,0.917,0.07,1.286,0.211   s0.642,0.331,0.817,0.571s0.297,0.562,0.363,0.964l-1.031,0.141c-0.047-0.32-0.183-0.57-0.407-0.75s-0.542-0.27-0.952-0.27   c-0.484,0-0.83,0.08-1.037,0.24s-0.311,0.348-0.311,0.563c0,0.137,0.043,0.26,0.129,0.369c0.086,0.113,0.221,0.207,0.404,0.281   c0.105,0.039,0.416,0.129,0.932,0.27c0.746,0.199,1.267,0.362,1.562,0.489s0.526,0.312,0.694,0.554s0.252,0.543,0.252,0.902   c0,0.352-0.103,0.683-0.308,0.993s-0.501,0.551-0.888,0.721s-0.824,0.255-1.313,0.255c-0.809,0-1.425-0.168-1.849-0.504   S79.642,383.26,79.525,382.6z" />
	<path
   id="path19"
   d="M89.914,386.842v-3.047c-0.164,0.23-0.394,0.422-0.688,0.574s-0.608,0.229-0.94,0.229c-0.738,0-1.374-0.295-1.907-0.885   s-0.8-1.398-0.8-2.426c0-0.625,0.108-1.186,0.325-1.682s0.531-0.872,0.943-1.128s0.864-0.384,1.356-0.384   c0.77,0,1.375,0.324,1.816,0.973v-0.832h0.949v8.607H89.914z M86.662,381.328c0,0.801,0.168,1.401,0.504,1.802   s0.738,0.601,1.207,0.601c0.449,0,0.836-0.19,1.16-0.571s0.486-0.96,0.486-1.737c0-0.828-0.171-1.451-0.513-1.869   s-0.743-0.627-1.204-0.627c-0.457,0-0.845,0.194-1.163,0.583S86.662,380.504,86.662,381.328z" />
	<path
   id="path21"
   d="M96.699,384.457v-0.914c-0.484,0.703-1.143,1.055-1.975,1.055c-0.367,0-0.71-0.07-1.028-0.211s-0.555-0.317-0.709-0.53   s-0.263-0.474-0.325-0.782c-0.043-0.207-0.064-0.535-0.064-0.984v-3.855h1.055v3.451c0,0.551,0.021,0.922,0.064,1.113   c0.066,0.277,0.207,0.495,0.422,0.653s0.48,0.237,0.797,0.237s0.613-0.081,0.891-0.243s0.474-0.383,0.589-0.662   s0.173-0.685,0.173-1.216v-3.334h1.055v6.223H96.699z" />
	<path
   id="path23"
   d="M103.554,382.453l1.09,0.135c-0.172,0.637-0.49,1.131-0.955,1.482s-1.059,0.527-1.781,0.527   c-0.91,0-1.632-0.28-2.165-0.841s-0.8-1.347-0.8-2.358c0-1.047,0.27-1.859,0.809-2.438s1.238-0.867,2.098-0.867   c0.832,0,1.512,0.283,2.039,0.85s0.791,1.363,0.791,2.391c0,0.063-0.002,0.156-0.006,0.281h-4.641   c0.039,0.684,0.232,1.207,0.58,1.57s0.781,0.545,1.301,0.545c0.387,0,0.717-0.102,0.99-0.305S103.394,382.898,103.554,382.453z    M100.091,380.748h3.475c-0.047-0.523-0.18-0.916-0.398-1.178c-0.336-0.406-0.771-0.609-1.307-0.609   c-0.484,0-0.892,0.162-1.222,0.486S100.126,380.205,100.091,380.748z" />
</g><g
     id="g33">
	<path
   id="path35"
   d="M65.597,359.068v-7.576h-2.83v-1.014h6.809v1.014h-2.842v7.576H65.597z"
   fill="#9B9C9E" />
	<path
   id="path37"
   d="M70.167,351.691v-1.213h1.055v1.213H70.167z M70.167,359.068v-6.223h1.055v6.223H70.167z"
   fill="#9B9C9E" />
	<path
   id="path39"
   d="M72.828,361.453v-8.607h0.961v0.809c0.227-0.316,0.482-0.554,0.768-0.712s0.631-0.237,1.037-0.237   c0.531,0,1,0.137,1.406,0.41s0.713,0.659,0.92,1.157s0.311,1.044,0.311,1.638c0,0.637-0.114,1.21-0.343,1.72   s-0.561,0.9-0.996,1.172s-0.894,0.407-1.374,0.407c-0.352,0-0.667-0.074-0.946-0.223s-0.509-0.336-0.688-0.563v3.029H72.828z    M73.783,355.992c0,0.801,0.162,1.393,0.486,1.775s0.717,0.574,1.178,0.574c0.469,0,0.87-0.198,1.204-0.595   s0.501-1.011,0.501-1.843c0-0.793-0.163-1.387-0.489-1.781s-0.716-0.592-1.169-0.592c-0.449,0-0.847,0.21-1.192,0.63   S73.783,355.191,73.783,355.992z"
   fill="#9B9C9E" />
	<path
   id="path41"
   d="M79.109,355.957c0-1.152,0.32-2.006,0.961-2.561c0.535-0.461,1.188-0.691,1.957-0.691   c0.855,0,1.555,0.28,2.098,0.841s0.814,1.335,0.814,2.323c0,0.801-0.12,1.431-0.36,1.89s-0.59,0.815-1.049,1.069   s-0.96,0.381-1.503,0.381c-0.871,0-1.575-0.279-2.112-0.838S79.109,357.008,79.109,355.957z M80.193,355.957   c0,0.797,0.174,1.394,0.521,1.79s0.785,0.595,1.313,0.595c0.523,0,0.959-0.199,1.307-0.598s0.521-1.006,0.521-1.822   c0-0.77-0.175-1.353-0.524-1.749s-0.784-0.595-1.304-0.595c-0.527,0-0.965,0.197-1.313,0.592S80.193,355.16,80.193,355.957z"
   fill="#9B9C9E" />
	<path
   id="path43"
   d="M85.982,359.584l1.025,0.152c0.043,0.316,0.162,0.547,0.357,0.691c0.262,0.195,0.619,0.293,1.072,0.293   c0.488,0,0.865-0.098,1.131-0.293s0.445-0.469,0.539-0.82c0.055-0.215,0.08-0.666,0.076-1.354   c-0.461,0.543-1.035,0.814-1.723,0.814c-0.855,0-1.518-0.309-1.986-0.926s-0.703-1.357-0.703-2.221   c0-0.594,0.107-1.142,0.322-1.644s0.526-0.89,0.935-1.163s0.888-0.41,1.438-0.41c0.734,0,1.34,0.297,1.816,0.891v-0.75h0.973v5.379   c0,0.969-0.099,1.655-0.296,2.06s-0.51,0.724-0.938,0.958s-0.954,0.352-1.579,0.352c-0.742,0-1.342-0.167-1.799-0.501   S85.966,360.256,85.982,359.584z M86.855,355.846c0,0.816,0.162,1.412,0.486,1.787s0.73,0.563,1.219,0.563   c0.484,0,0.891-0.187,1.219-0.56s0.492-0.958,0.492-1.755c0-0.762-0.169-1.336-0.507-1.723s-0.745-0.58-1.222-0.58   c-0.469,0-0.867,0.19-1.195,0.571S86.855,355.096,86.855,355.846z"
   fill="#9B9C9E" />
	<path
   id="path45"
   d="M92.837,359.068v-6.223h0.949v0.943c0.242-0.441,0.466-0.732,0.671-0.873s0.431-0.211,0.677-0.211   c0.355,0,0.717,0.113,1.084,0.34l-0.363,0.979c-0.258-0.152-0.516-0.229-0.773-0.229c-0.23,0-0.438,0.069-0.621,0.208   s-0.314,0.331-0.393,0.577c-0.117,0.375-0.176,0.785-0.176,1.23v3.258H92.837z"
   fill="#9B9C9E" />
	<path
   id="path47"
   d="M100.906,358.301c-0.391,0.332-0.767,0.566-1.128,0.703s-0.749,0.205-1.163,0.205   c-0.684,0-1.209-0.167-1.576-0.501s-0.551-0.761-0.551-1.28c0-0.305,0.069-0.583,0.208-0.835s0.32-0.454,0.545-0.606   s0.478-0.268,0.759-0.346c0.207-0.055,0.52-0.107,0.938-0.158c0.852-0.102,1.479-0.223,1.881-0.363   c0.004-0.145,0.006-0.236,0.006-0.275c0-0.43-0.1-0.732-0.299-0.908c-0.27-0.238-0.67-0.357-1.201-0.357   c-0.496,0-0.862,0.087-1.099,0.261s-0.411,0.481-0.524,0.923l-1.031-0.141c0.094-0.441,0.248-0.798,0.463-1.069   s0.525-0.48,0.932-0.627s0.877-0.22,1.412-0.22c0.531,0,0.963,0.063,1.295,0.188s0.576,0.282,0.732,0.472s0.266,0.429,0.328,0.718   c0.035,0.18,0.053,0.504,0.053,0.973v1.406c0,0.98,0.022,1.601,0.067,1.86s0.134,0.509,0.267,0.747h-1.102   C101.007,358.85,100.937,358.594,100.906,358.301z M100.818,355.945c-0.383,0.156-0.957,0.289-1.723,0.398   c-0.434,0.063-0.74,0.133-0.92,0.211s-0.318,0.192-0.416,0.343s-0.146,0.317-0.146,0.501c0,0.281,0.106,0.516,0.319,0.703   s0.524,0.281,0.935,0.281c0.406,0,0.768-0.089,1.084-0.267s0.549-0.421,0.697-0.729c0.113-0.238,0.17-0.59,0.17-1.055V355.945z"
   fill="#9B9C9E" />
	<path
   id="path49"
   d="M103.519,361.453v-8.607h0.961v0.809c0.227-0.316,0.482-0.554,0.768-0.712s0.631-0.237,1.037-0.237   c0.531,0,1,0.137,1.406,0.41s0.713,0.659,0.92,1.157s0.311,1.044,0.311,1.638c0,0.637-0.114,1.21-0.343,1.72   s-0.561,0.9-0.996,1.172s-0.894,0.407-1.374,0.407c-0.352,0-0.667-0.074-0.946-0.223s-0.509-0.336-0.688-0.563v3.029H103.519z    M104.474,355.992c0,0.801,0.162,1.393,0.486,1.775s0.717,0.574,1.178,0.574c0.469,0,0.87-0.198,1.204-0.595   s0.501-1.011,0.501-1.843c0-0.793-0.163-1.387-0.489-1.781s-0.716-0.592-1.169-0.592c-0.449,0-0.847,0.21-1.192,0.63   S104.474,355.191,104.474,355.992z"
   fill="#9B9C9E" />
	<path
   id="path51"
   d="M110.193,359.068v-8.59h1.055v3.082c0.492-0.57,1.113-0.855,1.863-0.855c0.461,0,0.861,0.091,1.201,0.272   s0.583,0.433,0.729,0.753s0.22,0.785,0.22,1.395v3.943h-1.055v-3.943c0-0.527-0.114-0.911-0.343-1.151s-0.552-0.36-0.97-0.36   c-0.313,0-0.606,0.081-0.882,0.243s-0.472,0.382-0.589,0.659s-0.176,0.66-0.176,1.148v3.404H110.193z"
   fill="#9B9C9E" />
	<path
   id="path53"
   d="M116.82,361.465l-0.117-0.99c0.23,0.063,0.432,0.094,0.604,0.094c0.234,0,0.422-0.039,0.563-0.117   s0.256-0.188,0.346-0.328c0.066-0.105,0.174-0.367,0.322-0.785c0.02-0.059,0.051-0.145,0.094-0.258l-2.361-6.234h1.137l1.295,3.604   c0.168,0.457,0.318,0.938,0.451,1.441c0.121-0.484,0.266-0.957,0.434-1.418l1.33-3.627h1.055l-2.367,6.328   c-0.254,0.684-0.451,1.154-0.592,1.412c-0.188,0.348-0.402,0.603-0.645,0.765s-0.531,0.243-0.867,0.243   C117.296,361.594,117.07,361.551,116.82,361.465z"
   fill="#9B9C9E" />
</g><g
     id="g57">
	<path
   id="path59"
   d="M63.376,400.244v-8.59h1.711l2.033,6.082c0.188,0.566,0.324,0.99,0.41,1.271c0.098-0.313,0.25-0.771,0.457-1.377   l2.057-5.977h1.529v8.59h-1.096v-7.189l-2.496,7.189h-1.025l-2.484-7.313v7.313H63.376z" />
	<path
   id="path61"
   d="M73.279,392.867v-1.213h1.055v1.213H73.279z M73.279,400.244v-6.223h1.055v6.223H73.279z" />
	<path
   id="path63"
   d="M80,397.965l1.037,0.135c-0.113,0.715-0.403,1.275-0.87,1.68s-1.04,0.605-1.72,0.605c-0.852,0-1.536-0.277-2.054-0.834   s-0.776-1.355-0.776-2.395c0-0.672,0.111-1.26,0.334-1.764s0.562-0.881,1.017-1.133s0.95-0.379,1.485-0.379   c0.676,0,1.229,0.172,1.658,0.514s0.705,0.826,0.826,1.455l-1.025,0.158c-0.098-0.418-0.271-0.732-0.519-0.943   s-0.548-0.316-0.899-0.316c-0.531,0-0.963,0.191-1.295,0.572s-0.498,0.982-0.498,1.807c0,0.836,0.16,1.443,0.48,1.822   s0.738,0.568,1.254,0.568c0.414,0,0.76-0.127,1.037-0.381S79.925,398.492,80,397.965z" />
	<path
   id="path65"
   d="M81.927,400.244v-6.223h0.949v0.943c0.242-0.441,0.466-0.732,0.671-0.873s0.431-0.211,0.677-0.211   c0.355,0,0.717,0.113,1.084,0.34l-0.363,0.979c-0.258-0.152-0.516-0.229-0.773-0.229c-0.23,0-0.438,0.07-0.621,0.209   s-0.314,0.33-0.393,0.576c-0.117,0.375-0.176,0.785-0.176,1.23v3.258H81.927z" />
	<path
   id="path67"
   d="M85.542,397.133c0-1.152,0.32-2.006,0.961-2.561c0.535-0.461,1.188-0.691,1.957-0.691c0.855,0,1.555,0.281,2.098,0.842   s0.814,1.334,0.814,2.322c0,0.801-0.12,1.432-0.36,1.891s-0.59,0.814-1.049,1.068s-0.96,0.381-1.503,0.381   c-0.871,0-1.575-0.279-2.112-0.838S85.542,398.184,85.542,397.133z M86.626,397.133c0,0.797,0.174,1.395,0.521,1.791   s0.785,0.594,1.313,0.594c0.523,0,0.959-0.199,1.307-0.598s0.521-1.006,0.521-1.822c0-0.77-0.175-1.352-0.524-1.748   s-0.784-0.596-1.304-0.596c-0.527,0-0.965,0.197-1.313,0.592S86.626,396.336,86.626,397.133z" />
	<path
   id="path69"
   d="M92.708,400.244v-8.59h1.711l2.033,6.082c0.188,0.566,0.324,0.99,0.41,1.271c0.098-0.313,0.25-0.771,0.457-1.377   l2.057-5.977h1.529v8.59H99.81v-7.189l-2.496,7.189h-1.025l-2.484-7.313v7.313H92.708z" />
	<path
   id="path71"
   d="M102.611,392.867v-1.213h1.055v1.213H102.611z M102.611,400.244v-6.223h1.055v6.223H102.611z" />
	<path
   id="path73"
   d="M109.531,398.24l1.09,0.135c-0.172,0.637-0.49,1.131-0.955,1.482s-1.059,0.527-1.781,0.527c-0.91,0-1.632-0.279-2.165-0.84   s-0.8-1.348-0.8-2.359c0-1.047,0.27-1.859,0.809-2.438s1.238-0.867,2.098-0.867c0.832,0,1.512,0.283,2.039,0.85   s0.791,1.363,0.791,2.391c0,0.063-0.002,0.156-0.006,0.281h-4.641c0.039,0.684,0.232,1.207,0.58,1.57s0.781,0.545,1.301,0.545   c0.387,0,0.717-0.102,0.99-0.305S109.371,398.686,109.531,398.24z M106.068,396.535h3.475c-0.047-0.523-0.18-0.916-0.398-1.178   c-0.336-0.406-0.771-0.609-1.307-0.609c-0.484,0-0.892,0.162-1.222,0.486S106.103,395.992,106.068,396.535z" />
	<path
   id="path75"
   d="M111.945,402.629v-8.607h0.961v0.809c0.227-0.316,0.482-0.553,0.768-0.711s0.631-0.238,1.037-0.238   c0.531,0,1,0.137,1.406,0.41s0.713,0.66,0.92,1.158s0.311,1.043,0.311,1.637c0,0.637-0.114,1.211-0.343,1.721   s-0.561,0.9-0.996,1.172s-0.894,0.406-1.374,0.406c-0.352,0-0.667-0.074-0.946-0.223s-0.509-0.336-0.688-0.563v3.029H111.945z    M112.9,397.168c0,0.801,0.162,1.393,0.486,1.775s0.717,0.574,1.178,0.574c0.469,0,0.87-0.197,1.204-0.594s0.501-1.012,0.501-1.844   c0-0.793-0.163-1.387-0.489-1.781s-0.716-0.592-1.169-0.592c-0.449,0-0.847,0.211-1.192,0.631S112.9,396.367,112.9,397.168z" />
	<path
   id="path77"
   d="M118.197,398.387l1.043-0.164c0.059,0.418,0.222,0.738,0.489,0.961s0.642,0.334,1.122,0.334   c0.484,0,0.844-0.098,1.078-0.295s0.352-0.43,0.352-0.695c0-0.238-0.104-0.426-0.311-0.563c-0.145-0.094-0.504-0.213-1.078-0.357   c-0.773-0.195-1.31-0.363-1.608-0.506s-0.525-0.34-0.68-0.592s-0.231-0.531-0.231-0.836c0-0.277,0.063-0.533,0.19-0.77   s0.3-0.434,0.519-0.59c0.164-0.121,0.388-0.223,0.671-0.307s0.587-0.127,0.911-0.127c0.488,0,0.917,0.07,1.286,0.211   s0.642,0.332,0.817,0.572s0.297,0.561,0.363,0.963l-1.031,0.141c-0.047-0.32-0.183-0.57-0.407-0.75s-0.542-0.27-0.952-0.27   c-0.484,0-0.83,0.08-1.037,0.24s-0.311,0.348-0.311,0.563c0,0.137,0.043,0.26,0.129,0.369c0.086,0.113,0.221,0.207,0.404,0.281   c0.105,0.039,0.416,0.129,0.932,0.27c0.746,0.199,1.267,0.363,1.562,0.49s0.526,0.311,0.694,0.553s0.252,0.543,0.252,0.902   c0,0.352-0.103,0.684-0.308,0.994s-0.501,0.551-0.888,0.721s-0.824,0.254-1.313,0.254c-0.809,0-1.425-0.168-1.849-0.504   S118.314,399.047,118.197,398.387z" />
	<path
   id="path79"
   d="M128.041,400.244v-8.59h3.223c0.656,0,1.183,0.088,1.579,0.262s0.707,0.441,0.932,0.803s0.337,0.738,0.337,1.133   c0,0.367-0.1,0.713-0.299,1.037s-0.5,0.586-0.902,0.785c0.52,0.152,0.919,0.412,1.198,0.779s0.419,0.801,0.419,1.301   c0,0.402-0.085,0.777-0.255,1.123s-0.38,0.611-0.63,0.799s-0.563,0.33-0.94,0.426s-0.839,0.143-1.386,0.143H128.041z    M129.177,395.264h1.857c0.504,0,0.865-0.033,1.084-0.1c0.289-0.086,0.507-0.229,0.653-0.428s0.22-0.449,0.22-0.75   c0-0.285-0.068-0.535-0.205-0.752s-0.332-0.365-0.586-0.445s-0.689-0.121-1.307-0.121h-1.717V395.264z M129.177,399.23h2.139   c0.367,0,0.625-0.014,0.773-0.041c0.262-0.047,0.48-0.125,0.656-0.234s0.32-0.268,0.434-0.477s0.17-0.451,0.17-0.725   c0-0.32-0.082-0.598-0.246-0.834s-0.392-0.402-0.683-0.498s-0.71-0.145-1.257-0.145h-1.986V399.23z" />
	<path
   id="path81"
   d="M135.564,397.133c0-1.152,0.32-2.006,0.961-2.561c0.535-0.461,1.188-0.691,1.957-0.691c0.855,0,1.555,0.281,2.098,0.842   s0.814,1.334,0.814,2.322c0,0.801-0.12,1.432-0.36,1.891s-0.59,0.814-1.049,1.068s-0.96,0.381-1.503,0.381   c-0.871,0-1.575-0.279-2.112-0.838S135.564,398.184,135.564,397.133z M136.648,397.133c0,0.797,0.174,1.395,0.521,1.791   s0.785,0.594,1.313,0.594c0.523,0,0.959-0.199,1.307-0.598s0.521-1.006,0.521-1.822c0-0.77-0.175-1.352-0.524-1.748   s-0.784-0.596-1.304-0.596c-0.527,0-0.965,0.197-1.313,0.592S136.648,396.336,136.648,397.133z" />
	<path
   id="path83"
   d="M142.607,400.244v-8.59h1.055v8.59H142.607z" />
	<path
   id="path85"
   d="M149.333,400.244v-0.785c-0.395,0.617-0.975,0.926-1.74,0.926c-0.496,0-0.952-0.137-1.368-0.41s-0.738-0.654-0.967-1.145   s-0.343-1.055-0.343-1.691c0-0.621,0.104-1.184,0.311-1.689s0.518-0.895,0.932-1.164s0.877-0.404,1.389-0.404   c0.375,0,0.709,0.08,1.002,0.238s0.531,0.363,0.715,0.617v-3.082h1.049v8.59H149.333z M146,397.139   c0,0.797,0.168,1.393,0.504,1.787s0.732,0.592,1.189,0.592c0.461,0,0.853-0.188,1.175-0.564s0.483-0.953,0.483-1.727   c0-0.852-0.164-1.477-0.492-1.875s-0.732-0.598-1.213-0.598c-0.469,0-0.86,0.191-1.175,0.574S146,396.314,146,397.139z" />
</g><g
     id="g135">
	<g
   id="g137">
		<text
   xml:space="preserve"
   style="font-weight:bold;font-size:82.7866px;font-family:MicroMieps;-inkscape-font-specification:'MicroMieps Bold';text-align:end;text-anchor:end;display:inline;fill:#c4282d;fill-opacity:1;fill-rule:evenodd;stroke-width:334.011;paint-order:markers fill stroke"
   x="351.56973"
   y="466.70679"
   id="text394"><tspan
     sodipodi:role="line"
     id="tspan392"
     x="351.56973"
     y="466.70679"
     style="font-style:normal;font-variant:normal;font-weight:bold;font-stretch:normal;font-family:Masque;-inkscape-font-specification:'Masque Bold';fill:#c4282d;fill-opacity:1;stroke-width:334.011">V</tspan></text>
	</g>
	<g
   id="g141">
		<rect
   id="rect143"
   height="14.173"
   width="116.818"
   fill="#C4282D"
   y="466.624"
   x="181.106" />
		<g
   id="g145">
			<text
   xml:space="preserve"
   style="font-size:6.79666px;font-family:Masque;-inkscape-font-specification:Masque;text-align:end;text-anchor:end;fill:black;fill-rule:evenodd;stroke-width:27.4218;paint-order:markers fill stroke"
   x="454.57483"
   y="476.59564"
   id="text406"
   transform="skewX(-20)"><tspan
     sodipodi:role="line"
     id="tspan404"
     x="454.57483"
     y="476.59564"
     style="font-style:normal;font-variant:normal;font-weight:bold;font-stretch:normal;font-family:MicroMieps;-inkscape-font-specification:'MicroMieps Bold';fill:black;stroke-width:27.4218">Free Software</tspan></text>
		</g>
	</g>
	<g
   id="g171">
		<text
   xml:space="preserve"
   style="font-weight:bold;font-size:26.687px;font-family:MicroMieps;-inkscape-font-specification:'MicroMieps Bold';text-align:end;text-anchor:end;display:inline;fill:white;fill-rule:evenodd;stroke-width:107.672;paint-order:markers fill stroke"
   x="292.37964"
   y="459.76181"
   id="text404"
   transform="scale(1.0046715,0.99535018)"><tspan
     sodipodi:role="line"
     id="tspan402"
     x="292.37964"
     y="459.76181"
     style="fill:black;stroke-width:107.672">GPL</tspan></text>
	</g>
	<g
   id="g179">
		<text
   xml:space="preserve"
   style="font-weight:bold;font-size:26.5833px;font-family:MicroMieps;-inkscape-font-specification:'MicroMieps Bold';text-align:end;text-anchor:end;display:inline;fill:black;fill-rule:evenodd;stroke-width:107.253;paint-order:markers fill stroke"
   x="380.38336"
   y="457.62161"
   id="text759"><tspan
     sodipodi:role="line"
     id="tspan757"
     x="380.38336"
     y="457.62161"
     style="stroke-width:107.253">3</tspan></text>
	</g>
</g><line
     id="line487"
     y2="366.661"
     x2="165.583"
     y1="366.661"
     x1="38.642"
     stroke="#9B9C9E"
     fill="none" /><polyline
     id="polyline489"
     points="102.361,407.477 102.361,474.183   191.967,474.183 "
     stroke-dasharray="5"
     stroke-width="0.5"
     stroke="#000000"
     fill="none" /><line
     id="line491"
     y2="444.813"
     x2="180.518"
     y1="444.813"
     x1="102.361"
     stroke-dasharray="5"
     stroke-width="0.5"
     stroke="#000000"
     fill="none" /><polyline
     id="polyline493"
     points="116.3,381.59 324.384,381.59   324.384,416.437 "
     stroke-dasharray="5"
     stroke-width="0.5"
     stroke="#000000"
     fill="none" /><polyline
     id="polyline495"
     points="360.725,463.729 360.725,494.096   101.864,494.096 101.864,476.672 "
     stroke-dasharray="5"
     stroke-width="0.5"
     stroke="#000000"
     fill="none" /><g
     transform="translate(84.731305,-5.1094254)"
     id="g4277"><g
       id="g25">
	<path
   style="fill:#9b9c9e"
   d="M 64.302,476.011 L 64.302,477.025 L 58.624,477.025 C 58.616,476.771 58.657,476.527 58.747,476.293 C 58.892,475.906 59.123,475.525 59.441,475.15 C 59.759,474.775 60.219,474.341 60.821,473.849 C 61.755,473.083 62.385,472.477 62.714,472.03 C 63.043,471.583 63.206,471.16 63.206,470.761 C 63.206,470.343 63.057,469.99 62.758,469.703 C 62.459,469.416 62.07,469.272 61.589,469.272 C 61.081,469.272 60.675,469.424 60.37,469.729 C 60.065,470.034 59.911,470.456 59.907,470.995 L 58.823,470.884 C 58.897,470.075 59.177,469.459 59.661,469.035 C 60.145,468.611 60.796,468.399 61.612,468.399 C 62.436,468.399 63.089,468.628 63.569,469.085 C 64.049,469.542 64.29,470.108 64.29,470.784 C 64.29,471.128 64.22,471.466 64.079,471.798 C 63.938,472.13 63.705,472.48 63.379,472.847 C 63.053,473.214 62.511,473.718 61.753,474.359 C 61.12,474.89 60.714,475.251 60.534,475.44 C 60.354,475.629 60.206,475.82 60.089,476.011 L 64.302,476.011 L 64.302,476.011 z"
   id="path27" />
	<path
   style="fill:#9b9c9e"
   d="M 65.433,472.788 C 65.433,471.772 65.537,470.955 65.746,470.336 C 65.955,469.717 66.266,469.239 66.678,468.903 C 67.09,468.567 67.609,468.399 68.234,468.399 C 68.695,468.399 69.099,468.492 69.447,468.677 C 69.795,468.862 70.082,469.13 70.308,469.48 C 70.534,469.83 70.712,470.255 70.841,470.757 C 70.97,471.259 71.034,471.936 71.034,472.787 C 71.034,473.795 70.93,474.608 70.723,475.227 C 70.516,475.846 70.206,476.325 69.794,476.663 C 69.382,477.001 68.861,477.17 68.232,477.17 C 67.404,477.17 66.753,476.873 66.281,476.279 C 65.716,475.565 65.433,474.401 65.433,472.788 z M 66.517,472.788 C 66.517,474.198 66.682,475.137 67.012,475.603 C 67.342,476.069 67.749,476.303 68.234,476.303 C 68.719,476.303 69.126,476.069 69.456,475.6 C 69.786,475.131 69.951,474.194 69.951,472.787 C 69.951,471.373 69.786,470.433 69.456,469.969 C 69.126,469.505 68.715,469.272 68.223,469.272 C 67.739,469.272 67.352,469.477 67.063,469.887 C 66.699,470.411 66.517,471.378 66.517,472.788 z"
   id="path29" />
	<path
   style="fill:#9b9c9e"
   d="M 72.359,469.911 C 72.359,469.462 72.518,469.079 72.837,468.763 C 73.156,468.447 73.537,468.288 73.983,468.288 C 74.436,468.288 74.821,468.446 75.137,468.763 C 75.453,469.08 75.612,469.462 75.612,469.911 C 75.612,470.36 75.453,470.744 75.134,471.062 C 74.815,471.38 74.432,471.54 73.983,471.54 C 73.538,471.54 73.156,471.382 72.837,471.065 C 72.518,470.748 72.359,470.364 72.359,469.911 z M 72.998,469.911 C 72.998,470.184 73.095,470.418 73.288,470.611 C 73.481,470.804 73.715,470.901 73.988,470.901 C 74.258,470.901 74.489,470.804 74.682,470.611 C 74.875,470.418 74.972,470.184 74.972,469.911 C 74.972,469.638 74.875,469.404 74.682,469.211 C 74.489,469.018 74.257,468.921 73.988,468.921 C 73.715,468.921 73.481,469.018 73.288,469.211 C 73.095,469.404 72.998,469.638 72.998,469.911 z"
   id="path31" />
</g><polyline
       style="fill:none;stroke:#9b9c9e;stroke-width:0.75"
       points="55.427,469.014 45.057,473.047 55.043,477.464 "
       id="polyline499" /><path
       style="fill:none;stroke:#9b9c9e;stroke-width:0.75"
       d="M 49.186,467.38 C 52.371,470.566 52.371,475.72 49.186,478.905"
       id="path501" /></g></g>
</svg>
