<?xml version="1.0" encoding="UTF-8" standalone="no"?>
<!-- Created with Inkscape (http://www.inkscape.org/) -->
<svg
   xmlns:dc="http://purl.org/dc/elements/1.1/"
   xmlns:cc="http://creativecommons.org/ns#"
   xmlns:rdf="http://www.w3.org/1999/02/22-rdf-syntax-ns#"
   xmlns:svg="http://www.w3.org/2000/svg"
   xmlns="http://www.w3.org/2000/svg"
   xmlns:sodipodi="http://sodipodi.sourceforge.net/DTD/sodipodi-0.dtd"
   xmlns:inkscape="http://www.inkscape.org/namespaces/inkscape"
   width="744.09448819"
   height="1052.3622047"
   id="svg1341"
   sodipodi:version="0.32"
   inkscape:version="0.46"
   sodipodi:docname="gpl-v3-logo (copy).svg"
   inkscape:output_extension="org.inkscape.output.svg.inkscape">
  <sodipodi:namedview
     id="base"
     pagecolor="#ffffff"
     bordercolor="#666666"
     borderopacity="1.0"
     inkscape:pageopacity="0.0"
     inkscape:pageshadow="2"
     inkscape:zoom="0.56729519"
     inkscape:cx="372.04724"
     inkscape:cy="526.18109"
     inkscape:document-units="px"
     inkscape:current-layer="layer1"
     inkscape:window-width="1439"
     inkscape:window-height="825"
     inkscape:window-x="1"
     inkscape:window-y="49"
     showgrid="false" />

  <defs>
     <mask id="free-software-text-mask" x="0" y="0" width="100%" height="100%">
       <rect width="100%" height="100%" fill="white" />

       <text
         xml:space="preserve"
         style="font-style:italic;font-weight:bold;font-size:47.4803px;font-family:Swansea;-inkscape-font-specification:'Swansea Bold Italic';text-align:end;text-anchor:end;display:inline;fill:black;fill-rule:evenodd;stroke-width:2.44018;paint-order:markers fill stroke"
         x="370.75665"
         y="732.28821"
         id="text191"
         transform="translate(-1.7627461,-148.07106)"><tspan
           sodipodi:role="line"
           id="tspan189"
           x="370.75665"
           y="732.28821"
           style="stroke-width:2.44018">Free Software</tspan></text>
     </mask>
  </defs>

  <metadata
     id="metadata1346">
    <rdf:RDF>
      <cc:Work
         rdf:about="">
        <dc:format>image/svg+xml</dc:format>
        <dc:type
           rdf:resource="http://purl.org/dc/dcmitype/StillImage" />
      </cc:Work>
    </rdf:RDF>
  </metadata>
  <g
     inkscape:label="Layer 1"
     inkscape:groupmode="layer"
     id="layer1">
    <g
       id="g3413"
       transform="translate(1.7627461,148.07106)">
      <path
         sodipodi:nodetypes="cccccccccccccccccccccccccccccccscccccccccccccccccccccccccssccscccscccccccccccsccscccscccsccscccccccccccscccccccc"
         mask="url(#free-software-text-mask)"
         style="fill:#000000;fill-opacity:0.94117647;fill-rule:evenodd;stroke:none;stroke-width:1pt;stroke-linecap:butt;stroke-linejoin:miter"
         d="m 92.93948,358.4642 c 2e-5,-1e-5 -59.30973,258.76738 -59.30973,258.76738 h 0.05329 274.38081 142.70573 c -17.00107,-1.48353 -30.42327,-7.45182 -38.42076,-18.33112 -1.48353,-2.01219 -2.70918,-4.17993 -3.78347,-6.44788 -0.68207,-1.6711 -1.32368,-3.35715 -1.97167,-5.06237 -1.70524,-5.42261 -2.38517,-11.43991 -2.07824,-17.85154 0.85262,-17.87074 9.23805,-39.12802 23.76654,-61.38798 15.43225,-23.65656 37.79837,-48.45089 65.49116,-71.45944 6.20699,-5.15319 12.62503,-10.24199 19.34361,-15.18714 8.30441,-6.10979 16.67281,-11.73661 25.04545,-16.99893 30.84745,-19.42077 61.61817,-33.0101 88.88467,-39.91284 -26.05577,8.50053 -55.32805,22.9314 -84.24861,42.57726 -1.04016,0.70255 -2.06758,1.42215 -3.09072,2.13152 -16.04613,11.11805 -30.58314,22.92586 -43.26998,34.85046 -40.82303,38.38457 -62.40046,78.15884 -52.59544,101.46069 0.69916,1.6029 1.53256,3.13335 2.50455,4.58279 10.53825,15.50047 36.65587,18.17979 69.75422,9.85831 2.25089,-0.56275 4.50178,-1.20004 6.82088,-1.86508 10.57238,-3.05237 21.797,-7.17473 33.3584,-12.25628 2.77949,-1.22777 5.58887,-2.48963 8.41953,-3.83676 0.28988,-0.13641 0.56273,-0.27283 0.85261,-0.4263 36.49173,-18.13162 64.53625,-38.99458 70.60684,-51.52967 1.33008,-2.72662 1.6498,-5.0513 0.74603,-6.87417 -4.33124,-8.78188 -34.63945,-2.849 -71.35287,13.0556 -2.95003,1.2789 -5.93417,2.59492 -8.95241,3.99661 2.45552,-2.27986 5.01123,-4.56828 7.6202,-6.82089 4.16075,-3.58438 8.46856,-7.08945 13.0556,-10.55104 7.179,-5.43627 14.43685,-10.35071 21.58173,-14.70754 33.45643,-25.24067 50.3701,-49.11722 46.8403,-57.97753 -0.66505,-1.66943 -2.08037,-2.81789 -4.26306,-3.51703 -6.97438,-2.21847 -19.70383,0.42929 -35.17019,6.7676 -12.75504,5.23164 -27.40504,12.9908 -42.25752,22.64748 l -2.02495,1.3322 c 2e-5,0 -0.37302,0.21314 -0.37302,0.21314 2e-5,2e-5 -7.14061,4.74265 -7.14061,4.74265 -2e-5,-1e-5 4.10319,-7.51363 4.10319,-7.51363 6.08765,-11.14364 16.0035,-22.77067 28.3493,-33.57154 9.05473,-7.89689 19.39903,-15.33762 30.53413,-21.84816 4.21191,-2.46573 8.4174,-4.75586 12.62929,-6.82088 4.31422,-2.10766 8.63055,-3.98085 12.84246,-5.64855 12.23682,-4.83935 23.91781,-7.77981 34.10442,-8.5794 -0.92767,-1e-5 -28.61574,0 -28.61574,0 10e-6,-1e-5 -96.45159,0 -96.45159,0 10e-6,-1e-5 -425.29295,0 -425.29295,0 0,-1e-5 -33.73141,0 -33.73141,0 z m 305.98071,0.37302 c -1.67109,25.505 3.27403,62.86215 14.49439,104.33824 1.99509,7.38021 4.16712,14.89085 6.55444,22.48762 1.48356,4.69104 3.01399,9.30881 4.58278,13.85492 -0.9208,1.35396 -1.84804,2.69937 -2.7177,4.0499 -13.99985,21.45508 -22.1828,41.73104 -24.24611,59.36303 -5.91714,-19.81468 -10.37201,-41.5183 -12.89574,-64.53198 -0.71619,-6.5941 -1.27679,-13.11442 -1.65194,-19.55675 -2.76247,-46.79639 3.34649,-89.2172 15.87988,-120.00498 z m -279.3899,33.19854 c 0.31934,-0.008 0.63414,0 0.95918,0 0,-2e-5 63.03991,0 63.03991,0 5.38851,-2e-5 9.55564,1.00991 12.52272,3.03742 2.95002,2.03946 4.05631,4.67743 3.35715,7.88665 2e-5,2e-5 -7.51363,33.94456 -7.51363,33.94456 0,3e-5 -22.22116,0 -22.22116,0 2e-5,3e-5 7.30048,-33.03866 7.30048,-33.03866 h -55.63285 c -2e-5,0 -20.08965,90.80305 -20.08965,90.80305 2e-5,0 -7.24719,32.87881 -7.24719,32.87881 0,3e-5 55.57957,0 55.57957,0 0,3e-5 0.0533,-0.21316 0.0533,-0.21316 0,2e-5 11.13722,-50.30404 11.13722,-50.30404 0,-2e-5 -26.1112,0 -26.1112,0 0,-2e-5 2.50454,-11.35038 2.50454,-11.35038 -1e-5,-2e-5 48.33238,0 48.33238,0 0,-2e-5 -13.85493,62.77348 -13.85493,62.77348 -0.18757,0.89352 -0.51582,1.70308 -0.95919,2.50453 -1.14249,2.08037 -3.13547,3.86234 -5.91498,5.32883 -3.85378,2.02923 -8.46643,3.03742 -13.85493,3.03742 0,2e-5 -62.98662,0 -62.98662,0 -5.38852,2e-5 -9.55564,-1.00821 -12.52272,-3.03742 -2.95001,-2.0292 -4.07335,-4.62073 -3.35715,-7.83336 1e-5,-2e-5 27.76313,-125.49366 27.76313,-125.49366 0.71618,-3.20921 2.95005,-5.84721 6.82089,-7.88665 0.13642,-0.0733 0.28989,-0.0899 0.4263,-0.15986 3.53302,-1.7697 7.67937,-2.76443 12.46944,-2.87756 z m 98.79628,0 c -2e-5,-2e-5 79.34608,0 79.34608,0 5.32031,-2e-5 9.50235,1.00991 12.46943,3.03742 2.98417,2.03946 4.12666,4.67743 3.41045,7.88665 2e-5,2e-5 -14.81411,66.92995 -14.81411,66.92995 -0.69912,3.18874 -2.98627,5.7905 -6.87417,7.83336 -3.8879,2.04966 -8.4643,3.09071 -13.80164,3.09071 h -57.6578 l -11.13723,50.25075 c 0,2e-5 -1.8118,8.25967 -1.8118,8.25967 1e-5,2e-5 -21.74158,0 -21.74158,0 0,2e-5 1.65193,-7.46034 1.65193,-7.46034 0,2e-5 30.96044,-139.82817 30.96044,-139.82817 z m 109.61377,0 c -10e-6,-2e-5 21.74158,0 21.74158,0 2e-5,-2e-5 -24.61914,111.21241 -24.61914,111.21241 2e-5,2e-5 -5.3821,24.29942 -5.3821,24.29942 0,3e-5 52.00926,0 52.00926,0 0.54568,3.98854 1.18299,7.90582 1.86508,11.77668 -2e-5,2e-5 -78.22705,0 -78.22705,0 2e-5,2e-5 6.18143,-27.92301 6.18143,-27.92301 2e-5,0 26.43094,-119.3655 26.43094,-119.3655 z m -90.48332,11.82997 c 2e-5,0 -14.4411,65.11814 -14.4411,65.11814 0,-2e-5 54.19408,0 54.19408,0 -10e-6,-2e-5 14.3878,-65.11814 14.3878,-65.11814 z"
         id="path74" />
      <g
         style="fill:#000000;fill-opacity:0.94117647"
         id="g4966"
         transform="matrix(1.705222,0,0,1.705222,-200.90733,-129.69426)">
        <text
           xml:space="preserve"
           style="font-style:italic;font-weight:bold;font-size:52.804px;font-family:'Myriad Pro';-inkscape-font-specification:'Myriad Pro Bold Italic';text-align:end;text-anchor:end;fill:black;fill-opacity:0.941176;fill-rule:evenodd;stroke-width:213.043;paint-order:markers fill stroke"
           x="549.19604"
           y="488.81253"
           id="text219"><tspan
             sodipodi:role="line"
             id="tspan217"
             x="549.19604"
             y="488.81253"
             style="stroke-width:213.043">Free as in Freedom</tspan></text>
      </g>
      <path
         style="fill:none;fill-opacity:0.94117647;fill-rule:evenodd;stroke:#000000;stroke-width:8.52610779;stroke-linecap:butt;stroke-linejoin:miter;stroke-miterlimit:4;stroke-opacity:1"
         id="path2592"
         d="M 402.97747,590.4172 C 403.66968,592.19682 404.36192,593.97353 405.08297,595.7113 C 406.19343,598.07207 407.47693,600.3319 409.02001,602.44175 C 417.35558,613.77261 431.31547,619.9767 449.03932,621.52122 C 449.03932,621.52122 468.10438,621.52122 468.10438,621.52122 C 474.13249,621.05108 480.44905,620.17426 486.99636,618.89363 C 498.28829,616.68573 510.25803,613.29383 522.68924,608.76119 C 532.10639,605.32744 541.78314,601.26495 551.60409,596.54341 C 572.99097,586.29126 595.0845,573.06832 616.75984,557.11106 C 623.89841,551.86024 630.74856,546.47243 637.32471,540.99376 C 643.35284,535.978 649.13581,530.88434 654.65917,525.73449 C 670.07562,510.8776 681.71367,495.78852 688.30424,482.53959 C 695.16876,468.74269 696.53885,456.94601 690.91452,449.51466 C 687.46779,444.9532 681.69925,442.50877 674.27224,441.93336 C 707.72977,416.82865 727.22752,386.37503 720.2332,367.17442 C 718.01224,361.04678 713.12339,356.47522 706.11462,353.94714 C 702.99965,352.82662 699.49519,352.11708 695.67352,351.79404 C 695.67352,351.79404 685.37669,351.79404 685.37669,351.79404 C 670.99861,352.83092 650.09005,357.97936 632.35179,366.67256"
         sodipodi:nodetypes="cccccssccccscccsccc" />
    </g>
  </g>
</svg>
