<?xml version="1.0" encoding="UTF-8" standalone="no"?>
<!-- Created with Inkscape (http://www.inkscape.org/) -->
<svg
   xmlns:dc="http://purl.org/dc/elements/1.1/"
   xmlns:cc="http://web.resource.org/cc/"
   xmlns:rdf="http://www.w3.org/1999/02/22-rdf-syntax-ns#"
   xmlns:svg="http://www.w3.org/2000/svg"
   xmlns="http://www.w3.org/2000/svg"
   xmlns:sodipodi="http://sodipodi.sourceforge.net/DTD/sodipodi-0.dtd"
   xmlns:inkscape="http://www.inkscape.org/namespaces/inkscape"
   width="1620"
   height="1080"
   id="svg1341"
   sodipodi:version="0.32"
   inkscape:version="0.45.1"
   sodipodi:docname="agpl-logo2.svg"
   inkscape:output_extension="org.inkscape.output.svg.inkscape"
   version="1.0">
  <sodipodi:namedview
     id="base"
     pagecolor="#ffffff"
     bordercolor="#666666"
     borderopacity="1.0"
     inkscape:pageopacity="0.0"
     inkscape:pageshadow="2"
     inkscape:zoom="0.5054504"
     inkscape:cx="897.55388"
     inkscape:cy="461.72056"
     inkscape:document-units="px"
     inkscape:current-layer="g2803"
     inkscape:window-width="1278"
     inkscape:window-height="971"
     inkscape:window-x="0"
     inkscape:window-y="27"
     showguides="true"
     inkscape:guide-bbox="true"
     width="18in"
     height="12in"
     units="in"
     showborder="true">
  </sodipodi:namedview>

  <defs>
     <mask id="free-software-text-mask" x="0" y="0" width="100%" height="100%">
       <rect width="100%" height="100%" fill="white" />

       <text
         xml:space="preserve"
         style="font-style:italic;font-weight:bold;font-size:17.5194px;font-family:Swansea;-inkscape-font-specification:'Swansea Bold Italic';text-align:end;text-anchor:end;display:inline;fill:black;fill-rule:evenodd;stroke-width:0.900382;paint-order:markers fill stroke"
         x="149.36148"
         y="121.0549"
         id="text190"><tspan
           sodipodi:role="line"
           id="tspan188"
           x="149.36148"
           y="121.0549"
           style="stroke-width:0.900382">Free Software</tspan></text>
     </mask>
  </defs>

  <metadata
     id="metadata1346">
    <rdf:RDF>
      <cc:Work
         rdf:about="">
        <dc:format>image/svg+xml</dc:format>
        <dc:type
           rdf:resource="http://purl.org/dc/dcmitype/StillImage" />
      </cc:Work>
    </rdf:RDF>
  </metadata>
  <g
     inkscape:label="Layer 1"
     id="layer1"
     inkscape:groupmode="layer">
    <path
       style="fill:#bd0000;fill-opacity:1;fill-rule:evenodd;stroke:none;stroke-width:1pt;stroke-linecap:butt;stroke-linejoin:miter"
       mask="url(#free-software-text-mask)"
       sodipodi:nodetypes="cccccccccccccccccccccccccccccccscccccccccccccccccccccccccssccscccscccccccccccsccccccscccsccscccccccccccscccccccc"
       id="path74"
       d="m 47.554121,37.075609 c 7e-6,-4e-6 -21.97209,95.863871 -21.97209,95.863871 h 0.01974 101.648077 52.86726 c -6.29827,-0.54959 -11.27071,-2.76063 -14.23349,-6.79101 -0.54959,-0.74544 -1.00365,-1.54851 -1.40164,-2.38871 -0.25268,-0.61908 -0.49037,-1.2437 -0.73043,-1.87542 -0.63173,-2.00888 -0.88362,-4.23807 -0.76991,-6.61334 0.31587,-6.62046 3.42236,-14.49551 8.80464,-22.742009 5.71708,-8.763892 14.00291,-17.949286 24.26208,-26.473114 2.29946,-1.909069 4.67711,-3.794284 7.1661,-5.626281 3.07648,-2.263454 6.17667,-4.347988 9.27843,-6.297485 11.42785,-7.194686 22.82728,-12.229037 32.92852,-14.78625 -9.65271,3.149136 -20.49702,8.495247 -31.21103,15.77332 -0.38534,0.260269 -0.76596,0.526855 -1.145,0.789651 -5.94451,4.118833 -11.32994,8.493196 -16.02995,12.910825 -15.12344,14.220082 -23.11709,28.954997 -19.48469,37.587483 0.25901,0.59382 0.56776,1.16079 0.92784,1.69776 3.90404,5.74235 13.57967,6.73494 25.8414,3.65214 0.83387,-0.20848 1.66774,-0.44457 2.52688,-0.69094 3.91668,-1.1308 8.075,-2.65798 12.35807,-4.54051 1.0297,-0.45484 2.07048,-0.92232 3.11913,-1.42138 0.10739,-0.0505 0.20847,-0.10107 0.31586,-0.15793 13.51886,-6.7171 23.90833,-14.446066 26.15726,-19.089859 0.49275,-1.010113 0.61119,-1.871322 0.27638,-2.546629 -1.60457,-3.253366 -12.83265,-1.05545 -26.43364,4.836623 -1.09288,0.473786 -2.19839,0.961323 -3.31654,1.480598 0.90968,-0.844604 1.85648,-1.692381 2.82301,-2.52689 1.5414,-1.327882 3.13729,-2.626383 4.83662,-3.908776 2.65956,-2.013939 5.34833,-3.83456 7.99524,-5.448606 12.39439,-9.350747 18.66029,-18.196137 17.35263,-21.478561 -0.24638,-0.618463 -0.77071,-1.043925 -1.57931,-1.302931 -2.58376,-0.821862 -7.29955,0.159036 -13.02927,2.507149 -4.72528,1.938133 -10.15257,4.812619 -15.65487,8.390066 l -0.75017,0.493532 -0.13819,0.07896 c 0,8e-6 -2.64534,1.756979 -2.64534,1.756979 -1e-5,-4e-6 1.52008,-2.783526 1.52008,-2.783526 2.25526,-4.128311 5.92872,-8.435703 10.50238,-12.437032 3.35445,-2.925509 7.18664,-5.682028 11.31179,-8.093945 1.56035,-0.913463 3.11833,-1.761873 4.67869,-2.526887 1.59826,-0.780811 3.1973,-1.47476 4.75766,-2.092582 4.53329,-1.792802 8.86067,-2.882135 12.63444,-3.178354 -0.34367,-4e-6 -10.60109,0 -10.60109,0 1e-5,-4e-6 -35.73179,0 -35.73179,0 0,-4e-6 -157.555513,0 -157.555513,0 0,-4e-6 -12.496256,0 -12.496256,0 z m 113.354679,0.13819 c -0.61907,9.448672 1.21291,23.288134 5.36965,38.653511 0.73911,2.734098 1.54376,5.516516 2.42818,8.330842 0.5496,1.73786 1.11657,3.448575 1.69775,5.132743 -0.34112,0.501592 -0.68463,1.000018 -1.00681,1.50034 -5.18643,7.948324 -8.21792,15.459825 -8.9823,21.991835 -2.19208,-7.34062 -3.84245,-15.381014 -4.7774,-23.906743 -0.26532,-2.442873 -0.473,-4.858414 -0.61198,-7.245062 -1.0234,-17.336354 1.23975,-33.051717 5.88291,-44.457466 z m -103.503755,12.298847 c 0.118304,-0.0028 0.234926,0 0.355341,0 0,-7e-6 23.353986,0 23.353986,0 1.996246,-7e-6 3.540015,0.374135 4.63921,1.125254 1.092875,0.755545 1.502715,1.732816 1.243702,2.921715 7e-6,8e-6 -2.783526,12.575223 -2.783526,12.575223 0,1.1e-5 -8.232128,0 -8.232128,0 7e-6,1.1e-5 2.704561,-12.23962 2.704561,-12.23962 h -20.60994 c -8e-6,0 -7.442482,33.639218 -7.442482,33.639218 7e-6,0 -2.684819,12.180399 -2.684819,12.180399 0,1.1e-5 20.590201,0 20.590201,0 0,1.1e-5 0.01974,-0.07897 0.01974,-0.07897 0,7e-6 4.125934,-18.635811 4.125934,-18.635811 0,-8e-6 -9.673247,0 -9.673247,0 0,-8e-6 0.927841,-4.204902 0.927841,-4.204902 -4e-6,-7e-6 17.905382,0 17.905382,0 0,-7e-6 -5.132745,23.255286 -5.132745,23.255286 -0.06949,0.33101 -0.191093,0.63093 -0.355345,0.92783 -0.423251,0.77071 -1.161577,1.43086 -2.191284,1.97414 -1.427685,0.75176 -3.136504,1.12525 -5.132746,1.12525 0,1e-5 -23.334243,0 -23.334243,0 -1.99625,1e-5 -3.540016,-0.3735 -4.639211,-1.12525 -1.092871,-0.75174 -1.509027,-1.71181 -1.243701,-2.90197 l 10.285225,-46.490825 c 0.265319,-1.188895 1.092886,-2.166178 2.526891,-2.921715 0.05054,-0.02716 0.107394,-0.03332 0.157928,-0.05922 1.308855,-0.655609 2.844927,-1.02412 4.619473,-1.066031 z m 36.600415,0 c -7e-6,-7e-6 29.39483,0 29.39483,0 1.97098,-7e-6 3.52027,0.374135 4.61947,1.125254 1.10552,0.755545 1.52877,1.732816 1.26344,2.921715 1e-5,8e-6 -5.48808,24.795106 -5.48808,24.795106 -0.259,1.181311 -1.10631,2.145168 -2.54663,2.901973 -1.44033,0.759325 -3.13572,1.144996 -5.11301,1.144996 h -21.360107 l -4.125938,18.61607 c 0,1e-5 -0.671205,3.0599 -0.671205,3.0599 3e-6,1e-5 -8.054462,0 -8.054462,0 0,1e-5 0.611979,-2.76378 0.611979,-2.76378 0,1e-5 11.469713,-51.801234 11.469713,-51.801234 z m 40.6079,0 c 0,-7e-6 8.05446,0 8.05446,0 1e-5,-7e-6 -9.12049,41.20014 -9.12049,41.20014 1e-5,8e-6 -1.99387,9.002049 -1.99387,9.002049 0,1.1e-5 19.26753,0 19.26753,0 0.20216,1.477605 0.43826,2.928815 0.69095,4.362825 -1e-5,1e-5 -28.98027,0 -28.98027,0 10e-6,1e-5 2.28999,-10.344451 2.28999,-10.344451 1e-5,0 9.7917,-44.220563 9.7917,-44.220563 z m -33.52077,4.382572 c 1e-5,0 -5.349897,24.123896 -5.349897,24.123896 0,-7e-6 20.076927,0 20.076927,0 0,-7e-6 5.33016,-24.123896 5.33016,-24.123896 z" />
    <g
       style="fill:#bd0000;fill-opacity:1"
       transform="matrix(0.6317225,0,0,0.6317225,-61.305397,-143.76928)"
       id="g4966">
      <text
         xml:space="preserve"
         style="font-style:italic;font-weight:bold;font-size:33.3575px;font-family:'Myriad Pro';-inkscape-font-specification:'Myriad Pro Bold Italic';text-align:end;text-anchor:end;fill:#bd0000;fill-rule:evenodd;stroke-width:134.584;paint-order:markers fill stroke"
         x="285.63409"
         y="165.02461"
         id="text1154"
         transform="matrix(1.5829735,0,0,1.5829735,97.044821,227.58297)"><tspan
           sodipodi:role="line"
           id="tspan1152"
           x="285.63409"
           y="165.02461"
           style="stroke-width:134.584">Free as in Freedom</tspan></text>
    </g>
    <path
       style="fill:none;fill-opacity:0.94117647;fill-rule:evenodd;stroke:#bd0000;stroke-width:3.15861177;stroke-linecap:butt;stroke-linejoin:miter;stroke-miterlimit:4;stroke-opacity:1"
       d="M 162.41188,123.00573 C 162.66831,123.66501 162.92476,124.32322 163.19189,124.967 C 163.60327,125.84158 164.07876,126.67876 164.65042,127.46039 C 167.73844,131.65806 172.91007,133.95645 179.47611,134.52863 C 179.47611,134.52863 186.53902,134.52863 186.53902,134.52863 C 188.77221,134.35446 191.11227,134.02963 193.53781,133.55521 C 197.72106,132.73726 202.15541,131.48069 206.76072,129.80151 C 210.24943,128.52943 213.83431,127.02443 217.47261,125.27527 C 225.39567,121.47722 233.58052,116.5786 241.61044,110.66702 C 244.25502,108.72178 246.79275,106.7258 249.22897,104.69615 C 251.46218,102.83799 253.60456,100.95098 255.65076,99.043147 C 261.36199,93.539212 265.67346,87.949258 268.11503,83.041013 C 270.65808,77.929766 271.16565,73.559526 269.08204,70.806482 C 267.80515,69.116628 265.66812,68.211056 262.91669,67.997887 C 275.31148,58.697509 282.53468,47.415553 279.94354,40.302427 C 279.12076,38.03236 277.30962,36.338764 274.71312,35.402203 C 273.55914,34.987091 272.26087,34.724232 270.84508,34.604558 C 270.84508,34.604558 267.03048,34.604558 267.03048,34.604558 C 261.70392,34.988684 253.95807,36.895993 247.38669,40.116507"
       sodipodi:nodetypes="cccccssccccscccsccc"
       id="path2592" />
  </g>
</svg>
