<?xml version="1.0" encoding="UTF-8" standalone="no"?>
<!-- Created with Inkscape (http://www.inkscape.org/) -->
<svg xmlns:dc="http://purl.org/dc/elements/1.1/" xmlns:cc="http://creativecommons.org/ns#" xmlns:rdf="http://www.w3.org/1999/02/22-rdf-syntax-ns#" xmlns:svg="http://www.w3.org/2000/svg" xmlns="http://www.w3.org/2000/svg" xmlns:sodipodi="http://sodipodi.sourceforge.net/DTD/sodipodi-0.dtd" xmlns:inkscape="http://www.inkscape.org/namespaces/inkscape" width="110.72372" height="37.900333" id="svg" version="1.1" inkscape:version="0.48.0 r9654" sodipodi:docname="New document 4">
	<sodipodi:namedview id="base" pagecolor="#ffffff" bordercolor="#666666" borderopacity="1.0" inkscape:pageopacity="0.0" inkscape:pageshadow="2" inkscape:zoom="3.959798" inkscape:cx="51.755214" inkscape:cy="19.316583" inkscape:document-units="px" inkscape:current-layer="layer-1" showgrid="false" fit-margin-top="0" fit-margin-left="0" fit-margin-right="0" fit-margin-bottom="0" inkscape:window-width="1680" inkscape:window-height="950" inkscape:window-x="0" inkscape:window-y="27" inkscape:window-maximized="1" />

	<g inkscape:label="Layer 1" inkscape:groupmode="layer" id="layer-1" transform="translate(-319.64995,-513.41138)">
		<g id="gfdl-logo" transform="matrix(1.1204236,0,0,1.1204236,378.23897,-788.71491)">
			<path sodipodi:nodetypes="cccccc" inkscape:connector-curvature="0" id="gfdl-rectangle" d="m -51.39745,1163.0948 85,0 0,29.5252 -85,0 2,-14.7626 z" style="fill:#f5efbc;fill-opacity:1;stroke:#000000;stroke-width:1.79999995;stroke-linecap:round;stroke-linejoin:round;stroke-miterlimit:4;stroke-opacity:1;stroke-dashoffset:0" />
			<path inkscape:connector-curvature="0" id="gfdl-paper-scroll" d="m 19.61576,1166.8577 v 24.625 c 0,2.002 5.8203,3.625 13,3.625 7.1797,0 13,-1.623 13,-3.625 v -24.625 z" style="color:#000000;fill:#f5efbc;fill-opacity:1;fill-rule:nonzero;stroke:#000000;stroke-width:1.79999995;stroke-linecap:round;stroke-linejoin:round;stroke-miterlimit:4;stroke-opacity:1;stroke-dasharray:none;stroke-dashoffset:0;marker:none;visibility:visible;display:inline;overflow:visible;enable-background:accumulate" />
			<path transform="translate(-321.63424,901.70446)" d="m 367.25,264.98718 c 0,2.00203 -5.8203,3.625 -13,3.625 -7.1797,0 -13,-1.62297 -13,-3.625 0,-2.00203 5.8203,-3.625 13,-3.625 7.1797,0 13,1.62297 13,3.625 z" sodipodi:ry="3.625" sodipodi:rx="13" sodipodi:cy="264.98718" sodipodi:cx="354.25" id="gfdl-paper-scroll-top" style="color:#000000;fill:#f5efbc;fill-opacity:1;fill-rule:nonzero;stroke:#000000;stroke-width:1.79999995;stroke-linecap:round;stroke-linejoin:round;stroke-miterlimit:4;stroke-opacity:1;stroke-dasharray:none;stroke-dashoffset:0;marker:none;visibility:visible;display:inline;overflow:visible;enable-background:accumulate" sodipodi:type="arc" />
			<path sodipodi:nodetypes="cccccc" inkscape:connector-curvature="0" id="gfdl-paper-scroll-flag" d="m 45.06778,1167.3815 c -2.44864,5.5993 -9.9067,7.192 -21.52831,5.7955 l 5.7779,9.7599 -6.02275,7.2171 c 7.75095,3.1192 17.18643,1.5723 22.07112,-0.1842 z" style="fill:#2e439b;fill-opacity:1;stroke:#000000;stroke-width:1.39999986;stroke-linecap:butt;stroke-linejoin:miter;stroke-miterlimit:4;stroke-opacity:1;stroke-dasharray:none" />
			<path sodipodi:nodetypes="ccscc" inkscape:connector-curvature="0" id="gfdl-paper-scroll-top-spiral" d="m 34.069414,1165.4995 c -3.4695,-0.1017 -9.220346,0.026 -10.087534,1.0436 0.847512,0.9772 6.098601,1.3033 9.94714,1.2348 1.475391,-0.026 2.732324,-0.1866 3.941745,-0.4078 0.92901,-0.1699 1.695917,-0.5153 1.984647,-0.9971 0.230994,-0.3855 0.135715,-0.8755 -0.277846,-1.3053 -1.163631,-1.2093 -5.235068,-1.7275 -9.37538,-1.7351" style="fill:none;stroke:#000000;stroke-width:1.39999998;stroke-linecap:round;stroke-linejoin:round;stroke-miterlimit:4;stroke-opacity:1;stroke-dasharray:none" />

			<text transform="scale(0.90245956,1.1080829)" sodipodi:linespacing="125%" id="gfdl-text" y="1071.2108" x="-15.68348" style="font-size:24.31293869px;font-style:normal;font-variant:normal;font-weight:bold;font-stretch:normal;text-align:center;line-height:125%;letter-spacing:0px;word-spacing:0px;text-anchor:middle;fill:#000000;fill-opacity:1;stroke:none;font-family:Ubuntu;-inkscape-font-specification:Ubuntu Bold" xml:space="preserve"><tspan style="font-style:normal;font-variant:normal;font-weight:bold;font-stretch:normal;font-family:P052;-inkscape-font-specification:P052 Bold" y="1071.2108" x="-15.68348" id="gfdl-text-span" sodipodi:role="line">GFDL</tspan></text>
		</g>
	</g>

	<metadata id="metadata">
		<rdf:RDF>
			<Work rdf:about="">
				<title></title>

				<format>image/svg+xml</format>
				<type rdf:resource="http://purl.org/dc/dcmitype/StillImage" />
			</Work>
		</rdf:RDF>
	</metadata>
</svg>
