<?xml version="1.0" encoding="UTF-8" standalone="no"?>
<!-- Generator: Adobe Illustrator 14.0.0, SVG Export Plug-In . SVG Version: 6.00 Build 43363)  -->

<svg
   xmlns:dc="http://purl.org/dc/elements/1.1/"
   xmlns:cc="http://creativecommons.org/ns#"
   xmlns:rdf="http://www.w3.org/1999/02/22-rdf-syntax-ns#"
   xmlns:svg="http://www.w3.org/2000/svg"
   xmlns="http://www.w3.org/2000/svg"
   xmlns:xlink="http://www.w3.org/1999/xlink"
   xmlns:sodipodi="http://sodipodi.sourceforge.net/DTD/sodipodi-0.dtd"
   xmlns:inkscape="http://www.inkscape.org/namespaces/inkscape"
   version="1.1"
   id="Capa_1"
   x="0px"
   y="0px"
   width="841.89px"
   height="595.28px"
   viewBox="0 0 841.89 595.28"
   enable-background="new 0 0 841.89 595.28"
   xml:space="preserve"
   inkscape:version="0.48.2 r9819"
   sodipodi:docname="Licencias.svg"
   sodipodi:version="0.32"
   inkscape:output_extension="org.inkscape.output.svg.inkscape"><metadata
   id="metadata507"><rdf:RDF><cc:Work
       rdf:about=""><dc:format>image/svg+xml</dc:format><dc:type
         rdf:resource="http://purl.org/dc/dcmitype/StillImage" /><dc:title></dc:title><cc:license
         rdf:resource="http://creativecommons.org/licenses/by/3.0/" /></cc:Work><cc:License
       rdf:about="http://creativecommons.org/licenses/by/3.0/"><cc:permits
         rdf:resource="http://creativecommons.org/ns#Reproduction" /><cc:permits
         rdf:resource="http://creativecommons.org/ns#Distribution" /><cc:requires
         rdf:resource="http://creativecommons.org/ns#Notice" /><cc:requires
         rdf:resource="http://creativecommons.org/ns#Attribution" /><cc:permits
         rdf:resource="http://creativecommons.org/ns#DerivativeWorks" /></cc:License></rdf:RDF></metadata><defs
   id="defs505"><linearGradient
   id="linearGradient4471"><stop
     style="stop-color:#696a6b;stop-opacity:1;"
     offset="0"
     id="stop4473" /><stop
     style="stop-color:#9b9c9e;stop-opacity:1;"
     offset="1"
     id="stop4475" /></linearGradient><linearGradient
   id="linearGradient4455"><stop
     style="stop-color:#696a6b;stop-opacity:1;"
     offset="0"
     id="stop4457" /><stop
     style="stop-color:#9b9c9e;stop-opacity:1;"
     offset="1"
     id="stop4459" /></linearGradient><linearGradient
   id="linearGradient4260"><stop
     style="stop-color:#911d21;stop-opacity:1;"
     offset="0"
     id="stop4262" /><stop
     style="stop-color:#c4282d;stop-opacity:1;"
     offset="1"
     id="stop4264" /></linearGradient><linearGradient
   id="linearGradient4235"><stop
     style="stop-color:#592350;stop-opacity:1;"
     offset="0"
     id="stop4237" /><stop
     style="stop-color:#742e68;stop-opacity:1;"
     offset="1"
     id="stop4239" /></linearGradient><linearGradient
   id="linearGradient4197"><stop
     style="stop-color:#16813d;stop-opacity:1;"
     offset="0"
     id="stop4199" /><stop
     style="stop-color:#0d4f25;stop-opacity:1;"
     offset="1"
     id="stop4201" /></linearGradient><linearGradient
   id="linearGradient3598"><stop
     style="stop-color:#742e68;stop-opacity:1;"
     offset="0"
     id="stop3600" /><stop
     style="stop-color:#481c40;stop-opacity:1;"
     offset="1"
     id="stop3602" /></linearGradient><linearGradient
   inkscape:collect="always"
   id="linearGradient3632"><stop
     style="stop-color:#ffffff;stop-opacity:1;"
     offset="0"
     id="stop3634" /><stop
     style="stop-color:#ffffff;stop-opacity:0;"
     offset="1"
     id="stop3636" /></linearGradient><linearGradient
   inkscape:collect="always"
   id="linearGradient3584"><stop
     style="stop-color:#ffffff;stop-opacity:1;"
     offset="0"
     id="stop3586" /><stop
     style="stop-color:#ffffff;stop-opacity:0;"
     offset="1"
     id="stop3588" /></linearGradient><linearGradient
   inkscape:collect="always"
   id="linearGradient3542"><stop
     style="stop-color:#ffffff;stop-opacity:1;"
     offset="0"
     id="stop3544" /><stop
     style="stop-color:#ffffff;stop-opacity:0;"
     offset="1"
     id="stop3546" /></linearGradient><linearGradient
   id="linearGradient3536"><stop
     style="stop-color:#ffffff;stop-opacity:1"
     offset="0"
     id="stop3538" /><stop
     style="stop-color:#ffffff;stop-opacity:0"
     offset="1"
     id="stop3540" /></linearGradient><linearGradient
   id="linearGradient3530"><stop
     style="stop-color:#ffffff;stop-opacity:1"
     offset="0"
     id="stop3532" /><stop
     style="stop-color:#7f1a1d;stop-opacity:1;"
     offset="1"
     id="stop3534" /></linearGradient><linearGradient
   id="linearGradient3483"><stop
     id="stop3485"
     offset="0"
     style="stop-color:#c4282d;stop-opacity:1;" /><stop
     id="stop3487"
     offset="1"
     style="stop-color:#7f1a1d;stop-opacity:1;" /></linearGradient><linearGradient
   id="linearGradient3467"><stop
     style="stop-color:#000000;stop-opacity:1;"
     offset="0"
     id="stop3469" /><stop
     style="stop-color:#000000;stop-opacity:0;"
     offset="1"
     id="stop3471" /></linearGradient>
	
	
	
	
<linearGradient
   inkscape:collect="always"
   xlink:href="#linearGradient3483"
   id="linearGradient3481"
   x1="193.67853"
   y1="227.42769"
   x2="192.737"
   y2="164.42589"
   gradientUnits="userSpaceOnUse" /><linearGradient
   inkscape:collect="always"
   xlink:href="#linearGradient3542"
   id="linearGradient3548"
   x1="223.70312"
   y1="167.78789"
   x2="223.70312"
   y2="224.78125"
   gradientUnits="userSpaceOnUse" />
		
		
	<linearGradient
   inkscape:collect="always"
   xlink:href="#linearGradient3584"
   id="linearGradient3590"
   x1="234.03793"
   y1="165.15395"
   x2="234.35178"
   y2="210.66147"
   gradientUnits="userSpaceOnUse" />
		
	<filter
   inkscape:collect="always"
   id="filter3676"
   x="-0.041724954"
   width="1.0834499"
   y="-0.58146253"
   height="2.1629251"><feGaussianBlur
     inkscape:collect="always"
     stdDeviation="1.9987774"
     id="feGaussianBlur3678" /></filter>
		
	<filter
   inkscape:collect="always"
   id="filter3797"
   x="-0.16028311"
   width="1.3205662"
   y="-0.47746988"
   height="1.9549398"><feGaussianBlur
     inkscape:collect="always"
     stdDeviation="2.0640625"
     id="feGaussianBlur3799" /></filter><linearGradient
   inkscape:collect="always"
   xlink:href="#linearGradient3483"
   id="linearGradient3947"
   gradientUnits="userSpaceOnUse"
   x1="193.67853"
   y1="227.42769"
   x2="192.737"
   y2="164.42589" />
	
	
	
	

		
	
		
		
		
	
		
		
		
		
		
		
		
		
		
		
		
		
	
		
	
	
	
	
	

		
	
		
		
	
		
	
		
		
		
		
	<linearGradient
   inkscape:collect="always"
   xlink:href="#linearGradient3598"
   id="linearGradient3620"
   x1="473.95499"
   y1="225.58197"
   x2="473.95499"
   y2="164.577"
   gradientUnits="userSpaceOnUse" /><linearGradient
   inkscape:collect="always"
   xlink:href="#linearGradient3483"
   id="linearGradient3883"
   gradientUnits="userSpaceOnUse"
   gradientTransform="translate(2.7507074,-101.77618)"
   x1="138.40564"
   y1="330.10239"
   x2="138.40564"
   y2="319.71936" /><linearGradient
   inkscape:collect="always"
   xlink:href="#linearGradient3598"
   id="linearGradient3891"
   gradientUnits="userSpaceOnUse"
   x1="473.95499"
   y1="225.58197"
   x2="473.95499"
   y2="164.577" /><linearGradient
   inkscape:collect="always"
   xlink:href="#linearGradient3598"
   id="linearGradient4005"
   gradientUnits="userSpaceOnUse"
   x1="473.95499"
   y1="225.58197"
   x2="473.95499"
   y2="164.577" /><linearGradient
   inkscape:collect="always"
   xlink:href="#linearGradient3598"
   id="linearGradient2938"
   gradientUnits="userSpaceOnUse"
   gradientTransform="translate(16.564834,16.038773)"
   x1="365.68323"
   y1="228.72025"
   x2="365.68323"
   y2="216.25424" />
	
	
	
	
	
	
	
	
	
	<filter
   inkscape:collect="always"
   id="filter4193"
   x="-0.085987615"
   width="1.1719752"
   y="-0.10865135"
   height="1.2173027"><feGaussianBlur
     inkscape:collect="always"
     stdDeviation="0.64222"
     id="feGaussianBlur4195" /></filter>
	
	
	
	
	
	
	
	
	
	
<linearGradient
   inkscape:collect="always"
   xlink:href="#linearGradient4455"
   id="linearGradient4461"
   x1="735.34491"
   y1="439.91519"
   x2="735.34491"
   y2="499.08917"
   gradientUnits="userSpaceOnUse" /><linearGradient
   inkscape:collect="always"
   xlink:href="#linearGradient4471"
   id="linearGradient4477"
   x1="664.09625"
   y1="501.10046"
   x2="664.09625"
   y2="510.29501"
   gradientUnits="userSpaceOnUse" /><linearGradient
   inkscape:collect="always"
   xlink:href="#linearGradient3584"
   id="linearGradient4485"
   gradientUnits="userSpaceOnUse"
   gradientTransform="translate(3.7826799,-9.9750279)"
   x1="234.03793"
   y1="165.15395"
   x2="233.72409"
   y2="209.09224" /><linearGradient
   inkscape:collect="always"
   xlink:href="#linearGradient4471"
   id="linearGradient4513"
   gradientUnits="userSpaceOnUse"
   x1="664.09625"
   y1="501.10046"
   x2="664.09625"
   y2="510.29501" />
		
		
	<linearGradient
   inkscape:collect="always"
   xlink:href="#linearGradient4471"
   id="linearGradient4529"
   gradientUnits="userSpaceOnUse"
   x1="664.09625"
   y1="501.10046"
   x2="664.09625"
   y2="510.29501"
   gradientTransform="translate(13.369724,31.384113)" /><linearGradient
   inkscape:collect="always"
   xlink:href="#linearGradient3632"
   id="linearGradient4543"
   gradientUnits="userSpaceOnUse"
   x1="137.46411"
   y1="317.84103"
   x2="137.46411"
   y2="324.8385" /></defs><sodipodi:namedview
   pagecolor="#ffffff"
   bordercolor="#666666"
   borderopacity="1"
   objecttolerance="10"
   gridtolerance="10"
   guidetolerance="10"
   inkscape:pageopacity="0"
   inkscape:pageshadow="2"
   inkscape:window-width="1280"
   inkscape:window-height="746"
   id="namedview503"
   showgrid="false"
   inkscape:zoom="0.90545621"
   inkscape:cx="420.94501"
   inkscape:cy="443.33958"
   inkscape:window-x="0"
   inkscape:window-y="0"
   inkscape:window-maximized="1"
   inkscape:current-layer="Capa_1"
   showguides="true"
   inkscape:guide-bbox="true" />

















<g
   id="g4633"><g
     style="fill:#999999;filter:url(#filter4193)"
     transform="translate(14.095857,177.22388)"
     id="g4625">
		<path
   style="fill:#999999"
   d="M 764.117,354.047 C 764.117,354.968 763.711,355.742 762.898,356.37 C 762.152,356.976 761.219,357.28 760.103,357.28 L 750.273,357.28 C 749.244,357.28 748.371,357.004 747.656,356.451 C 746.886,355.855 746.4,354.946 746.193,353.722 L 748.193,353.722 C 748.334,354.296 748.593,354.707 748.972,354.957 L 748.956,354.957 C 749.323,355.174 749.763,355.281 750.272,355.281 L 760.102,355.281 C 760.665,355.281 761.153,355.151 761.565,354.891 C 761.933,354.653 762.118,354.371 762.118,354.046 L 762.118,352.421 C 762.118,352.117 761.933,351.847 761.565,351.608 C 761.131,351.327 760.639,351.186 760.086,351.186 L 754.854,351.186 L 754.854,349.187 L 760.102,349.187 C 760.676,349.187 761.165,349.052 761.565,348.781 C 761.933,348.544 762.118,348.266 762.118,347.953 L 762.118,346.328 C 762.118,346.024 761.933,345.753 761.565,345.515 C 761.131,345.233 760.639,345.092 760.086,345.092 L 750.272,345.092 C 749.773,345.092 749.339,345.2 748.971,345.417 L 748.988,345.417 C 748.598,345.645 748.333,346.056 748.192,346.652 L 746.192,346.652 C 746.387,345.417 746.864,344.517 747.623,343.954 C 748.338,343.38 749.221,343.094 750.272,343.094 L 760.102,343.094 C 761.197,343.094 762.128,343.397 762.897,344.003 C 763.71,344.643 764.116,345.417 764.116,346.327 C 764.116,347.118 764.085,347.838 764.019,348.487 C 763.997,348.812 763.889,349.111 763.694,349.382 C 763.607,349.501 763.506,349.625 763.393,349.756 C 763.28,349.886 763.141,350.027 762.979,350.178 C 763.293,350.471 763.532,350.741 763.694,350.991 C 763.878,351.295 763.987,351.587 764.019,351.869 C 764.086,352.509 764.117,353.234 764.117,354.047 z"
   id="path4627" />
	</g><g
     id="g4571"><rect
       x="632.56677"
       y="532.66412"
       width="80.894997"
       height="9.0150003"
       id="rect4097"
       style="fill:url(#linearGradient4529);fill-opacity:1" /><g
       style="fill:#000000;fill-opacity:1"
       id="g4545"
       transform="translate(13.547968,31.502942)">
			<text
   xml:space="preserve"
   style="font-weight:bold;font-size:4.35747px;font-family:MicroMieps;-inkscape-font-specification:'MicroMieps Bold';text-align:end;text-anchor:end;fill-rule:evenodd;stroke-width:17.5806;paint-order:markers fill stroke"
   x="890.71283"
   y="545.16174"
   id="text399"
   transform="matrix(1.0111693,0,-0.36803552,0.98895409,-13.547968,-31.502942)"><tspan
     sodipodi:role="line"
     id="tspan397"
     x="890.71283"
     y="545.16174"
     style="stroke-width:17.5806">Free Software</tspan></text>
		</g><g
       style="fill:#ffffff;fill-opacity:1"
       id="g4099"
       transform="translate(13.369724,31.384113)">
			<text
   xml:space="preserve"
   style="font-weight:bold;font-size:4.26863px;font-family:MicroMieps;-inkscape-font-specification:'MicroMieps Bold';text-align:end;text-anchor:end;fill:white;fill-opacity:1;fill-rule:evenodd;stroke-width:17.2222;paint-order:markers fill stroke"
   x="878.68237"
   y="558.3927"
   id="text389"
   transform="matrix(1.0364523,0,-0.3772378,0.9648297,-13.369724,-31.384113)"><tspan
     sodipodi:role="line"
     id="tspan387"
     x="878.68237"
     y="558.3927"
     style="fill:white;fill-opacity:1;stroke-width:17.2222">Free Software</tspan></text>
		</g><g
       id="g4531"
       transform="matrix(0.978896,0,0,1,298.8046,310.1234)"><g
         id="g4539"
         transform="matrix(0.5619245,0,0,0.6651387,175.49918,79.003973)"><path
           sodipodi:type="inkscape:offset"
           inkscape:radius="-0.941535"
           inkscape:original="M 76.9375 318.0625 L 76.9375 322.5 C 93.103607 326.0298 115.45019 328.1875 140.125 328.1875 C 160.26114 328.1875 178.83943 326.76607 193.78125 324.3125 L 193.78125 318.0625 L 76.9375 318.0625 z "
           style="opacity:0.34883722;fill:#ffffff;fill-opacity:1;filter:url(#filter3676)"
           id="path4533"
           d="M 77.875,319 L 77.875,321.71875 C 93.887997,325.13909 115.85526,327.25 140.125,327.25 C 159.88372,327.25 178.09556,325.86881 192.84375,323.5 L 192.84375,319 L 77.875,319 z"
           transform="matrix(-1.265412,0,0,-0.4576597,539.25901,374.66724)" /><path
           sodipodi:type="inkscape:offset"
           inkscape:radius="-0.941535"
           inkscape:original="M 76.9375 318.0625 L 76.9375 322.5 C 93.103607 326.0298 115.45019 328.1875 140.125 328.1875 C 160.26114 328.1875 178.83943 326.76607 193.78125 324.3125 L 193.78125 318.0625 L 76.9375 318.0625 z "
           style="opacity:0.70542632;fill:url(#linearGradient4543);fill-opacity:1"
           id="path4535"
           d="M 77.875,319 L 77.875,321.71875 C 93.887997,325.13909 115.85526,327.25 140.125,327.25 C 159.88372,327.25 178.09556,325.86881 192.84375,323.5 L 192.84375,319 L 77.875,319 z"
           transform="matrix(1.265412,0,0,1,196.68825,-102.57618)" /></g></g><g
       id="g4083"
       transform="translate(13.369724,31.384113)">
		<text
   xml:space="preserve"
   style="font-weight:bold;font-size:12.3881px;font-family:MicroMieps;-inkscape-font-specification:'MicroMieps Bold';text-align:end;text-anchor:end;display:inline;fill:black;fill-opacity:1;fill-rule:evenodd;stroke-width:49.9809;paint-order:markers fill stroke"
   x="689.93262"
   y="471.6825"
   id="text1241"
   transform="scale(1.0046637,0.99535796)"><tspan
     sodipodi:role="line"
     id="tspan1239"
     x="689.93262"
     y="471.6825"
     style="stroke-width:49.9809">GPL</tspan></text>
	</g><g
       id="g4091"
       transform="translate(13.369724,31.384113)"
       style="fill:url(#linearGradient4461);fill-opacity:1">
		<path
   style="fill:url(#linearGradient4461);fill-opacity:1"
   id="path4093"
   d="M 743.638,439.604 L 763.092,439.604 L 733.124,490.104 C 731.412,492.918 729.742,495.084 728.115,496.602 C 726.486,498.121 724.982,499.224 723.603,499.914 C 722.223,500.604 721.037,501.005 720.043,501.114 C 719.05,501.225 718.358,501.28 717.974,501.28 L 700.091,501.28 L 700.091,457.652 L 716.815,457.652 L 716.898,487.62 L 743.638,439.604 z" />
	</g><g
       id="g4125"
       transform="translate(13.369724,31.384113)">
		<text
   xml:space="preserve"
   style="font-weight:bold;font-size:16.2504px;font-family:MicroMieps;-inkscape-font-specification:'MicroMieps Bold';text-align:end;text-anchor:end;display:inline;fill:white;fill-rule:evenodd;stroke-width:65.5639;paint-order:markers fill stroke"
   x="766.10107"
   y="501.3017"
   id="text403"
   transform="scale(1.0000433,0.99995674)"><tspan
     sodipodi:role="line"
     id="tspan401"
     x="766.10107"
     y="501.3017"
     style="fill:black;fill-opacity:1;stroke-width:65.5639">3</tspan></text>
	</g><g
       id="g4129"
       transform="translate(13.369724,31.384113)">
	<text
   xml:space="preserve"
   style="font-weight:bold;font-size:12.3051px;font-family:MicroMieps;-inkscape-font-specification:'MicroMieps Bold';text-align:end;text-anchor:end;fill:black;fill-opacity:1;fill-rule:evenodd;stroke-width:49.6457;paint-order:markers fill stroke"
   x="693.14325"
   y="483.35217"
   id="text1247"
   transform="scale(0.99997353,1.0000265)"><tspan
     sodipodi:role="line"
     id="tspan1245"
     x="693.14325"
     y="483.35217"
     style="stroke-width:49.6457">AGPL</tspan></text>
	</g><g
       id="g4139"
       transform="translate(13.369724,31.384113)">
		<text
   xml:space="preserve"
   style="font-weight:bold;font-size:11.8924px;font-family:MicroMieps;-inkscape-font-specification:'MicroMieps Bold';text-align:end;text-anchor:end;display:inline;fill:black;fill-opacity:1;fill-rule:evenodd;stroke-width:47.9812;paint-order:markers fill stroke"
   x="670.9118"
   y="513.35126"
   id="text1253"
   transform="scale(1.0331037,0.96795706)"><tspan
     sodipodi:role="line"
     id="tspan1251"
     x="670.9118"
     y="513.35126"
     style="stroke-width:47.9812">LGPL</tspan></text>
	</g><g
       id="g4479"
       transform="translate(516.94238,316.29646)"><path
         id="path4481"
         d="M 240.71946,155.66132 L 218.34446,195.81757 C 224.31015,194.5829 230.60959,192.94653 236.81321,190.81757 L 257.68821,155.66132 L 240.71946,155.66132 z M 197.59446,173.72382 L 197.59446,198.91132 C 201.82035,198.4988 206.76846,197.88729 212.25071,196.94257 L 212.18821,173.72382 L 197.59446,173.72382 z"
         style="fill:url(#linearGradient4485);fill-opacity:1" /><path
         id="path4483"
         d="M 228.37571,204.91132 C 223.8493,207.89087 217.4158,209.78632 210.28196,209.78632 C 205.60859,209.78632 201.26498,208.95653 197.53196,207.56757 L 197.53196,215.28632 L 214.40696,215.28632 C 214.65785,215.28634 215.35148,215.20982 216.34446,215.09882 C 217.16845,215.00765 218.25613,214.65954 219.56321,214.00507 C 219.57363,214.00493 219.58404,214.00491 219.59446,214.00507 C 220.84816,213.37915 222.2628,212.3236 223.84446,210.84882 C 225.30204,209.48976 226.84734,207.5048 228.43821,204.94257 C 228.41691,204.93608 228.39706,204.91777 228.37571,204.91132 z"
         style="opacity:0.65116278;fill:#ffffff;fill-opacity:1;fill-rule:nonzero;stroke-width:1;stroke-linecap:butt;stroke-linejoin:miter;marker:none;marker-start:none;marker-mid:none;marker-end:none;stroke-miterlimit:4;stroke-dasharray:none;stroke-dashoffset:0;stroke-opacity:1;visibility:visible;display:inline;overflow:visible;filter:url(#filter3797);enable-background:accumulate" /></g></g></g></svg>
