<?xml version="1.0" encoding="UTF-8" standalone="no"?>
<!-- Created with Inkscape (http://www.inkscape.org/) -->
<svg
   xmlns:dc="http://purl.org/dc/elements/1.1/"
   xmlns:cc="http://web.resource.org/cc/"
   xmlns:rdf="http://www.w3.org/1999/02/22-rdf-syntax-ns#"
   xmlns:svg="http://www.w3.org/2000/svg"
   xmlns="http://www.w3.org/2000/svg"
   xmlns:sodipodi="http://sodipodi.sourceforge.net/DTD/sodipodi-0.dtd"
   xmlns:inkscape="http://www.inkscape.org/namespaces/inkscape"
   width="1620"
   height="1080"
   id="svg1341"
   sodipodi:version="0.32"
   inkscape:version="0.45.1"
   sodipodi:docname="agpl-logo2.svg"
   inkscape:output_extension="org.inkscape.output.svg.inkscape"
   version="1.0">
  <sodipodi:namedview
     id="base"
     pagecolor="#ffffff"
     bordercolor="#666666"
     borderopacity="1.0"
     inkscape:pageopacity="0.0"
     inkscape:pageshadow="2"
     inkscape:zoom="0.5054504"
     inkscape:cx="897.55388"
     inkscape:cy="461.72056"
     inkscape:document-units="px"
     inkscape:current-layer="g2803"
     inkscape:window-width="1278"
     inkscape:window-height="971"
     inkscape:window-x="0"
     inkscape:window-y="27"
     showguides="true"
     inkscape:guide-bbox="true"
     width="18in"
     height="12in"
     units="in"
     showborder="true">
  </sodipodi:namedview>

  <defs>
     <mask id="free-software-text-mask" x="0" y="0" width="100%" height="100%">
        <rect width="100%" height="100%" fill="white" />

        <text
           xml:space="preserve"
           style="font-style:italic;font-weight:bold;font-size:18.2618px;font-family:Swansea;-inkscape-font-specification:'Swansea Bold Italic';text-align:end;text-anchor:end;display:inline;fill:black;fill-rule:evenodd;stroke-width:0.938538;paint-order:markers fill stroke"
           x="202.05797"
           y="772.81012"
           id="text295"><tspan
             sodipodi:role="line"
             id="tspan293"
             x="202.05797"
             y="772.81012"
             style="stroke-width:0.938538">Free Software</tspan></text>
     </mask>
  </defs>

  <metadata
     id="metadata1346">
    <rdf:RDF>
      <cc:Work
         rdf:about="">
        <dc:format>image/svg+xml</dc:format>
        <dc:type
           rdf:resource="http://purl.org/dc/dcmitype/StillImage" />
      </cc:Work>
    </rdf:RDF>
  </metadata>
  <g
     inkscape:label="Layer 1"
     id="layer1"
     inkscape:groupmode="layer">
    <g
       id="g2875"
       transform="matrix(0.7699756,0,0,0.7699756,955.70653,26.833869)">
      <g
         transform="matrix(0.385154,0,0,0.385154,330.53849,1073.2023)"
         id="g2881"
         style="fill:#663366;fill-opacity:1">
        <text
           xml:space="preserve"
           style="font-style:italic;font-weight:bold;font-size:26.7029px;font-family:'Myriad Hebrew';-inkscape-font-specification:'Myriad Hebrew Bold Italic';text-align:end;text-anchor:end;fill-rule:evenodd;stroke-width:107.736;paint-order:markers fill stroke"
           x="1196.408"
           y="654.89459"
           id="text219"
           transform="matrix(3.3720082,0,0,3.3720082,-4080.8485,-2876.9079)"><tspan
             sodipodi:role="line"
             id="tspan217"
             x="1196.408"
             y="654.89459"
             style="font-style:italic;font-variant:normal;font-weight:bold;font-stretch:normal;font-family:'Myriad Pro';-inkscape-font-specification:'Myriad Pro Bold Italic';stroke-width:107.736">Free as in Freedom</tspan></text>
      </g>
      <path
         id="path2943"
         sodipodi:nodetypes="cccccssccccscccsccc"
         d="M 242.27371,772.00406 C 242.54037,772.68943 242.80691,773.37376 243.08464,774.04303 C 243.51237,774.95236 244.00664,775.82277 244.60103,776.6353 C 247.81154,780.99943 253.18819,783.38896 260.01456,783.98392 C 260.01456,783.98392 267.35758,783.98392 267.35758,783.98392 C 269.67931,783.80276 272.11222,783.4651 274.63394,782.97185 C 278.983,782.12142 283.59323,780.81507 288.3812,779.06924 C 292.00825,777.74679 295.7353,776.18212 299.51782,774.36357 C 307.75511,770.41484 316.26453,765.32209 324.61288,759.17606 C 327.36234,757.15364 330.0006,755.07848 332.53351,752.96839 C 334.85524,751.0366 337.08256,749.07468 339.21,747.09119 C 345.14759,741.369 349.63009,735.55743 352.16848,730.45452 C 354.81234,725.14054 355.34006,720.59708 353.17381,717.73485 C 351.84634,715.97795 349.6245,715.03642 346.76398,714.81486 C 359.65031,705.14566 367.15988,693.41636 364.46602,686.02117 C 363.61057,683.66109 361.72764,681.90031 359.02818,680.92659 C 357.82845,680.4951 356.47872,680.22171 355.00674,680.09728 C 355.00674,680.09728 351.04089,680.09728 351.04089,680.09728 C 345.50317,680.4967 337.45013,682.47962 330.61816,685.8278"
         style="fill:#ffffff;fill-opacity:0;fill-rule:evenodd;stroke:#663266;stroke-width:3.28386545;stroke-linecap:butt;stroke-linejoin:miter;stroke-miterlimit:4;stroke-opacity:1" />
      <path
         d="m 62.777261,682.66638 -22.84339,99.66531 h 60.104559 105.67884 54.96371 c -6.54796,-0.57145 -11.71765,-2.87011 -14.79791,-7.06027 -0.57133,-0.77509 -1.04346,-1.60999 -1.45715,-2.48348 -0.26277,-0.64359 -0.5098,-1.293 -0.75945,-1.94971 -0.65682,-2.08863 -0.91869,-4.40613 -0.80043,-6.87568 0.32842,-6.883 3.5581,-15.07028 9.15381,-23.64386 5.94375,-9.11134 14.55819,-18.66102 25.22417,-27.52283 2.39067,-1.98475 4.86262,-3.94473 7.45021,-5.84947 3.19852,-2.35311 6.4217,-4.52039 9.64637,-6.54715 11.881,-7.48001 23.73254,-12.71397 34.23437,-15.37255 -10.03552,3.27397 -21.3098,8.83212 -32.4487,16.39877 -0.40067,0.27054 -0.79632,0.5477 -1.19049,0.82098 -6.18016,4.28216 -11.77917,8.82996 -16.66554,13.42273 -15.72323,14.78398 -24.0338,30.10322 -20.25732,39.07804 0.26928,0.61733 0.59027,1.20681 0.96458,1.76513 4.05888,5.97 14.11814,7.00193 26.86612,3.7969 0.86698,-0.21666 1.73396,-0.4622 2.62708,-0.71835 4.07201,-1.17554 8.39527,-2.76338 12.8482,-4.72051 1.07052,-0.47293 2.15256,-0.95887 3.24282,-1.4778 0.11164,-0.0525 0.21666,-0.10502 0.3283,-0.16415 14.05501,-6.98345 24.85648,-15.01891 27.19453,-19.84684 0.51232,-1.05019 0.63548,-1.94559 0.28732,-2.64763 -1.66821,-3.38242 -13.34145,-1.09733 -27.48185,5.02838 -1.13615,0.49267 -2.28554,0.99951 -3.44806,1.53933 0.94574,-0.87805 1.93019,-1.75953 2.93495,-2.62708 1.60257,-1.38055 3.26176,-2.73051 5.02848,-4.0638 2.76498,-2.09376 5.56032,-3.98662 8.31229,-5.66465 12.88587,-9.72159 19.40027,-18.91764 18.04072,-22.33031 -0.25615,-0.64301 -0.80122,-1.08524 -1.64195,-1.35464 -2.68621,-0.85442 -7.58902,0.16541 -13.5459,2.60665 -4.91274,2.01501 -10.55524,5.00338 -16.27572,8.72277 l -0.77988,0.51312 -0.14372,0.0821 -2.75013,1.82665 1.58031,-2.89385 c 2.34467,-4.2921 6.16384,-8.77026 10.91882,-12.93028 3.48744,-3.04157 7.47167,-5.90734 11.76034,-8.41491 1.6222,-0.94974 3.24201,-1.83178 4.86422,-2.62708 1.6617,-0.81184 3.32409,-1.53328 4.9463,-2.17561 4.71308,-1.86387 9.89054,-4.21767 13.81404,-4.52565 -0.3573,0 -11.69996,1.22131 -11.69996,1.22131 h -37.14877 -163.80326 z m 177.933719,0.14371 c -0.64359,9.82331 1.26103,24.21153 5.58258,40.18623 0.76846,2.84249 1.60497,5.73531 2.52446,8.66124 0.57144,1.80679 1.16092,3.58527 1.76512,5.33624 -0.35467,0.52145 -0.71173,1.03969 -1.04677,1.55988 -5.39206,8.26343 -8.54378,16.07287 -9.3385,22.86386 -2.27904,-7.63171 -3.99473,-15.99091 -4.96685,-24.85477 -0.27579,-2.53965 -0.49165,-5.05098 -0.63616,-7.53229 -1.06401,-18.02383 1.28888,-34.36245 6.11612,-46.22039 z m -107.60809,12.78645 c 0.12294,-0.003 0.24417,0 0.3694,0 h 24.28013 c 2.07539,0 3.68036,0.38903 4.82313,1.16994 1.13615,0.78548 1.56228,1.80154 1.29299,3.03757 l -2.89385,13.07388 h -8.55862 l 2.81178,-12.72492 h -21.42715 l -7.73764,34.97305 -2.79135,12.6635 h 21.40671 l 0.0206,-0.0821 4.28958,-19.37493 h -10.05685 l 0.96469,-4.37155 c 0,-1.1e-4 18.61537,0 18.61537,0 0,-1.1e-4 -5.33624,24.1774 -5.33624,24.1774 -0.0723,0.34417 -0.19874,0.65592 -0.36951,0.9647 -0.44006,0.80122 -1.20761,1.4875 -2.27812,2.05244 -1.48431,0.78148 -3.26085,1.16982 -5.33636,1.16982 h -24.25947 c -2.07539,0 -3.68036,-0.38834 -4.82324,-1.16982 -1.13615,-0.7816 -1.56884,-1.77974 -1.29299,-3.01714 l 10.69314,-48.33436 c 0.27579,-1.23603 1.13615,-2.25209 2.62696,-3.03757 0.0526,-0.0283 0.11176,-0.0347 0.16427,-0.0615 1.3608,-0.6816 2.95778,-1.0648 4.80269,-1.10841 z m 38.05183,0 h 30.5604 c 2.04913,0 3.65981,0.38903 4.8027,1.16994 1.14927,0.78548 1.58933,1.80154 1.31354,3.03757 l -5.70575,25.77837 c -0.26928,1.22816 -1.15019,2.23018 -2.64763,3.01703 -1.49744,0.78947 -3.26005,1.19037 -5.31581,1.19037 h -22.20714 l -4.28947,19.35427 -0.69781,3.18128 h -8.37392 l 0.63628,-2.87342 z m 42.21812,0 h 8.37381 l -9.48211,42.83397 -2.07299,9.35905 h 20.03165 c 0.21015,1.53614 0.45557,3.045 0.71835,4.53581 h -30.12948 l 2.38074,-10.75466 z m -34.84999,4.55647 -5.56214,25.08045 h 20.87316 l 5.54149,-25.08045 z m -122.072869,51.89185 55.082599,-56.87199 h 8.99518 l -13.2998,56.87199 h -7.398629 l 3.776339,-16.37106 h -23.091518 l -15.692032,16.37106 h -8.372139 m 29.675679,-22.22896 h 18.88598 l 3.48449,-14.27618 c 1.40629,-5.66388 2.75996,-10.38381 4.06102,-14.1598 -2.60007,3.25873 -6.04001,7.1252 -10.31982,11.59939 l -16.11167,16.83659"
         style="fill:#663366;fill-opacity:1;fill-rule:evenodd;stroke:none;stroke-width:1pt;stroke-linecap:butt;stroke-linejoin:miter;stroke-opacity:1"
         mask="url(#free-software-text-mask)"
         sodipodi:nodetypes="cccccccccccccccccccccccccccccccscccccccccccccccccccccccccssscccccccccccccccccsscccccscsscccsccccccccccccccccccccccccccccccccccc"
         id="path2945" />
    </g>
  </g>
</svg>
