<?xml version="1.0" encoding="UTF-8" standalone="no"?>
<!-- Generator: Adobe Illustrator 14.0.0, SVG Export Plug-In . SVG Version: 6.00 Build 43363)  -->

<svg
   xmlns:dc="http://purl.org/dc/elements/1.1/"
   xmlns:cc="http://creativecommons.org/ns#"
   xmlns:rdf="http://www.w3.org/1999/02/22-rdf-syntax-ns#"
   xmlns:svg="http://www.w3.org/2000/svg"
   xmlns="http://www.w3.org/2000/svg"
   xmlns:xlink="http://www.w3.org/1999/xlink"
   xmlns:sodipodi="http://sodipodi.sourceforge.net/DTD/sodipodi-0.dtd"
   xmlns:inkscape="http://www.inkscape.org/namespaces/inkscape"
   version="1.1"
   id="Capa_1"
   x="0px"
   y="0px"
   width="841.89px"
   height="595.28px"
   viewBox="0 0 841.89 595.28"
   enable-background="new 0 0 841.89 595.28"
   xml:space="preserve"
   inkscape:version="0.48.2 r9819"
   sodipodi:docname="Licencias.svg"
   sodipodi:version="0.32"
   inkscape:output_extension="org.inkscape.output.svg.inkscape"><metadata
   id="metadata507"><rdf:RDF><cc:Work
       rdf:about=""><dc:format>image/svg+xml</dc:format><dc:type
         rdf:resource="http://purl.org/dc/dcmitype/StillImage" /><dc:title></dc:title><cc:license
         rdf:resource="http://creativecommons.org/licenses/by/3.0/" /></cc:Work><cc:License
       rdf:about="http://creativecommons.org/licenses/by/3.0/"><cc:permits
         rdf:resource="http://creativecommons.org/ns#Reproduction" /><cc:permits
         rdf:resource="http://creativecommons.org/ns#Distribution" /><cc:requires
         rdf:resource="http://creativecommons.org/ns#Notice" /><cc:requires
         rdf:resource="http://creativecommons.org/ns#Attribution" /><cc:permits
         rdf:resource="http://creativecommons.org/ns#DerivativeWorks" /></cc:License></rdf:RDF></metadata><defs
   id="defs505"><linearGradient
   id="linearGradient4471"><stop
     style="stop-color:#696a6b;stop-opacity:1;"
     offset="0"
     id="stop4473" /><stop
     style="stop-color:#9b9c9e;stop-opacity:1;"
     offset="1"
     id="stop4475" /></linearGradient><linearGradient
   id="linearGradient4455"><stop
     style="stop-color:#696a6b;stop-opacity:1;"
     offset="0"
     id="stop4457" /><stop
     style="stop-color:#9b9c9e;stop-opacity:1;"
     offset="1"
     id="stop4459" /></linearGradient><linearGradient
   id="linearGradient4260"><stop
     style="stop-color:#911d21;stop-opacity:1;"
     offset="0"
     id="stop4262" /><stop
     style="stop-color:#c4282d;stop-opacity:1;"
     offset="1"
     id="stop4264" /></linearGradient><linearGradient
   id="linearGradient4235"><stop
     style="stop-color:#592350;stop-opacity:1;"
     offset="0"
     id="stop4237" /><stop
     style="stop-color:#742e68;stop-opacity:1;"
     offset="1"
     id="stop4239" /></linearGradient><linearGradient
   id="linearGradient4197"><stop
     style="stop-color:#16813d;stop-opacity:1;"
     offset="0"
     id="stop4199" /><stop
     style="stop-color:#0d4f25;stop-opacity:1;"
     offset="1"
     id="stop4201" /></linearGradient><linearGradient
   id="linearGradient3598"><stop
     style="stop-color:#742e68;stop-opacity:1;"
     offset="0"
     id="stop3600" /><stop
     style="stop-color:#481c40;stop-opacity:1;"
     offset="1"
     id="stop3602" /></linearGradient><linearGradient
   inkscape:collect="always"
   id="linearGradient3632"><stop
     style="stop-color:#ffffff;stop-opacity:1;"
     offset="0"
     id="stop3634" /><stop
     style="stop-color:#ffffff;stop-opacity:0;"
     offset="1"
     id="stop3636" /></linearGradient><linearGradient
   inkscape:collect="always"
   id="linearGradient3584"><stop
     style="stop-color:#ffffff;stop-opacity:1;"
     offset="0"
     id="stop3586" /><stop
     style="stop-color:#ffffff;stop-opacity:0;"
     offset="1"
     id="stop3588" /></linearGradient><linearGradient
   inkscape:collect="always"
   id="linearGradient3542"><stop
     style="stop-color:#ffffff;stop-opacity:1;"
     offset="0"
     id="stop3544" /><stop
     style="stop-color:#ffffff;stop-opacity:0;"
     offset="1"
     id="stop3546" /></linearGradient><linearGradient
   id="linearGradient3536"><stop
     style="stop-color:#ffffff;stop-opacity:1"
     offset="0"
     id="stop3538" /><stop
     style="stop-color:#ffffff;stop-opacity:0"
     offset="1"
     id="stop3540" /></linearGradient><linearGradient
   id="linearGradient3530"><stop
     style="stop-color:#ffffff;stop-opacity:1"
     offset="0"
     id="stop3532" /><stop
     style="stop-color:#7f1a1d;stop-opacity:1;"
     offset="1"
     id="stop3534" /></linearGradient><linearGradient
   id="linearGradient3483"><stop
     id="stop3485"
     offset="0"
     style="stop-color:#c4282d;stop-opacity:1;" /><stop
     id="stop3487"
     offset="1"
     style="stop-color:#7f1a1d;stop-opacity:1;" /></linearGradient><linearGradient
   id="linearGradient3467"><stop
     style="stop-color:#000000;stop-opacity:1;"
     offset="0"
     id="stop3469" /><stop
     style="stop-color:#000000;stop-opacity:0;"
     offset="1"
     id="stop3471" /></linearGradient>
	
	
	
	
<linearGradient
   inkscape:collect="always"
   xlink:href="#linearGradient3483"
   id="linearGradient3481"
   x1="193.67853"
   y1="227.42769"
   x2="192.737"
   y2="164.42589"
   gradientUnits="userSpaceOnUse" /><linearGradient
   inkscape:collect="always"
   xlink:href="#linearGradient3542"
   id="linearGradient3548"
   x1="223.70312"
   y1="167.78789"
   x2="223.70312"
   y2="224.78125"
   gradientUnits="userSpaceOnUse" />
		
		
	<linearGradient
   inkscape:collect="always"
   xlink:href="#linearGradient3584"
   id="linearGradient3590"
   x1="234.03793"
   y1="165.15395"
   x2="234.35178"
   y2="210.66147"
   gradientUnits="userSpaceOnUse" />
		
	<filter
   inkscape:collect="always"
   id="filter3676"
   x="-0.041724954"
   width="1.0834499"
   y="-0.58146253"
   height="2.1629251"><feGaussianBlur
     inkscape:collect="always"
     stdDeviation="1.9987774"
     id="feGaussianBlur3678" /></filter>
		
	<filter
   inkscape:collect="always"
   id="filter3797"
   x="-0.16028311"
   width="1.3205662"
   y="-0.47746988"
   height="1.9549398"><feGaussianBlur
     inkscape:collect="always"
     stdDeviation="2.0640625"
     id="feGaussianBlur3799" /></filter><linearGradient
   inkscape:collect="always"
   xlink:href="#linearGradient3483"
   id="linearGradient3947"
   gradientUnits="userSpaceOnUse"
   x1="193.67853"
   y1="227.42769"
   x2="192.737"
   y2="164.42589" /><filter
   inkscape:collect="always"
   id="filter4003"
   x="-0.024206416"
   width="1.0484128"
   y="-0.10283295"
   height="1.2056659"><feGaussianBlur
     inkscape:collect="always"
     stdDeviation="0.99465172"
     id="feGaussianBlur4005" /></filter>
	
	
	
	

		
	
		
		
		
	
		
		
		
		
		
		
		
		
		
		
		
		
	
		
	
	
	
	
	

		
	
		
		
	
		
	
		
		
		
		
	<linearGradient
   inkscape:collect="always"
   xlink:href="#linearGradient3598"
   id="linearGradient3620"
   x1="473.95499"
   y1="225.58197"
   x2="473.95499"
   y2="164.577"
   gradientUnits="userSpaceOnUse" /><linearGradient
   inkscape:collect="always"
   xlink:href="#linearGradient3483"
   id="linearGradient3883"
   gradientUnits="userSpaceOnUse"
   gradientTransform="translate(2.7507074,-101.77618)"
   x1="138.40564"
   y1="330.10239"
   x2="138.40564"
   y2="319.71936" /><linearGradient
   inkscape:collect="always"
   xlink:href="#linearGradient3598"
   id="linearGradient3891"
   gradientUnits="userSpaceOnUse"
   x1="473.95499"
   y1="225.58197"
   x2="473.95499"
   y2="164.577" /><linearGradient
   inkscape:collect="always"
   xlink:href="#linearGradient3598"
   id="linearGradient4003"
   gradientUnits="userSpaceOnUse"
   x1="473.95499"
   y1="225.58197"
   x2="473.95499"
   y2="164.577" /><linearGradient
   inkscape:collect="always"
   xlink:href="#linearGradient3598"
   id="linearGradient4005"
   gradientUnits="userSpaceOnUse"
   x1="473.95499"
   y1="225.58197"
   x2="473.95499"
   y2="164.577" /><linearGradient
   inkscape:collect="always"
   xlink:href="#linearGradient3632"
   id="linearGradient4009"
   gradientUnits="userSpaceOnUse"
   x1="137.46411"
   y1="317.84103"
   x2="137.46411"
   y2="324.8385" /><linearGradient
   inkscape:collect="always"
   xlink:href="#linearGradient3584"
   id="linearGradient4011"
   gradientUnits="userSpaceOnUse"
   gradientTransform="translate(3.7826799,-9.9750279)"
   x1="234.03793"
   y1="165.15395"
   x2="233.72409"
   y2="209.09224" /><linearGradient
   inkscape:collect="always"
   xlink:href="#linearGradient3598"
   id="linearGradient2938"
   gradientUnits="userSpaceOnUse"
   gradientTransform="translate(16.564834,16.038773)"
   x1="365.68323"
   y1="228.72025"
   x2="365.68323"
   y2="216.25424" />
	
	
	
	
	
<linearGradient
   inkscape:collect="always"
   xlink:href="#linearGradient3598"
   id="linearGradient4311"
   gradientUnits="userSpaceOnUse"
   x1="473.95499"
   y1="225.58197"
   x2="473.95499"
   y2="164.577" /><linearGradient
   inkscape:collect="always"
   xlink:href="#linearGradient3598"
   id="linearGradient4352"
   gradientUnits="userSpaceOnUse"
   gradientTransform="translate(16.564834,16.038773)"
   x1="365.68323"
   y1="228.72025"
   x2="365.68323"
   y2="216.25424" />
	
	
	
	
	
	
<linearGradient
   inkscape:collect="always"
   xlink:href="#linearGradient4471"
   id="linearGradient4477"
   x1="664.09625"
   y1="501.10046"
   x2="664.09625"
   y2="510.29501"
   gradientUnits="userSpaceOnUse" /><linearGradient
   inkscape:collect="always"
   xlink:href="#linearGradient4471"
   id="linearGradient4513"
   gradientUnits="userSpaceOnUse"
   x1="664.09625"
   y1="501.10046"
   x2="664.09625"
   y2="510.29501" />
		
		
	</defs><sodipodi:namedview
   pagecolor="#ffffff"
   bordercolor="#666666"
   borderopacity="1"
   objecttolerance="10"
   gridtolerance="10"
   guidetolerance="10"
   inkscape:pageopacity="0"
   inkscape:pageshadow="2"
   inkscape:window-width="1280"
   inkscape:window-height="746"
   id="namedview503"
   showgrid="false"
   inkscape:zoom="0.90545621"
   inkscape:cx="420.94501"
   inkscape:cy="443.33958"
   inkscape:window-x="0"
   inkscape:window-y="0"
   inkscape:window-maximized="1"
   inkscape:current-layer="Capa_1"
   showguides="true"
   inkscape:guide-bbox="true" />

















<g
   id="g4934"><rect
     style="fill:url(#linearGradient4352);fill-opacity:1"
     id="rect4084"
     height="14.173"
     width="147.772"
     y="231.41412"
     x="310.60583" /><g
     id="g4840"><g
       id="g3670"
       transform="translate(18.564834,18.038773)"
       style="fill:#999999;fill-opacity:1;fill-rule:nonzero;stroke-width:1;stroke-linecap:butt;stroke-linejoin:miter;marker:none;marker-start:none;marker-mid:none;marker-end:none;stroke-miterlimit:4;stroke-dasharray:none;stroke-dashoffset:0;stroke-opacity:1;visibility:visible;display:inline;overflow:visible;filter:url(#filter4003);enable-background:accumulate"><path
         id="path3672"
         d="M 329.34401,206.37535 L 326.37601,201.63135 L 309.23001,201.63135 L 306.20901,206.37535 L 302.44501,206.37535 C 303.62901,204.45035 304.83501,202.49735 306.06201,200.51935 C 307.29101,198.54035 308.49601,196.59735 309.67901,194.68935 C 310.86301,192.78135 312.01201,190.93535 313.12401,189.15035 C 314.23701,187.36535 315.28801,185.68735 316.27801,184.11435 C 316.56001,183.51335 317.05501,183.21335 317.76201,183.21335 C 318.41401,183.21335 318.90101,183.51335 319.21901,184.11435 L 333.13101,206.37535 L 329.34401,206.37535 z M 311.27001,198.34535 L 324.28301,198.34535 L 318.32001,188.77835 C 318.12601,188.46035 317.94901,188.30135 317.79001,188.30135 C 317.61301,188.30135 317.43601,188.46035 317.26101,188.77835 L 311.27001,198.34535 z"
         style="fill:#999999;fill-opacity:1;fill-rule:nonzero;stroke-width:1;stroke-linecap:butt;stroke-linejoin:miter;marker:none;marker-start:none;marker-mid:none;marker-end:none;stroke-miterlimit:4;stroke-dasharray:none;stroke-dashoffset:0;stroke-opacity:1;visibility:visible;display:inline;overflow:visible;filter:url(#filter4003);enable-background:accumulate" /><path
         id="path3674"
         d="M 362.78701,204.86535 C 361.51601,205.87235 359.97801,206.37535 358.17601,206.37535 L 342.17001,206.37535 C 340.35001,206.37535 338.83001,205.88035 337.61101,204.89135 C 336.30301,203.86735 335.65001,202.60335 335.65001,201.10135 L 335.65001,188.48635 C 335.65001,187.02035 336.30301,185.76635 337.61101,184.72335 C 338.88301,183.71635 340.42101,183.21335 342.22201,183.21335 L 358.25501,183.21335 C 359.93301,183.21335 361.35601,183.68135 362.52201,184.61835 C 363.74201,185.55535 364.52701,187.03035 364.88001,189.04335 L 361.62001,189.04335 C 361.39101,188.07135 360.95801,187.39135 360.32201,187.00235 C 359.77401,186.66735 359.07601,186.49935 358.22701,186.49935 L 342.22101,186.49935 C 341.26701,186.49935 340.45401,186.72035 339.78301,187.16235 C 339.19901,187.53335 338.90801,187.97535 338.90801,188.48735 L 338.90801,201.10235 C 338.90801,201.63235 339.19901,202.09235 339.78301,202.48035 L 339.75601,202.45435 C 340.41001,202.89535 341.21401,203.11635 342.16801,203.11635 L 358.17401,203.11635 C 359.00401,203.11635 359.74601,202.94035 360.40101,202.58635 C 361.17801,202.21535 361.56701,201.71135 361.56701,201.07535 L 361.56701,196.43735 L 348.60801,196.43735 L 348.60801,193.17735 L 364.80001,193.17735 L 364.80001,201.10135 C 364.80201,202.56835 364.13001,203.82235 362.78701,204.86535 z"
         style="fill:#999999;fill-opacity:1;fill-rule:nonzero;stroke-width:1;stroke-linecap:butt;stroke-linejoin:miter;marker:none;marker-start:none;marker-mid:none;marker-end:none;stroke-miterlimit:4;stroke-dasharray:none;stroke-dashoffset:0;stroke-opacity:1;visibility:visible;display:inline;overflow:visible;filter:url(#filter4003);enable-background:accumulate" /><path
         id="path3676"
         d="M 397.00001,194.92735 C 395.78101,195.91735 394.25201,196.41135 392.41501,196.41135 L 373.09601,196.41135 L 373.09601,206.37535 L 369.83701,206.37535 L 369.83701,188.48735 C 369.83701,187.02135 370.49001,185.76735 371.79801,184.72435 C 373.07001,183.71735 374.60801,183.21435 376.40801,183.21435 L 392.41501,183.21435 C 394.19901,183.21435 395.71901,183.71735 396.97401,184.72435 C 398.29901,185.76735 398.96101,187.02135 398.96101,188.48735 L 398.96101,191.13735 C 398.96101,192.63935 398.30801,193.90235 397.00001,194.92735 z M 395.72901,188.48735 C 395.72901,187.99235 395.42801,187.55135 394.82701,187.16235 C 394.15601,186.72035 393.35201,186.49935 392.41601,186.49935 L 376.38401,186.49935 C 375.57101,186.49935 374.83701,186.66735 374.18501,187.00235 C 373.45901,187.33835 373.09701,187.83335 373.09701,188.48635 L 373.09701,193.15135 L 392.41601,193.15135 C 393.35301,193.15135 394.15601,192.93935 394.82701,192.51535 C 395.42901,192.12735 395.72901,191.66735 395.72901,191.13735 L 395.72901,188.48735 z"
         style="fill:#999999;fill-opacity:1;fill-rule:nonzero;stroke-width:1;stroke-linecap:butt;stroke-linejoin:miter;marker:none;marker-start:none;marker-mid:none;marker-end:none;stroke-miterlimit:4;stroke-dasharray:none;stroke-dashoffset:0;stroke-opacity:1;visibility:visible;display:inline;overflow:visible;filter:url(#filter4003);enable-background:accumulate" /><path
         id="path3678"
         d="M 433.12001,201.20735 C 432.85401,202.78035 432.11301,204.04335 430.89301,204.99735 C 429.70901,205.91635 428.27901,206.37535 426.60001,206.37535 L 410.56701,206.37535 C 408.76501,206.37535 407.23701,205.88035 405.98301,204.89135 C 404.65801,203.86735 403.99601,202.60335 403.99601,201.10135 L 403.99601,183.23935 L 407.30801,183.23935 L 407.30801,201.10135 C 407.30801,201.63135 407.60001,202.09135 408.18301,202.47935 L 408.15601,202.45335 C 408.81001,202.89435 409.61401,203.11535 410.56801,203.11535 L 426.60101,203.11535 C 427.41401,203.11535 428.12101,202.93935 428.72101,202.58535 L 428.69601,202.58535 C 429.33201,202.19635 429.76301,201.53435 429.99401,200.59835 L 432.59101,200.59835 L 433.12001,201.20735 z"
         style="fill:#999999;fill-opacity:1;fill-rule:nonzero;stroke-width:1;stroke-linecap:butt;stroke-linejoin:miter;marker:none;marker-start:none;marker-mid:none;marker-end:none;stroke-miterlimit:4;stroke-dasharray:none;stroke-dashoffset:0;stroke-opacity:1;visibility:visible;display:inline;overflow:visible;filter:url(#filter4003);enable-background:accumulate" /><path
         id="path3680"
         d="M 519.46101,201.07635 C 519.46101,202.58135 518.79701,203.84735 517.46901,204.87435 C 516.24801,205.86635 514.72501,206.36135 512.90101,206.36135 L 496.83301,206.36135 C 495.15101,206.36135 493.72601,205.90935 492.55801,205.00735 C 491.30001,204.03335 490.50301,202.54635 490.16701,200.54535 L 493.43501,200.54535 C 493.66401,201.48335 494.08901,202.15635 494.70901,202.56435 L 494.68301,202.56435 C 495.28501,202.91835 496.00101,203.09535 496.83301,203.09535 L 512.90101,203.09535 C 513.82201,203.09535 514.61901,202.88235 515.29201,202.45735 C 515.89401,202.06835 516.19501,201.60735 516.19501,201.07635 L 516.19501,198.42035 C 516.19501,197.92535 515.89301,197.48235 515.29201,197.09235 C 514.58401,196.63235 513.77801,196.40135 512.87601,196.40135 L 504.32301,196.40135 L 504.32301,193.13435 L 512.90101,193.13435 C 513.84001,193.13435 514.63701,192.91335 515.29201,192.47035 C 515.89401,192.08135 516.19501,191.62935 516.19501,191.11635 L 516.19501,188.46035 C 516.19501,187.96435 515.89301,187.52235 515.29201,187.13235 C 514.58401,186.67235 513.77801,186.44235 512.87601,186.44235 L 496.83301,186.44235 C 496.01901,186.44235 495.31101,186.61935 494.70901,186.97335 L 494.73501,186.97335 C 494.09801,187.34535 493.66401,188.01835 493.43401,188.99235 L 490.16601,188.99235 C 490.48401,186.97335 491.26401,185.50435 492.50401,184.58335 C 493.67201,183.64535 495.11501,183.17635 496.83201,183.17635 L 512.90001,183.17635 C 514.68901,183.17635 516.21201,183.67235 517.46801,184.66335 C 518.79601,185.70835 519.46001,186.97435 519.46001,188.46135 C 519.46001,189.75335 519.40701,190.93135 519.30101,191.99335 C 519.26501,192.52435 519.08901,193.01235 518.77001,193.45435 C 518.62801,193.64935 518.46401,193.85235 518.27901,194.06535 C 518.09401,194.27835 517.86701,194.50835 517.60101,194.75535 C 518.11501,195.23335 518.50401,195.67635 518.77001,196.08335 C 519.07101,196.57935 519.24801,197.05735 519.30101,197.51735 C 519.40801,198.56235 519.46101,199.74835 519.46101,201.07635 z"
         style="fill:#999999;fill-opacity:1;fill-rule:nonzero;stroke-width:1;stroke-linecap:butt;stroke-linejoin:miter;marker:none;marker-start:none;marker-mid:none;marker-end:none;stroke-miterlimit:4;stroke-dasharray:none;stroke-dashoffset:0;stroke-opacity:1;visibility:visible;display:inline;overflow:visible;filter:url(#filter4003);enable-background:accumulate" /></g><g
       id="g4078"
       transform="translate(18.701844,5.1611194)"
       style="fill:url(#linearGradient4311);fill-opacity:1">
			<path
   d="M 483.223,164.577 L 502.677,164.577 L 472.709,215.077 C 470.997,217.892 469.327,220.058 467.699,221.576 C 466.071,223.094 464.567,224.198 463.187,224.887 C 461.808,225.578 460.621,225.978 459.628,226.088 C 458.634,226.199 457.942,226.254 457.558,226.254 L 439.676,226.254 L 439.676,182.626 L 456.4,182.626 L 456.482,212.594 L 483.223,164.577 z"
   id="path4080"
   style="fill:url(#linearGradient4003);fill-opacity:1" />
		</g><g
       id="g3622"
       transform="translate(19.129604,5.4459484)"
       style="fill:#000000;fill-opacity:1">
			<text
   xml:space="preserve"
   style="font-weight:bold;font-size:6.76333px;font-family:MicroMieps;-inkscape-font-specification:'MicroMieps Bold';text-align:end;text-anchor:end;fill:white;fill-rule:evenodd;stroke-width:27.2873;paint-order:markers fill stroke"
   x="514.06439"
   y="241.67094"
   id="text386"
   transform="matrix(1,0,-0.36397023,1,-19.129604,-5.4459484)"><tspan
     sodipodi:role="line"
     id="tspan384"
     x="514.06439"
     y="241.67094"
     style="fill:#1a1a1a;stroke-width:27.2873">Free Software</tspan></text>
		</g><g
       id="g4086"
       transform="translate(18.701844,5.1611194)">
			<text
   xml:space="preserve"
   style="font-weight:bold;font-size:6.7911px;font-family:MicroMieps;-inkscape-font-specification:'MicroMieps Bold';text-align:end;text-anchor:end;fill-rule:evenodd;stroke-width:27.3994;paint-order:markers fill stroke;fill:white"
   x="513.87256"
   y="241.38612"
   id="text396"
   transform="matrix(1,0,-0.36397023,1,-18.701844,-5.1611194)"><tspan
     sodipodi:role="line"
     id="tspan394"
     x="513.87256"
     y="241.38612"
     style="stroke-width:27.3994;fill:white">Free Software</tspan></text>
		</g><g
       id="g3663"
       transform="translate(16.564834,16.038773)"><text
         xml:space="preserve"
         style="font-weight:bold;line-height:0%;font-family:MicroMieps;-inkscape-font-specification:'MicroMieps Bold';text-align:end;text-anchor:end;display:inline;fill:black;fill-rule:evenodd;stroke-width:106.919;paint-order:markers fill stroke"
         x="437.8848"
         y="206.3779"
         id="text511"
         transform="scale(1.0000123,0.99998769)"><tspan
           sodipodi:role="line"
           id="tspan509"
           x="437.8848"
           y="206.3779"
           style="font-size:26.5004px;line-height:1.25;stroke-width:106.919">AGPL</tspan></text><text
         xml:space="preserve"
         style="font-weight:bold;font-size:26.5582px;font-family:MicroMieps;-inkscape-font-specification:'MicroMieps Bold';text-align:end;text-anchor:end;display:inline;fill-rule:evenodd;stroke-width:107.152;paint-order:markers fill stroke"
         x="524.25745"
         y="206.35501"
         id="text395"
         transform="scale(0.99996932,1.0000307)"><tspan
           sodipodi:role="line"
           id="tspan393"
           x="524.25745"
           y="206.35501"
           style="stroke-width:107.152">3</tspan></text></g><g
       id="g3655"
       transform="translate(261.91309,15.088347)"><path
         id="path3657"
         d="M 240.71946,155.66132 L 218.34446,195.81757 C 224.31015,194.5829 230.60959,192.94653 236.81321,190.81757 L 257.68821,155.66132 L 240.71946,155.66132 z M 197.59446,173.72382 L 197.59446,198.91132 C 201.82035,198.4988 206.76846,197.88729 212.25071,196.94257 L 212.18821,173.72382 L 197.59446,173.72382 z"
         style="fill:url(#linearGradient4011);fill-opacity:1" /><path
         id="path3659"
         d="M 228.37571,204.91132 C 223.8493,207.89087 217.4158,209.78632 210.28196,209.78632 C 205.60859,209.78632 201.26498,208.95653 197.53196,207.56757 L 197.53196,215.28632 L 214.40696,215.28632 C 214.65785,215.28634 215.35148,215.20982 216.34446,215.09882 C 217.16845,215.00765 218.25613,214.65954 219.56321,214.00507 C 219.57363,214.00493 219.58404,214.00491 219.59446,214.00507 C 220.84816,213.37915 222.2628,212.3236 223.84446,210.84882 C 225.30204,209.48976 226.84734,207.5048 228.43821,204.94257 C 228.41691,204.93608 228.39706,204.91777 228.37571,204.91132 z"
         style="opacity:0.65116278;fill:#ffffff;fill-opacity:1;fill-rule:nonzero;stroke-width:1;stroke-linecap:butt;stroke-linejoin:miter;marker:none;marker-start:none;marker-mid:none;marker-end:none;stroke-miterlimit:4;stroke-dasharray:none;stroke-dashoffset:0;stroke-opacity:1;visibility:visible;display:inline;overflow:visible;filter:url(#filter3797);enable-background:accumulate" /></g></g><g
     transform="matrix(1.0020157,0,0,1,15.694954,15.914314)"
     id="g2776"><path
       sodipodi:type="inkscape:offset"
       inkscape:radius="-0.941535"
       inkscape:original="M 76.9375 318.0625 L 76.9375 322.5 C 93.103607 326.0298 115.45019 328.1875 140.125 328.1875 C 160.26114 328.1875 178.83943 326.76607 193.78125 324.3125 L 193.78125 318.0625 L 76.9375 318.0625 z "
       style="opacity:0.34883722;fill:#ffffff;fill-opacity:1;filter:url(#filter3676)"
       id="path2770"
       d="M 77.875,319 L 77.875,321.71875 C 93.887997,325.13909 115.85526,327.25 140.125,327.25 C 159.88372,327.25 178.09556,325.86881 192.84375,323.5 L 192.84375,319 L 77.875,319 z"
       transform="matrix(-1.265412,0,0,-0.4576597,539.25901,374.66724)" /><path
       sodipodi:type="inkscape:offset"
       inkscape:radius="-0.941535"
       inkscape:original="M 76.9375 318.0625 L 76.9375 322.5 C 93.103607 326.0298 115.45019 328.1875 140.125 328.1875 C 160.26114 328.1875 178.83943 326.76607 193.78125 324.3125 L 193.78125 318.0625 L 76.9375 318.0625 z "
       style="opacity:0.70542632;fill:url(#linearGradient4009);fill-opacity:1"
       id="path2772"
       d="M 77.875,319 L 77.875,321.71875 C 93.887997,325.13909 115.85526,327.25 140.125,327.25 C 159.88372,327.25 178.09556,325.86881 192.84375,323.5 L 192.84375,319 L 77.875,319 z"
       transform="matrix(1.265412,0,0,1,196.68825,-102.57618)" /></g></g></svg>
