<?xml version="1.0" encoding="UTF-8" standalone="no"?>
<!-- Generator: Adobe Illustrator 14.0.0, SVG Export Plug-In . SVG Version: 6.00 Build 43363)  -->

<svg
   xmlns:dc="http://purl.org/dc/elements/1.1/"
   xmlns:cc="http://creativecommons.org/ns#"
   xmlns:rdf="http://www.w3.org/1999/02/22-rdf-syntax-ns#"
   xmlns:svg="http://www.w3.org/2000/svg"
   xmlns="http://www.w3.org/2000/svg"
   xmlns:xlink="http://www.w3.org/1999/xlink"
   xmlns:sodipodi="http://sodipodi.sourceforge.net/DTD/sodipodi-0.dtd"
   xmlns:inkscape="http://www.inkscape.org/namespaces/inkscape"
   version="1.1"
   id="Capa_1"
   x="0px"
   y="0px"
   width="841.89px"
   height="595.28px"
   viewBox="0 0 841.89 595.28"
   enable-background="new 0 0 841.89 595.28"
   xml:space="preserve"
   inkscape:version="0.48.2 r9819"
   sodipodi:docname="Licencias.svg"
   sodipodi:version="0.32"
   inkscape:output_extension="org.inkscape.output.svg.inkscape"><metadata
   id="metadata507"><rdf:RDF><cc:Work
       rdf:about=""><dc:format>image/svg+xml</dc:format><dc:type
         rdf:resource="http://purl.org/dc/dcmitype/StillImage" /><dc:title></dc:title><cc:license
         rdf:resource="http://creativecommons.org/licenses/by/3.0/" /></cc:Work><cc:License
       rdf:about="http://creativecommons.org/licenses/by/3.0/"><cc:permits
         rdf:resource="http://creativecommons.org/ns#Reproduction" /><cc:permits
         rdf:resource="http://creativecommons.org/ns#Distribution" /><cc:requires
         rdf:resource="http://creativecommons.org/ns#Notice" /><cc:requires
         rdf:resource="http://creativecommons.org/ns#Attribution" /><cc:permits
         rdf:resource="http://creativecommons.org/ns#DerivativeWorks" /></cc:License></rdf:RDF></metadata><defs
   id="defs505"><linearGradient
   id="linearGradient4471"><stop
     style="stop-color:#696a6b;stop-opacity:1;"
     offset="0"
     id="stop4473" /><stop
     style="stop-color:#9b9c9e;stop-opacity:1;"
     offset="1"
     id="stop4475" /></linearGradient><linearGradient
   id="linearGradient4455"><stop
     style="stop-color:#696a6b;stop-opacity:1;"
     offset="0"
     id="stop4457" /><stop
     style="stop-color:#9b9c9e;stop-opacity:1;"
     offset="1"
     id="stop4459" /></linearGradient><linearGradient
   id="linearGradient4260"><stop
     style="stop-color:#911d21;stop-opacity:1;"
     offset="0"
     id="stop4262" /><stop
     style="stop-color:#c4282d;stop-opacity:1;"
     offset="1"
     id="stop4264" /></linearGradient><linearGradient
   id="linearGradient4235"><stop
     style="stop-color:#592350;stop-opacity:1;"
     offset="0"
     id="stop4237" /><stop
     style="stop-color:#742e68;stop-opacity:1;"
     offset="1"
     id="stop4239" /></linearGradient><linearGradient
   id="linearGradient4197"><stop
     style="stop-color:#16813d;stop-opacity:1;"
     offset="0"
     id="stop4199" /><stop
     style="stop-color:#0d4f25;stop-opacity:1;"
     offset="1"
     id="stop4201" /></linearGradient><linearGradient
   id="linearGradient3598"><stop
     style="stop-color:#742e68;stop-opacity:1;"
     offset="0"
     id="stop3600" /><stop
     style="stop-color:#481c40;stop-opacity:1;"
     offset="1"
     id="stop3602" /></linearGradient><linearGradient
   inkscape:collect="always"
   id="linearGradient3632"><stop
     style="stop-color:#ffffff;stop-opacity:1;"
     offset="0"
     id="stop3634" /><stop
     style="stop-color:#ffffff;stop-opacity:0;"
     offset="1"
     id="stop3636" /></linearGradient><linearGradient
   inkscape:collect="always"
   id="linearGradient3584"><stop
     style="stop-color:#ffffff;stop-opacity:1;"
     offset="0"
     id="stop3586" /><stop
     style="stop-color:#ffffff;stop-opacity:0;"
     offset="1"
     id="stop3588" /></linearGradient><linearGradient
   inkscape:collect="always"
   id="linearGradient3542"><stop
     style="stop-color:#ffffff;stop-opacity:1;"
     offset="0"
     id="stop3544" /><stop
     style="stop-color:#ffffff;stop-opacity:0;"
     offset="1"
     id="stop3546" /></linearGradient><linearGradient
   id="linearGradient3536"><stop
     style="stop-color:#ffffff;stop-opacity:1"
     offset="0"
     id="stop3538" /><stop
     style="stop-color:#ffffff;stop-opacity:0"
     offset="1"
     id="stop3540" /></linearGradient><linearGradient
   id="linearGradient3530"><stop
     style="stop-color:#ffffff;stop-opacity:1"
     offset="0"
     id="stop3532" /><stop
     style="stop-color:#7f1a1d;stop-opacity:1;"
     offset="1"
     id="stop3534" /></linearGradient><linearGradient
   id="linearGradient3483"><stop
     id="stop3485"
     offset="0"
     style="stop-color:#c4282d;stop-opacity:1;" /><stop
     id="stop3487"
     offset="1"
     style="stop-color:#7f1a1d;stop-opacity:1;" /></linearGradient><linearGradient
   id="linearGradient3467"><stop
     style="stop-color:#000000;stop-opacity:1;"
     offset="0"
     id="stop3469" /><stop
     style="stop-color:#000000;stop-opacity:0;"
     offset="1"
     id="stop3471" /></linearGradient>
	
	
	
	
<linearGradient
   inkscape:collect="always"
   xlink:href="#linearGradient3483"
   id="linearGradient3481"
   x1="193.67853"
   y1="227.42769"
   x2="192.737"
   y2="164.42589"
   gradientUnits="userSpaceOnUse" /><linearGradient
   inkscape:collect="always"
   xlink:href="#linearGradient3542"
   id="linearGradient3548"
   x1="223.70312"
   y1="167.78789"
   x2="223.70312"
   y2="224.78125"
   gradientUnits="userSpaceOnUse" />
		
		
	<linearGradient
   inkscape:collect="always"
   xlink:href="#linearGradient3584"
   id="linearGradient3590"
   x1="234.03793"
   y1="165.15395"
   x2="234.35178"
   y2="210.66147"
   gradientUnits="userSpaceOnUse" />
		
	<filter
   inkscape:collect="always"
   id="filter3676"
   x="-0.041724954"
   width="1.0834499"
   y="-0.58146253"
   height="2.1629251"><feGaussianBlur
     inkscape:collect="always"
     stdDeviation="1.9987774"
     id="feGaussianBlur3678" /></filter>
		
	<filter
   inkscape:collect="always"
   id="filter3797"
   x="-0.16028311"
   width="1.3205662"
   y="-0.47746988"
   height="1.9549398"><feGaussianBlur
     inkscape:collect="always"
     stdDeviation="2.0640625"
     id="feGaussianBlur3799" /></filter><linearGradient
   inkscape:collect="always"
   xlink:href="#linearGradient3483"
   id="linearGradient3947"
   gradientUnits="userSpaceOnUse"
   x1="193.67853"
   y1="227.42769"
   x2="192.737"
   y2="164.42589" /><filter
   inkscape:collect="always"
   id="filter4003"
   x="-0.024206416"
   width="1.0484128"
   y="-0.10283295"
   height="1.2056659"><feGaussianBlur
     inkscape:collect="always"
     stdDeviation="0.99465172"
     id="feGaussianBlur4005" /></filter>
	
	
	
	

		
	
		
		
		
	
		
		
		
		
		
		
		
		
		
		
		
		
	
		
	
	
	
	
	

		
	
		
		
	
		
	
		
		
		
		
	<linearGradient
   inkscape:collect="always"
   xlink:href="#linearGradient3598"
   id="linearGradient3620"
   x1="473.95499"
   y1="225.58197"
   x2="473.95499"
   y2="164.577"
   gradientUnits="userSpaceOnUse" /><linearGradient
   inkscape:collect="always"
   xlink:href="#linearGradient3483"
   id="linearGradient3883"
   gradientUnits="userSpaceOnUse"
   gradientTransform="translate(2.7507074,-101.77618)"
   x1="138.40564"
   y1="330.10239"
   x2="138.40564"
   y2="319.71936" /><linearGradient
   inkscape:collect="always"
   xlink:href="#linearGradient3598"
   id="linearGradient3891"
   gradientUnits="userSpaceOnUse"
   x1="473.95499"
   y1="225.58197"
   x2="473.95499"
   y2="164.577" /><linearGradient
   inkscape:collect="always"
   xlink:href="#linearGradient3598"
   id="linearGradient4005"
   gradientUnits="userSpaceOnUse"
   x1="473.95499"
   y1="225.58197"
   x2="473.95499"
   y2="164.577" /><linearGradient
   inkscape:collect="always"
   xlink:href="#linearGradient3598"
   id="linearGradient2938"
   gradientUnits="userSpaceOnUse"
   gradientTransform="translate(16.564834,16.038773)"
   x1="365.68323"
   y1="228.72025"
   x2="365.68323"
   y2="216.25424" />
	
	
	
	
	
	
	
	
	
<linearGradient
   inkscape:collect="always"
   xlink:href="#linearGradient3632"
   id="linearGradient3218"
   gradientUnits="userSpaceOnUse"
   x1="137.46411"
   y1="317.84103"
   x2="137.46411"
   y2="324.8385" /><linearGradient
   inkscape:collect="always"
   xlink:href="#linearGradient3584"
   id="linearGradient3220"
   gradientUnits="userSpaceOnUse"
   gradientTransform="translate(3.7826799,-9.9750279)"
   x1="234.03793"
   y1="165.15395"
   x2="233.72409"
   y2="209.09224" />
	
	
	
	
<linearGradient
   inkscape:collect="always"
   xlink:href="#linearGradient4471"
   id="linearGradient4477"
   x1="664.09625"
   y1="501.10046"
   x2="664.09625"
   y2="510.29501"
   gradientUnits="userSpaceOnUse" /><linearGradient
   inkscape:collect="always"
   xlink:href="#linearGradient4471"
   id="linearGradient4513"
   gradientUnits="userSpaceOnUse"
   x1="664.09625"
   y1="501.10046"
   x2="664.09625"
   y2="510.29501" />
		
		
	</defs><sodipodi:namedview
   pagecolor="#ffffff"
   bordercolor="#666666"
   borderopacity="1"
   objecttolerance="10"
   gridtolerance="10"
   guidetolerance="10"
   inkscape:pageopacity="0"
   inkscape:pageshadow="2"
   inkscape:window-width="1280"
   inkscape:window-height="746"
   id="namedview503"
   showgrid="false"
   inkscape:zoom="0.90545621"
   inkscape:cx="420.94501"
   inkscape:cy="443.33958"
   inkscape:window-x="0"
   inkscape:window-y="0"
   inkscape:window-maximized="1"
   inkscape:current-layer="Capa_1"
   showguides="true"
   inkscape:guide-bbox="true" />

















<g
   id="g4787"><g
     transform="translate(2,2)"
     style="fill:#999999;fill-opacity:1;fill-rule:nonzero;stroke-width:1;stroke-linecap:butt;stroke-linejoin:miter;marker:none;marker-start:none;marker-mid:none;marker-end:none;stroke-miterlimit:4;stroke-dasharray:none;stroke-dashoffset:0;stroke-opacity:1;visibility:visible;display:inline;overflow:visible;filter:url(#filter4003);enable-background:accumulate"
     id="g3046"><g
       style="fill:#999999;fill-opacity:1;fill-rule:nonzero;stroke-width:1;stroke-linecap:butt;stroke-linejoin:miter;marker:none;marker-start:none;marker-mid:none;marker-end:none;stroke-miterlimit:4;stroke-dasharray:none;stroke-dashoffset:0;stroke-opacity:1;visibility:visible;display:inline;overflow:visible;filter:url(#filter4003);enable-background:accumulate"
       id="g3048"
       transform="translate(7.1810166,5.3466228)">
		<path
   style="fill:#999999;fill-opacity:1;fill-rule:nonzero;stroke-width:1;stroke-linecap:butt;stroke-linejoin:miter;marker:none;marker-start:none;marker-mid:none;marker-end:none;stroke-miterlimit:4;stroke-dasharray:none;stroke-dashoffset:0;stroke-opacity:1;visibility:visible;display:inline;overflow:visible;filter:url(#filter4003);enable-background:accumulate"
   id="path3050"
   d="M 589.022,212.291 C 588.773,213.766 588.078,214.951 586.934,215.845 C 585.824,216.707 584.482,217.137 582.908,217.137 L 567.871,217.137 C 566.182,217.137 564.748,216.673 563.572,215.745 C 562.329,214.784 561.708,213.599 561.708,212.191 L 561.708,195.44 L 564.814,195.44 L 564.814,212.191 C 564.814,212.688 565.087,213.119 565.634,213.483 L 565.609,213.458 C 566.222,213.872 566.976,214.079 567.871,214.079 L 582.908,214.079 C 583.67,214.079 584.333,213.913 584.896,213.582 L 584.871,213.582 C 585.468,213.218 585.874,212.597 586.09,211.718 L 588.526,211.718 L 589.022,212.291 z" />
		<path
   style="fill:#999999;fill-opacity:1;fill-rule:nonzero;stroke-width:1;stroke-linecap:butt;stroke-linejoin:miter;marker:none;marker-start:none;marker-mid:none;marker-end:none;stroke-miterlimit:4;stroke-dasharray:none;stroke-dashoffset:0;stroke-opacity:1;visibility:visible;display:inline;overflow:visible;filter:url(#filter4003);enable-background:accumulate"
   id="path3052"
   d="M 619.89,215.721 C 618.697,216.665 617.255,217.138 615.566,217.138 L 600.554,217.138 C 598.847,217.138 597.422,216.674 596.279,215.746 C 595.052,214.785 594.44,213.6 594.44,212.192 L 594.44,200.361 C 594.44,198.986 595.052,197.81 596.279,196.832 C 597.472,195.888 598.914,195.415 600.603,195.415 L 615.64,195.415 C 617.214,195.415 618.548,195.854 619.641,196.732 C 620.785,197.61 621.522,198.994 621.853,200.882 L 618.796,200.882 C 618.58,199.971 618.175,199.333 617.578,198.968 C 617.064,198.653 616.41,198.496 615.614,198.496 L 600.602,198.496 C 599.707,198.496 598.946,198.703 598.316,199.117 C 597.769,199.465 597.496,199.879 597.496,200.36 L 597.496,212.191 C 597.496,212.688 597.769,213.119 598.316,213.483 L 598.292,213.458 C 598.904,213.872 599.658,214.079 600.554,214.079 L 615.566,214.079 C 616.344,214.079 617.04,213.913 617.653,213.582 C 618.382,213.234 618.747,212.762 618.747,212.165 L 618.747,207.815 L 606.594,207.815 L 606.594,204.758 L 621.78,204.758 L 621.78,212.19 C 621.778,213.567 621.148,214.743 619.89,215.721 z" />
		<path
   style="fill:#999999;fill-opacity:1;fill-rule:nonzero;stroke-width:1;stroke-linecap:butt;stroke-linejoin:miter;marker:none;marker-start:none;marker-mid:none;marker-end:none;stroke-miterlimit:4;stroke-dasharray:none;stroke-dashoffset:0;stroke-opacity:1;visibility:visible;display:inline;overflow:visible;filter:url(#filter4003);enable-background:accumulate"
   id="path3054"
   d="M 652.744,206.4 C 651.601,207.328 650.168,207.792 648.444,207.792 L 630.326,207.792 L 630.326,217.137 L 627.269,217.137 L 627.269,200.361 C 627.269,198.986 627.881,197.81 629.108,196.832 C 630.301,195.888 631.743,195.415 633.432,195.415 L 648.444,195.415 C 650.118,195.415 651.543,195.887 652.719,196.832 C 653.961,197.81 654.583,198.986 654.583,200.361 L 654.583,202.846 C 654.584,204.255 653.971,205.439 652.744,206.4 z M 651.552,200.361 C 651.552,199.897 651.27,199.483 650.706,199.118 C 650.076,198.704 649.323,198.497 648.444,198.497 L 633.408,198.497 C 632.645,198.497 631.958,198.654 631.345,198.969 C 630.665,199.284 630.325,199.748 630.325,200.361 L 630.325,204.736 L 648.443,204.736 C 649.322,204.736 650.075,204.537 650.705,204.139 C 651.268,203.775 651.551,203.344 651.551,202.847 L 651.551,200.361 L 651.552,200.361 z" />
		<path
   style="fill:#999999;fill-opacity:1;fill-rule:nonzero;stroke-width:1;stroke-linecap:butt;stroke-linejoin:miter;marker:none;marker-start:none;marker-mid:none;marker-end:none;stroke-miterlimit:4;stroke-dasharray:none;stroke-dashoffset:0;stroke-opacity:1;visibility:visible;display:inline;overflow:visible;filter:url(#filter4003);enable-background:accumulate"
   id="path3056"
   d="M 687.365,212.291 C 687.116,213.766 686.421,214.951 685.277,215.845 C 684.167,216.707 682.825,217.137 681.251,217.137 L 666.214,217.137 C 664.525,217.137 663.091,216.673 661.915,215.745 C 660.672,214.784 660.051,213.599 660.051,212.191 L 660.051,195.44 L 663.157,195.44 L 663.157,212.191 C 663.157,212.688 663.43,213.119 663.977,213.483 L 663.952,213.458 C 664.565,213.872 665.319,214.079 666.214,214.079 L 681.251,214.079 C 682.013,214.079 682.676,213.913 683.239,213.582 L 683.215,213.582 C 683.812,213.218 684.217,212.597 684.433,211.718 L 686.869,211.718 L 687.365,212.291 z" />
	</g><g
       style="fill:#999999;fill-opacity:1;fill-rule:nonzero;stroke-width:1;stroke-linecap:butt;stroke-linejoin:miter;marker:none;marker-start:none;marker-mid:none;marker-end:none;stroke-miterlimit:4;stroke-dasharray:none;stroke-dashoffset:0;stroke-opacity:1;visibility:visible;display:inline;overflow:visible;filter:url(#filter4003);enable-background:accumulate"
       id="g3058"
       transform="translate(7.1810166,5.3466228)">
		<path
   style="fill:#999999;fill-opacity:1;fill-rule:nonzero;stroke-width:1;stroke-linecap:butt;stroke-linejoin:miter;marker:none;marker-start:none;marker-mid:none;marker-end:none;stroke-miterlimit:4;stroke-dasharray:none;stroke-dashoffset:0;stroke-opacity:1;visibility:visible;display:inline;overflow:visible;filter:url(#filter4003);enable-background:accumulate"
   id="path3060"
   d="M 774.246,211.954 C 774.246,213.459 773.582,214.725 772.254,215.752 C 771.033,216.744 769.51,217.239 767.686,217.239 L 751.618,217.239 C 749.936,217.239 748.511,216.787 747.343,215.885 C 746.085,214.911 745.288,213.424 744.952,211.423 L 748.22,211.423 C 748.449,212.361 748.874,213.034 749.494,213.442 L 749.468,213.442 C 750.07,213.796 750.786,213.973 751.618,213.973 L 767.686,213.973 C 768.607,213.973 769.404,213.76 770.077,213.335 C 770.679,212.946 770.98,212.485 770.98,211.954 L 770.98,209.298 C 770.98,208.803 770.678,208.36 770.077,207.97 C 769.369,207.51 768.563,207.279 767.661,207.279 L 759.108,207.279 L 759.108,204.012 L 767.686,204.012 C 768.625,204.012 769.422,203.791 770.077,203.348 C 770.679,202.959 770.98,202.507 770.98,201.994 L 770.98,199.338 C 770.98,198.842 770.678,198.4 770.077,198.01 C 769.369,197.55 768.563,197.32 767.661,197.32 L 751.618,197.32 C 750.804,197.32 750.096,197.497 749.494,197.851 L 749.52,197.851 C 748.883,198.223 748.449,198.896 748.219,199.87 L 744.951,199.87 C 745.269,197.851 746.049,196.382 747.289,195.461 C 748.457,194.523 749.9,194.054 751.617,194.054 L 767.685,194.054 C 769.474,194.054 770.997,194.55 772.253,195.541 C 773.581,196.586 774.245,197.852 774.245,199.339 C 774.245,200.631 774.192,201.809 774.086,202.871 C 774.05,203.402 773.874,203.89 773.555,204.332 C 773.413,204.527 773.249,204.73 773.064,204.943 C 772.879,205.156 772.652,205.386 772.386,205.633 C 772.9,206.111 773.289,206.554 773.555,206.961 C 773.856,207.457 774.033,207.935 774.086,208.395 C 774.193,209.44 774.246,210.626 774.246,211.954 z" />
	</g></g><rect
     x="559.96704"
     y="231.61362"
     width="143.922"
     height="13.788"
     id="rect4132"
     style="fill:#16813d" /><g
     transform="translate(7.1810166,5.3466228)"
     id="g4128">
		<path
   d="M 740.254,164.577 L 759.708,164.577 L 729.74,215.077 C 728.028,217.892 726.358,220.058 724.73,221.576 C 723.102,223.094 721.598,224.198 720.218,224.887 C 718.839,225.578 717.652,225.978 716.659,226.088 C 715.665,226.199 714.973,226.254 714.589,226.254 L 696.707,226.254 L 696.707,182.626 L 713.431,182.626 L 713.513,212.594 L 740.254,164.577 z"
   id="path4130"
   style="fill:#16813d" />
	</g><g
     style="fill:#000000"
     transform="translate(7.4212679,5.7069997)"
     id="g3011">
		<text
   xml:space="preserve"
   style="font-weight:bold;font-size:6.76335px;font-family:MicroMieps;-inkscape-font-specification:'MicroMieps Bold';text-align:end;text-anchor:end;fill-rule:evenodd;stroke-width:27.2874;paint-order:markers fill stroke"
   x="761.40833"
   y="241.93201"
   id="text396"
   transform="matrix(1,0,-0.36397023,1,-7.4212679,-5.7069997)"><tspan
     sodipodi:role="line"
     id="tspan394"
     x="761.40833"
     y="241.93201"
     style="stroke-width:27.2874">Free Software</tspan></text>
	</g><g
     transform="translate(7.1810166,5.3466228)"
     id="g4134">
		<text
   xml:space="preserve"
   style="font-weight:bold;font-size:6.79112px;font-family:MicroMieps;-inkscape-font-specification:'MicroMieps Bold';text-align:end;text-anchor:end;fill:white;fill-rule:evenodd;stroke-width:27.3994;paint-order:markers fill stroke"
   x="752.24945"
   y="236.22501"
   id="text549"
   transform="skewX(-20)"><tspan
     sodipodi:role="line"
     id="tspan547"
     x="752.24945"
     y="236.22501"
     style="stroke-width:27.3994;fill:white">Free Software</tspan></text>
	</g><g
     id="g3037"><g
       id="g4118"
       transform="translate(7.1810166,5.3466228)">
		<text
   xml:space="preserve"
   style="font-weight:bold;font-size:25.0756px;font-family:MicroMieps;-inkscape-font-specification:'MicroMieps Bold';text-align:end;text-anchor:end;display:inline;fill-rule:evenodd;stroke-width:101.17;paint-order:markers fill stroke"
   x="685.82501"
   y="219.06732"
   id="text774"
   transform="scale(1.0088852,0.99119309)"><tspan
     sodipodi:role="line"
     id="tspan772"
     x="685.82501"
     y="219.06732"
     style="stroke-width:101.17">LGPL</tspan></text>
	</g><g
       id="g4160"
       transform="translate(7.1810166,5.3466228)">
		<text
   xml:space="preserve"
   style="font-weight:bold;font-size:26.5578px;font-family:MicroMieps;-inkscape-font-specification:'MicroMieps Bold';text-align:end;text-anchor:end;display:inline;fill-rule:evenodd;stroke-width:107.15;paint-order:markers fill stroke"
   x="786.20575"
   y="222.58562"
   id="text397"
   transform="translate(-7.1810166,-5.3466228)"><tspan
     sodipodi:role="line"
     id="tspan395"
     x="786.20575"
     y="222.58562"
     style="stroke-width:107.15">3</tspan></text>
	</g></g><g
     transform="translate(507.44592,15.088347)"
     id="g2948"><path
       style="fill:url(#linearGradient3220);fill-opacity:1"
       d="M 240.71946,155.66132 L 218.34446,195.81757 C 224.31015,194.5829 230.60959,192.94653 236.81321,190.81757 L 257.68821,155.66132 L 240.71946,155.66132 z M 197.59446,173.72382 L 197.59446,198.91132 C 201.82035,198.4988 206.76846,197.88729 212.25071,196.94257 L 212.18821,173.72382 L 197.59446,173.72382 z"
       id="path2950" /><path
       style="opacity:0.65116278;fill:#ffffff;fill-opacity:1;fill-rule:nonzero;stroke-width:1;stroke-linecap:butt;stroke-linejoin:miter;marker:none;marker-start:none;marker-mid:none;marker-end:none;stroke-miterlimit:4;stroke-dasharray:none;stroke-dashoffset:0;stroke-opacity:1;visibility:visible;display:inline;overflow:visible;filter:url(#filter3797);enable-background:accumulate"
       d="M 228.37571,204.91132 C 223.8493,207.89087 217.4158,209.78632 210.28196,209.78632 C 205.60859,209.78632 201.26498,208.95653 197.53196,207.56757 L 197.53196,215.28632 L 214.40696,215.28632 C 214.65785,215.28634 215.35148,215.20982 216.34446,215.09882 C 217.16845,215.00765 218.25613,214.65954 219.56321,214.00507 C 219.57363,214.00493 219.58404,214.00491 219.59446,214.00507 C 220.84816,213.37915 222.2628,212.3236 223.84446,210.84882 C 225.30204,209.48976 226.84734,207.5048 228.43821,204.94257 C 228.41691,204.93608 228.39706,204.91777 228.37571,204.91132 z"
       id="path2952" /></g><g
     transform="matrix(0.978896,0,0,1,271.62866,15.914314)"
     id="g2956"><path
       sodipodi:type="inkscape:offset"
       inkscape:radius="-0.941535"
       inkscape:original="M 76.9375 318.0625 L 76.9375 322.5 C 93.103607 326.0298 115.45019 328.1875 140.125 328.1875 C 160.26114 328.1875 178.83943 326.76607 193.78125 324.3125 L 193.78125 318.0625 L 76.9375 318.0625 z "
       style="opacity:0.34883722;fill:#ffffff;fill-opacity:1;filter:url(#filter3676)"
       id="path2958"
       d="M 77.875,319 L 77.875,321.71875 C 93.887997,325.13909 115.85526,327.25 140.125,327.25 C 159.88372,327.25 178.09556,325.86881 192.84375,323.5 L 192.84375,319 L 77.875,319 z"
       transform="matrix(-1.265412,0,0,-0.4576597,539.25901,374.66724)" /><path
       sodipodi:type="inkscape:offset"
       inkscape:radius="-0.941535"
       inkscape:original="M 76.9375 318.0625 L 76.9375 322.5 C 93.103607 326.0298 115.45019 328.1875 140.125 328.1875 C 160.26114 328.1875 178.83943 326.76607 193.78125 324.3125 L 193.78125 318.0625 L 76.9375 318.0625 z "
       style="opacity:0.70542632;fill:url(#linearGradient3218);fill-opacity:1"
       id="path2960"
       d="M 77.875,319 L 77.875,321.71875 C 93.887997,325.13909 115.85526,327.25 140.125,327.25 C 159.88372,327.25 178.09556,325.86881 192.84375,323.5 L 192.84375,319 L 77.875,319 z"
       transform="matrix(1.265412,0,0,1,196.68825,-102.57618)" /></g></g></svg>
