<?xml version="1.0" encoding="UTF-8" standalone="no"?>
<!-- Created with Inkscape (http://www.inkscape.org/) -->
<svg
   xmlns:dc="http://purl.org/dc/elements/1.1/"
   xmlns:cc="http://web.resource.org/cc/"
   xmlns:rdf="http://www.w3.org/1999/02/22-rdf-syntax-ns#"
   xmlns:svg="http://www.w3.org/2000/svg"
   xmlns="http://www.w3.org/2000/svg"
   xmlns:sodipodi="http://sodipodi.sourceforge.net/DTD/sodipodi-0.dtd"
   xmlns:inkscape="http://www.inkscape.org/namespaces/inkscape"
   width="1620"
   height="1080"
   id="svg1341"
   sodipodi:version="0.32"
   inkscape:version="0.45.1"
   sodipodi:docname="agpl-logo2.svg"
   inkscape:output_extension="org.inkscape.output.svg.inkscape"
   version="1.0">
  <sodipodi:namedview
     id="base"
     pagecolor="#ffffff"
     bordercolor="#666666"
     borderopacity="1.0"
     inkscape:pageopacity="0.0"
     inkscape:pageshadow="2"
     inkscape:zoom="0.5054504"
     inkscape:cx="897.55388"
     inkscape:cy="461.72056"
     inkscape:document-units="px"
     inkscape:current-layer="g2803"
     inkscape:window-width="1278"
     inkscape:window-height="971"
     inkscape:window-x="0"
     inkscape:window-y="27"
     showguides="true"
     inkscape:guide-bbox="true"
     width="18in"
     height="12in"
     units="in"
     showborder="true">
  </sodipodi:namedview>

  <defs>
     <mask id="free-software-text-mask" x="0" y="0" width="100%" height="100%">
        <rect width="100%" height="100%" fill="white" />

        <text
          xml:space="preserve"
          style="font-weight:bold;font-size:32.7085px;font-family:MicroMieps;-inkscape-font-specification:'MicroMieps Bold';text-align:end;text-anchor:end;display:inline;fill:black;fill-rule:evenodd;stroke-width:1.68101;paint-order:markers fill stroke"
          x="417.40491"
          y="392.01007"
          id="text295"
          transform="matrix(0.55843818,0,0,0.55843818,383.85455,377.4635)"><tspan
            sodipodi:role="line"
            id="tspan293"
            x="417.40491"
            y="392.01007"
            style="font-style:italic;font-variant:normal;font-weight:bold;font-stretch:normal;font-family:Swansea;-inkscape-font-specification:'Swansea Bold Italic';stroke-width:1.68101">Free Software</tspan></text>
     </mask>
  </defs>

  <metadata
     id="metadata1346">
    <rdf:RDF>
      <cc:Work
         rdf:about="">
        <dc:format>image/svg+xml</dc:format>
        <dc:type
           rdf:resource="http://purl.org/dc/dcmitype/StillImage" />
      </cc:Work>
    </rdf:RDF>
  </metadata>
  <g
     inkscape:label="Layer 1"
     id="layer1"
     inkscape:groupmode="layer">
    <g
       id="g2657"
       transform="matrix(1.7907085,0,0,1.7907085,-687.3716,-675.92709)">
      <g
         transform="matrix(0.385154,0,0,0.385154,761.04039,896.78783)"
         id="g3723"
         style="fill:#008033;fill-opacity:1">
        <text
           xml:space="preserve"
           style="font-style:italic;font-weight:bold;font-size:62.1022px;font-family:'Myriad Pro';-inkscape-font-specification:'Myriad Pro Bold Italic';text-align:end;text-anchor:end;fill-opacity:0.941176;fill-rule:evenodd;stroke-width:250.557;paint-order:markers fill stroke"
           x="643.32379"
           y="468.82739"
           id="text1249"
           transform="matrix(1.4499088,0,0,1.4499088,-979.31176,-1348.355)"><tspan
             sodipodi:role="line"
             id="tspan1247"
             x="643.32379"
             y="468.82739"
             style="stroke-width:250.557">Free as in Freedom</tspan></text>
      </g>
      <path
         id="path3785"
         sodipodi:nodetypes="cccccssccccscccsccc"
         d="M 657.13929,595.58958 C 657.40595,596.27494 657.67261,596.95928 657.95022,597.62855 C 658.37795,598.53788 658.87234,599.40817 659.46661,600.22082 C 662.67712,604.58494 668.05377,606.97447 674.88026,607.56932 C 674.88026,607.56932 682.22317,607.56932 682.22317,607.56932 C 684.54501,607.38827 686.9778,607.05061 689.49952,606.55736 C 693.84869,605.70694 698.45893,604.40059 703.24678,602.65475 C 706.87383,601.33231 710.60088,599.76763 714.38352,597.94909 C 722.62069,594.00036 731.13011,588.90749 739.47846,582.76158 C 742.22792,580.73915 744.8663,578.66399 747.39909,576.5539 C 749.72093,574.622 751.94826,572.6602 754.07558,570.6767 C 760.01329,564.95452 764.49567,559.14295 767.03406,554.04004 C 769.67804,548.72606 770.20564,544.1826 768.0395,541.32037 C 766.71192,539.56346 764.49019,538.62194 761.62967,538.40037 C 774.51589,528.73117 782.02557,517.00188 779.33171,509.60669 C 778.47626,507.24661 776.59333,505.48582 773.89388,504.51211 C 772.69415,504.08062 771.3443,503.80722 769.87244,503.6828 C 769.87244,503.6828 765.90658,503.6828 765.90658,503.6828 C 760.36875,504.08221 752.31571,506.06514 745.48386,509.41332"
         style="fill:#aa0000;fill-opacity:0;fill-rule:evenodd;stroke:#007f32;stroke-width:3.28386545;stroke-linecap:butt;stroke-linejoin:miter;stroke-miterlimit:4;stroke-opacity:1" />
      <path
         d="m 494.3961,506.25189 -22.07313,99.66531 h 42.58107 105.67893 54.9637 c -6.54807,-0.57144 -11.71765,-2.87011 -14.79791,-7.06027 -0.57144,-0.77509 -1.04346,-1.60999 -1.45726,-2.48348 -0.26266,-0.64358 -0.5098,-1.29299 -0.75933,-1.94982 -0.65683,-2.08851 -0.91869,-4.40613 -0.80043,-6.87557 0.3283,-6.88299 3.55798,-15.07028 9.1538,-23.64385 5.94376,-9.11134 14.55808,-18.66103 25.22417,-27.52284 2.39056,-1.98475 4.86251,-3.94473 7.45021,-5.84946 3.19852,-2.35312 6.42159,-4.5204 9.64637,-6.54716 11.881,-7.48 23.73244,-12.71396 34.23426,-15.37255 -10.0354,3.27398 -21.3098,8.83213 -32.4487,16.39877 -0.40056,0.27054 -0.79632,0.5477 -1.19037,0.82098 -6.18028,4.28217 -11.77918,8.82996 -16.66566,13.42273 -15.72311,14.78399 -24.03368,30.10323 -20.25732,39.07805 0.26928,0.61733 0.59027,1.20681 0.96469,1.76512 4.05877,5.97001 14.11814,7.00194 26.86612,3.79691 0.86698,-0.21678 1.73385,-0.4622 2.62708,-0.71836 4.07202,-1.17564 8.39516,-2.76338 12.84809,-4.7205 1.07052,-0.47293 2.15256,-0.95888 3.24282,-1.47781 0.11164,-0.0525 0.21677,-0.10502 0.32841,-0.16415 14.0549,-6.98344 24.85637,-15.01891 27.19454,-19.84683 0.5122,-1.05019 0.63537,-1.9456 0.28732,-2.64763 -1.66821,-3.38242 -13.34157,-1.09734 -27.48186,5.02837 -1.13626,0.49257 -2.28554,0.99951 -3.44806,1.53933 0.94575,-0.87805 1.93008,-1.75953 2.93495,-2.62708 1.60246,-1.38055 3.26165,-2.7305 5.02838,-4.06379 2.76509,-2.09377 5.56043,-3.98663 8.31228,-5.66465 12.88587,-9.7216 19.40027,-18.91776 18.04072,-22.33031 -0.25604,-0.64302 -0.80122,-1.08524 -1.64195,-1.35453 -2.6861,-0.85453 -7.5889,0.1653 -13.5459,2.60654 -4.91262,2.015 -10.55513,5.00349 -16.2756,8.72277 l -0.77989,0.51311 -0.14371,0.0821 -2.75025,1.82665 1.58031,-2.89397 c 2.34479,-4.29198 6.16384,-8.77014 10.91893,-12.93017 3.48744,-3.04156 7.47156,-5.90734 11.76034,-8.4149 1.62221,-0.94974 3.24202,-1.83179 4.86423,-2.62708 1.66158,-0.81185 3.32409,-1.53329 4.94629,-2.17562 4.71309,-1.86386 9.89054,-4.21766 13.81393,-4.52565 -0.35729,0 -11.69996,1.22131 -11.69996,1.22131 h -37.14865 -163.80338 z m 161.18057,0.14372 c -0.64358,9.8233 1.26103,24.21153 5.58258,40.18623 0.76835,2.84248 1.60497,5.73531 2.52446,8.66124 0.57144,1.80679 1.16081,3.58527 1.76512,5.33624 -0.35466,0.52144 -0.71184,1.03969 -1.04677,1.55988 -5.39217,8.26354 -8.54378,16.07287 -9.3385,22.86385 -2.27903,-7.63171 -3.99484,-15.99091 -4.96684,-24.85477 -0.27591,-2.53975 -0.49177,-5.05097 -0.63628,-7.53228 -1.06401,-18.02384 1.28899,-34.36245 6.11623,-46.22039 z m -107.6082,12.78645 c 0.12306,-0.003 0.24429,0 0.3694,0 h 24.28013 c 2.07539,0 3.68036,0.38903 4.82324,1.16994 1.13615,0.78547 1.56228,1.80153 1.293,3.03757 l -2.89397,13.07388 h -8.55851 l 2.81178,-12.72504 h -21.42726 l -7.73753,34.97328 -2.79134,12.66339 h 21.40671 l 0.0205,-0.0822 c 0,1.1e-4 4.28947,-19.3747 4.28947,-19.3747 0,-1.2e-4 -10.05674,0 -10.05674,0 0,-1.2e-4 0.96458,-4.37166 0.96458,-4.37166 h 18.61548 l -5.33635,24.1774 c -0.0723,0.34416 -0.19863,0.65603 -0.3694,0.96469 -0.44005,0.80123 -1.20772,1.48751 -2.27823,2.05233 -1.48431,0.7816 -3.26085,1.16994 -5.33624,1.16994 h -24.25959 c -2.07539,0 -3.68036,-0.38834 -4.82313,-1.16994 -1.13626,-0.78148 -1.56889,-1.77962 -1.29299,-3.01702 l 10.69303,-48.33436 c 0.27579,-1.23604 1.13626,-2.2521 2.62708,-3.03757 0.0525,-0.0282 0.11164,-0.0347 0.16415,-0.0615 1.3608,-0.68171 2.95778,-1.06481 4.80269,-1.10841 z m 38.05183,0 h 30.5604 c 2.04913,0 3.65993,0.38903 4.8027,1.16994 1.14939,0.78547 1.58944,1.80153 1.31354,3.03757 l -5.70575,25.77837 c -0.26917,1.22815 -1.15019,2.23017 -2.64763,3.01702 -1.49744,0.78947 -3.26005,1.19037 -5.31569,1.19037 h -22.20714 l -4.28959,19.35427 -0.69781,3.18129 h -8.37381 l 0.63617,-2.87342 z m 42.21812,0 h 8.37392 l -9.4821,42.83397 -2.07299,9.35905 h 20.03153 c 0.21026,1.53614 0.45569,3.04488 0.71835,4.53581 h -30.12948 c 1.1e-4,0 2.38086,-10.75467 2.38086,-10.75467 z m -34.84999,4.55635 -5.56203,25.08057 h 20.87306 l 5.54159,-25.08057 z m -107.18411,51.2176 12.97408,-56.872 h 7.63227 l -11.49133,50.43219 h 29.63348 l -1.48276,6.43981 h -37.26574"
         style="fill:#008033;fill-opacity:1;fill-rule:evenodd;stroke:none;stroke-width:1pt;stroke-linecap:butt;stroke-linejoin:miter;stroke-opacity:1"
         mask="url(#free-software-text-mask)"
         id="path3719"
         sodipodi:nodetypes="ccsccccccccccccsccccccscccccsccscccccccccccccccccccccccccccccccccccccccccccsscccccsscccsccccccccccccccccccccccccccccccc" />
    </g>
  </g>
</svg>
